<svg width="31" height="31" viewBox="0 0 31 31" fill="none" xmlns="http://www.w3.org/2000/svg">
<g clip-path="url(#clip0_346_2743)">
<path d="M24.18 9.07007H22.67V10.5901H21.16V12.1001H19.65V13.6101H18.14V15.1201H16.63V16.6301H15.11V18.1401H12.09V16.6301H10.58V15.1201H9.07003V13.6101H7.56003V12.1001H4.53003V15.1201H6.04003V16.6301H7.56003V18.1401H9.07003V19.6601H10.58V21.1701H12.09V22.6801H15.11V21.1701H16.63V19.6601H18.14V18.1401H19.65V16.6301H21.16V15.1201H22.67V13.6101H24.18V12.1001H25.69V9.07007H24.18Z" fill="white"/>
<path d="M27.21 3.03002V1.52002H3.02001V3.03002H1.51001V27.21H3.02001V28.72H27.21V27.21H28.72V3.03002H27.21ZM25.69 10.59V12.1H24.18V13.61H22.67V15.12H21.16V16.63H19.65V18.14H18.14V19.66H16.63V21.17H15.11V22.68H12.09V21.17H10.58V19.66H9.07001V18.14H7.56001V16.63H6.04001V15.12H4.53001V12.1H7.56001V13.61H9.07001V15.12H10.58V16.63H12.09V18.14H15.11V16.63H16.63V15.12H18.14V13.61H19.65V12.1H21.16V10.59H22.67V9.07002H25.69V10.59Z" fill="url(#paint0_radial_346_2743)"/>
<path d="M28.72 3.03003V27.21H30.23V3.03003H28.72Z" fill="#1D1D1B"/>
<path d="M28.72 27.21H27.21V28.72H28.72V27.21Z" fill="#1D1D1B"/>
<path d="M28.72 1.52002H27.21V3.03002H28.72V1.52002Z" fill="#1D1D1B"/>
<path d="M24.18 28.72H3.02002V30.24H27.21V28.72H24.18Z" fill="#1D1D1B"/>
<path d="M6.04002 1.52H27.21V0H3.02002V1.52H6.04002Z" fill="#1D1D1B"/>
<path d="M3.02001 27.21H1.51001V28.72H3.02001V27.21Z" fill="#1D1D1B"/>
<path d="M3.02001 1.52002H1.51001V3.03002H3.02001V1.52002Z" fill="#1D1D1B"/>
<path d="M1.51 24.19V3.03003H0V27.21H1.51V24.19Z" fill="#1D1D1B"/>
</g>
<defs>
<radialGradient id="paint0_radial_346_2743" cx="0" cy="0" r="1" gradientUnits="userSpaceOnUse" gradientTransform="translate(15.1513 14.7515) rotate(90) scale(11.9419 25.6862)">
<stop stop-color="#ABE175"/>
<stop offset="0.859375" stop-color="#68D525"/>
</radialGradient>
<clipPath id="clip0_346_2743">
<rect width="30.23" height="30.24" fill="white"/>
</clipPath>
</defs>
</svg>
