<svg width="75" height="67" viewBox="0 0 75 67" fill="none" xmlns="http://www.w3.org/2000/svg">
<path d="M49.3366 7.05493H45.7854V10.5825H42.2342V14.1101H45.7854H49.3366V10.5825H52.8879V7.05493H49.3366Z" fill="white"/>
<path d="M20.9279 7.05493V10.5825H24.4792V14.1101H28.0304V10.5825V7.05493H24.4792H20.9279Z" fill="white"/>
<path d="M10.2737 10.5826V14.1102H6.72248V17.6378V21.1654V24.6929H10.2737V21.1654V17.6378H13.8249H17.3762V14.1102V10.5826H13.8249H10.2737Z" fill="white"/>
<path d="M63.5428 14.1107V10.5831V7.05553H59.9916H56.4404V3.52795H52.8891H49.3379V7.05553H52.8891V10.5831H49.3379V14.1107H45.7867H42.2354H38.6842V17.6382H35.133V14.1107H31.5817V10.5831H28.0305V14.1107H24.4793V10.5831H20.928V7.05553H24.4793V3.52795H20.928H17.3768V7.05553H13.8256H10.2743V10.5831H13.8256H17.3768V14.1107V17.6382H13.8256H10.2743V21.1658V24.6934H6.72309V21.1658H3.17186V24.6934V28.221H6.72309V31.7485V35.2761H10.2743V38.8037H13.8256V42.3313H17.3768V45.8588H20.928V49.3864H24.4793V52.914H28.0305V56.4416H31.5817V59.9691H35.133H38.6842V56.4416H42.2354V52.914H45.7867V49.3864H49.3379V45.8588H52.8891V42.3313H56.4404V38.8037H59.9916V35.2761H63.5428V31.7485H67.0941V28.221V24.6934V21.1658V17.6382V14.1107H63.5428Z" fill="#FF2E47"/>
<path d="M10.2746 10.5833H6.72336V14.1108H10.2746V10.5833Z" fill="#FF2E47"/>
<path d="M70.8995 17.6316V14.1053V10.5789V7.05263H67.3545V3.52632H63.8095H60.2645V0H56.7196H53.1746H49.6296H46.0847V3.52632H42.5397V7.05263H38.9947V10.5789H35.4497V7.05263H31.9048V3.52632H28.3598V0H24.8148H21.2698H17.7249H14.1799V3.52632H10.6349H7.08995V7.05263H3.54497V10.5789V14.1053V17.6316H0V21.1579V24.6842V28.2105V31.7368H3.54497V35.2632V38.7895H7.08995V42.3158H10.6349V45.8421H14.1799V49.3684H17.7249V52.8947H21.2698V56.4211H24.8148V59.9474H28.3598H31.9048V56.4211H28.3598V52.8947H24.8148V49.3684H21.2698V45.8421H17.7249V42.3158H14.1799V38.7895H10.6349V35.2632H7.08995V31.7368V28.2105H3.54497V24.6842V21.1579H7.08995V17.6316V14.1053V10.5789H10.6349V7.05263H14.1799H17.7249V3.52632H21.2698H24.8148V7.05263H28.3598V10.5789H31.9048V14.1053H35.4497V17.6316H38.9947V14.1053H42.5397V10.5789H46.0847V7.05263H49.6296V3.52632H53.1746H56.7196V7.05263H60.2645H63.8095V10.5789V14.1053H67.3545V17.6316V21.1579V24.6842V28.2105V31.7368H63.8095V35.2632H60.2645V38.7895H56.7196V42.3158H53.1746V45.8421H49.6296V49.3684H46.0847V52.8947H42.5397V56.4211H38.9947V59.9474H35.4497H31.9048V63.4737H35.4497V67H38.9947V63.4737H42.5397V59.9474H46.0847H49.6296V56.4211H53.1746V52.8947H56.7196V49.3684H60.2645V45.8421H63.8095V42.3158H67.3545V38.7895H70.8995V35.2632V31.7368H74.4444V28.2105V24.6842V21.1579V17.6316H70.8995Z" fill="#C1002E"/>
</svg>
