<svg width="343" height="55" viewBox="0 0 343 55" fill="none" xmlns="http://www.w3.org/2000/svg">
<path d="M341.832 5.84541H340.657H339.49H338.322V4.67787V3.51034V2.3428V1.17527V0H337.155H335.987H334.82H333.652H333.644H332.678H332.477H331.309H330.536H330.142H328.974H328.394H327.807H326.639H326.252H325.464H324.296H324.095H323.129H321.961H321.953H320.794H319.812H319.626H318.451H317.67H317.283H316.858H316.116H315.528H314.948H314.701H313.781H313.386H312.613H312.559H312.312H311.237H310.417H309.095H308.276H306.953H306.134H304.812H304H302.67H301.842H300.528H299.701H298.371H297.559H296.229H295.417H294.087H293.275H291.945H291.134H289.804H288.976H287.662H286.835H285.52H284.693H283.371H282.551H281.229H280.417H279.087H278.275H276.945H276.134H274.804H273.976H272.662H271.835H270.505H269.693H268.363H267.551H266.221H265.409H264.079H263.267H261.938H261.11H259.803H258.968H257.662H256.834H255.505H254.693H253.363H252.551H251.221H250.409H249.079H248.252H246.937H246.11H244.796H243.968H242.638H241.827H240.497H239.685H238.355H237.543H236.213H235.401H234.079H233.252H231.937H231.11H229.78H228.968H227.638H226.826H225.497H224.685H223.355H222.543H221.213H220.386H219.071H218.244H216.929H216.102H214.772H213.96H212.63H211.819H210.496H209.677H208.355H207.527H206.213H205.386H204.071H203.244H201.914H201.102H199.772H198.96H197.63H196.818H195.489H194.677H193.347H192.52H191.205H190.378H189.056H188.236H186.914H186.094H184.772H183.952H182.63H181.811H180.488H179.661H178.347H177.519H176.205H175.378H174.048H173.236H171.906H171.094H169.764H168.952H167.622H166.795H165.481H164.653H163.339H162.512H161.189H160.37H159.048H158.228H156.906H156.094H154.764H153.952H152.622H151.795H150.481H149.653H148.323H147.511H146.182H145.37H144.04H143.228H141.898H141.086H139.756H138.929H137.614H136.787H135.473H134.645H133.323H132.511H131.181H130.37H129.04H128.228H126.898H126.071H124.756H123.929H122.614H121.787H120.457H119.645H118.315H117.503H116.174H115.362H114.032H113.22H111.89H111.063H109.756H108.921H107.599H106.787H105.457H104.645H103.315H102.503H101.173H100.362H99.0317H98.2044H96.8899H96.0626H94.7481H93.9208H92.5909H91.779H90.4491H89.6373H88.3074H87.4955H86.1733H85.346H84.0316H83.2042H81.8898H81.0625H79.7326H78.9207H77.5908H76.7789H75.449H74.6372H73.3073H72.4954H71.1655H70.3382H69.0237H68.1964H66.8665H66.0546H64.7247H63.9129H62.5907H61.7711H60.4489H59.6293H58.3071H57.4798H56.1654H55.338H54.0236H53.1963H51.8664H51.0545H49.7246H48.9127H47.5828H46.771H45.4411H44.6292H43.2993H42.472H41.1575H40.3302H39.008H38.1884H36.8663H36.0467H34.7245H33.9049H32.5827H31.7709H30.6884H30.441H30.3868H29.6136H29.2193H28.2992H28.0518H27.4719H26.8842H26.142H25.7167H25.3301H24.5492H23.3739H23.1883H22.2064H21.0466H21.0388H19.8713H18.9048H18.7037H17.5362H16.7475H16.3609H15.1934H14.6058H14.0259H12.8583H12.464H11.6908H10.5233H10.3222H9.35574H9.34801H8.18047H7.01294H5.8454H4.67787V1.17527V2.3428V3.51034V4.67787V5.84541H3.51034H2.3428H1.16753H0V7.01294V8.18047V9.35574V10.5233V10.9949V11.6908V12.8583V14.0259V15.1934V16.3687V17.5362V18.7038V19.8713V21.0388V22.2064V23.3816V24.5492V25.7167V26.8842V28.0518V29.2193V30.3868V31.5621V32.7296V33.8972V35.0647V36.2322V37.3998V38.575V39.7426V40.9101V42.0776V42.155V43.2452V44.4127V45.588V46.7555V47.923V49.0906H1.16753H2.3428H3.51034H4.67787V50.2581V51.4257V52.5932V53.7685V54.936H5.8454H7.01294H8.18047H9.34801H9.35574H10.3222H10.5233H11.6908H12.464H12.8583H14.0259H14.6058H15.1934H16.3609H16.7475H17.5362H18.7037H18.9048H19.8713H21.0466H23.1883H24.5492H25.3301H25.7167H26.142H26.8842H27.4719H28.0518H28.2992H29.2193H29.6136H30.3868H30.441H30.6884H31.7709H32.5827H33.9049H34.7245H36.0467H36.8663H38.1884H39.008H40.3302H41.1575H42.472H43.2993H44.6292H45.4411H46.771H47.5828H48.9127H49.7246H51.0545H51.8664H53.1963H54.0236H55.338H56.1654H57.4798H58.3071H59.6293H60.4489H61.7711H62.5907H63.9129H64.7247H66.0546H66.8665H68.1964H69.0237H70.3382H71.1655H72.4954H73.3073H74.6372H75.449H76.7789H77.5908H78.9207H79.7326H81.0625H81.8898H83.2042H84.0316H85.346H86.1733H87.4955H88.3074H89.6373H90.4491H91.779H92.5909H93.9208H94.7481H96.0626H96.8899H98.2044H99.0317H100.362H101.173H102.503H103.315H104.645H105.457H106.787H107.599H108.921H109.756H111.063H111.89H113.22H114.032H115.362H116.174H117.503H118.315H119.645H120.457H121.787H122.614H123.929H124.756H126.071H126.898H128.228H129.04H130.37H131.181H132.511H133.323H134.645H135.473H136.787H137.614H138.929H139.756H141.086H141.898H143.228H144.04H145.37H146.182H147.511H148.323H149.653H150.481H151.795H152.622H153.952H154.764H156.094H156.906H158.228H159.048H160.37H161.189H162.512H163.339H164.653H165.481H166.795H167.622H168.952H169.764H171.094H171.906H173.236H174.048H175.378H176.205H177.519H178.347H179.661H180.488H181.811H182.63H183.952H184.772H186.094H186.914H188.236H189.056H190.378H191.205H192.52H193.347H194.677H195.489H196.818H197.63H198.96H199.772H201.102H201.914H203.244H204.071H205.386H206.213H207.527H208.355H209.677H210.496H211.819H212.63H213.96H214.772H216.102H216.929H218.244H219.071H220.386H221.213H222.543H223.355H224.685H225.497H226.826H227.638H228.968H229.78H231.11H231.937H233.252H234.079H235.401H236.213H237.543H238.355H239.685H240.497H241.827H242.638H243.968H244.796H246.11H246.937H248.252H249.079H250.409H251.221H252.551H253.363H254.693H255.505H256.834H257.662H258.968H259.803H261.11H261.938H263.267H264.079H265.409H266.221H267.551H268.363H269.693H270.505H271.835H272.662H273.976H274.804H276.134H276.945H278.275H279.087H280.417H281.229H282.551H283.371H284.693H285.52H286.835H287.662H288.976H289.804H291.134H291.945H293.275H294.087H295.417H296.229H297.559H298.371H299.701H300.528H301.842H302.67H304H304.812H306.134H306.953H308.276H309.095H310.417H311.237H312.312H312.559H312.613H313.386H313.781H314.701H314.948H315.528H316.116H316.858H317.283H317.67H318.451H319.812H321.953H323.129H324.095H324.296H325.464H326.252H326.639H327.807H328.394H328.974H330.142H330.536H331.309H332.477H332.678H333.644H333.652H334.82H335.987H337.155H338.322V53.7685V52.5932V51.4257V50.2581V49.0906H339.49H340.657H341.832H343V47.923V46.7555V45.588V44.4127V43.2452V42.155V42.0776V40.9101V39.7426V38.575V37.3998V36.2322V35.0647V33.8972V32.7296V31.5621V30.3868V29.2193V28.0518V26.8842V25.7167V24.5492V23.3816V22.2064V21.0388V19.8713V18.7038V17.5362V16.3687V15.1934V14.0259V12.8583V11.6908V10.9949V10.5233V9.35574V8.18047V7.01294V5.84541H341.832Z" fill="white"/>
</svg>
