<svg width="343" height="11" viewBox="0 0 343 11" fill="none" xmlns="http://www.w3.org/2000/svg">
<path d="M341.833 0.0905762H340.657H339.49H338.322V1.25811V2.42565V3.59318V4.76845H339.49H340.657H341.833H343V3.59318V2.42565V1.25811V0.0905762H341.833Z" fill="#1F1F1F"/>
<path d="M335.987 5.93597H334.819H333.652H333.644H332.678H332.477H331.309H330.536H330.142H328.974H328.394H327.806H326.639H326.252H325.464H324.296H324.095H323.129H321.953H319.812H318.451H317.67H317.283H316.858H316.116H315.528H314.948H314.701H313.781H313.386H312.613H312.559H312.312H311.237H310.417H309.095H308.275H306.953H306.134H304.811H304H302.67H301.842H300.528H299.701H298.371H297.559H296.229H295.417H294.087H293.275H291.945H291.134H289.804H288.976H287.662H286.835H285.52H284.693H283.371H282.551H281.229H280.417H279.087H278.275H276.945H276.133H274.803H273.976H272.662H271.834H270.504H269.693H268.363H267.551H266.221H265.409H264.079H263.267H261.937H261.11H259.803H258.968H257.662H256.834H255.504H254.693H253.363H252.551H251.221H250.409H249.079H248.252H246.937H246.11H244.796H243.968H242.638H241.826H240.497H239.685H238.355H237.543H236.213H235.401H234.079H233.252H231.937H231.11H229.78H228.968H227.638H226.826H225.496H224.685H223.355H222.543H221.213H220.386H219.071H218.244H216.929H216.102H214.772H213.96H212.63H211.818H210.496H209.677H208.355H207.527H206.213H205.385H204.071H203.244H201.914H201.102H199.772H198.96H197.63H196.818H195.488H194.677H193.347H192.519H191.205H190.378H189.055H188.236H186.914H186.094H184.772H183.952H182.63H181.811H180.488H179.661H178.347H177.519H176.205H175.377H174.048H173.236H171.906H171.094H169.764H168.952H167.622H166.795H165.48H164.653H163.339H162.511H161.189H160.37H159.047H158.228H156.906H156.094H154.764H153.952H152.622H151.795H150.48H149.653H148.323H147.511H146.181H145.37H144.04H143.228H141.898H141.086H139.756H138.929H137.614H136.787H135.473H134.645H133.323H132.511H131.181H130.369H129.039H128.228H126.898H126.07H124.756H123.929H122.614H121.787H120.457H119.645H118.315H117.503H116.173H115.362H114.032H113.22H111.89H111.063H109.756H108.921H107.599H106.787H105.457H104.645H103.315H102.503H101.173H100.361H99.0315H98.2042H96.8898H96.0624H94.748H93.9207H92.5908H91.7789H90.449H89.6371H88.3072H87.4954H86.1732H85.3459H84.0314H83.2041H81.8897H81.0623H79.7324H78.9206H77.5907H76.7788H75.4489H74.637H73.3071H72.4953H71.1653H70.338H69.0236H68.1963H66.8663H66.0545H64.7246H63.9127H62.5905H61.7709H60.4488H59.6292H58.307H57.4797H56.1652H55.3379H54.0235H53.1961H51.8662H51.0544H49.7245H48.9126H47.5827H46.7708H45.4409H44.6291H43.2992H42.4718H41.1574H40.3301H39.0079H38.1883H36.8661H36.0465H34.7244H33.9048H32.5826H31.7707H30.6882H30.4408H30.3867H29.6135H29.2192H28.299H28.0516H27.4717H26.8841H26.1418H25.7166H25.33H24.549H23.1882H21.0464H19.8711H18.9046H18.7036H17.5361H16.7474H16.3608H15.1933H14.6056H14.0257H12.8582H12.4639H11.6907H10.5231H10.3221H9.3556H9.34787H8.18034H7.0128H5.84527H4.67773V7.1035V8.27104V9.43858V10.6061H5.84527H7.0128H8.18034H9.34787H9.3556H10.3221H10.5231H11.6907H12.4639H12.8582H14.0257H14.6056H15.1933H16.3608H16.7474H17.5361H18.7036H18.9046H19.8711H21.0387H21.0464H22.2062H23.1882H23.3738H24.549H25.33H25.7166H26.1418H26.8841H27.4717H28.0516H28.299H29.2192H29.6135H30.3867H30.4408H30.6882H31.7707H32.5826H33.9048H34.7244H36.0465H36.8661H38.1883H39.0079H40.3301H41.1574H42.4718H43.2992H44.6291H45.4409H46.7708H47.5827H48.9126H49.7245H51.0544H51.8662H53.1961H54.0235H55.3379H56.1652H57.4797H58.307H59.6292H60.4488H61.7709H62.5905H63.9127H64.7246H66.0545H66.8663H68.1963H69.0236H70.338H71.1653H72.4953H73.3071H74.637H75.4489H76.7788H77.5907H78.9206H79.7324H81.0623H81.8897H83.2041H84.0314H85.3459H86.1732H87.4954H88.3072H89.6371H90.449H91.7789H92.5908H93.9207H94.748H96.0624H96.8898H98.2042H99.0315H100.361H101.173H102.503H103.315H104.645H105.457H106.787H107.599H108.921H109.756H111.063H111.89H113.22H114.032H115.362H116.173H117.503H118.315H119.645H120.457H121.787H122.614H123.929H124.756H126.07H126.898H128.228H129.039H130.369H131.181H132.511H133.323H134.645H135.473H136.787H137.614H138.929H139.756H141.086H141.898H143.228H144.04H145.37H146.181H147.511H148.323H149.653H150.48H151.795H152.622H153.952H154.764H156.094H156.906H158.228H159.047H160.37H161.189H162.511H163.339H164.653H165.48H166.795H167.622H168.952H169.764H171.094H171.906H173.236H174.048H175.377H176.205H177.519H178.347H179.661H180.488H181.811H182.63H183.952H184.772H186.094H186.914H188.236H189.055H190.378H191.205H192.519H193.347H194.677H195.488H196.818H197.63H198.96H199.772H201.102H201.914H203.244H204.071H205.385H206.213H207.527H208.355H209.677H210.496H211.818H212.63H213.96H214.772H216.102H216.929H218.244H219.071H220.386H221.213H222.543H223.355H224.685H225.496H226.826H227.638H228.968H229.78H231.11H231.937H233.252H234.079H235.401H236.213H237.543H238.355H239.685H240.497H241.826H242.638H243.968H244.796H246.11H246.937H248.252H249.079H250.409H251.221H252.551H253.363H254.693H255.504H256.834H257.662H258.968H259.803H261.11H261.937H263.267H264.079H265.409H266.221H267.551H268.363H269.693H270.504H271.834H272.662H273.976H274.803H276.133H276.945H278.275H279.087H280.417H281.229H282.551H283.371H284.693H285.52H286.835H287.662H288.976H289.804H291.134H291.945H293.275H294.087H295.417H296.229H297.559H298.371H299.701H300.528H301.842H302.67H304H304.811H306.134H306.953H308.275H309.095H310.417H311.237H312.312H312.559H312.613H313.386H313.781H314.701H314.948H315.528H316.116H316.858H317.283H317.67H318.451H319.626H319.812H320.794H321.953H321.961H323.129H324.095H324.296H325.464H326.252H326.639H327.806H328.394H328.974H330.142H330.536H331.309H332.477H332.678H333.644H333.652H334.819H335.987H337.154H338.322V9.43858V8.27104V7.1035V5.93597H337.154H335.987Z" fill="#1F1F1F"/>
<path d="M4.67787 3.59318V2.42565V1.25811V0.0905762H3.51034H2.3428H1.16753H0V1.25811V2.42565V3.59318V4.76845H1.16753H2.3428H3.51034H4.67787V3.59318Z" fill="#1F1F1F"/>
</svg>
