<svg width="320" height="60" viewBox="0 0 320 60" fill="none" xmlns="http://www.w3.org/2000/svg">
<g clip-path="url(#clip0_334_9970)">
<path d="M223.71 20.65H222.2H220.69H219.18H217.67V19.14V17.63V16.12V14.6V13.09H216.15H214.64H213.13H211.62V11.58V10.07V8.55999V7.04999H210.11H208.6H207.08H205.57H204.06H202.55H201.04H199.53H198.02H196.5H194.99H193.48H191.97H190.46H188.95H187.43H185.92H184.41H182.9H181.39H179.88H178.36H176.85H175.34H173.83H172.32H170.81H169.3H167.78H166.27H164.76H163.25H161.74H160.23H158.71H157.2H155.69H154.18H152.67H151.16H149.64H148.13H146.62H145.11H143.6H142.09H140.58H139.06H137.55H136.04H134.53H133.02H131.51H129.99H128.48H126.97H125.46H123.95H122.44H120.92H119.41H117.9H116.39H114.88H113.37H111.86H110.34H108.83H107.32H105.81H104.3H102.79H101.27H99.7598H98.2498H96.7398H95.2298H93.7198H92.1998H90.6898H89.1798H87.6698H86.1598H84.6498H83.1398H81.6198H80.1098H78.5998H77.0898H75.5798H74.0698H72.5498H71.0398H69.5298H68.0198H66.5098H64.9998H63.4798H61.9698H60.4598H58.9498H57.4398H55.9298H54.4198H52.8998H51.3898H49.8798H48.3698H46.8598H45.3498H43.8298H42.3198H40.8098H39.2998H37.7898H36.2798H34.7598H33.2498H31.7398H30.2298H28.7198H27.2098H25.6998H24.1798H22.6698H21.1598H19.6498H18.1398V8.55999V10.07V11.58V13.09H16.6298H15.1098H13.5998H12.0898V14.6V16.12V17.63V19.14V20.65H10.5798H9.06978H7.55978H6.03978H4.52979V22.16V23.67V25.19V26.7V28.21V29.72V31.23V32.74V34.25V35.77V37.28H6.03978H7.55978H9.06978H10.5798H12.0898V38.79V40.3V41.81V43.32V44.84H13.5998H15.1098H16.6298H18.1398V46.35V47.86V49.37V50.88H19.6498H21.1598H22.6698H24.1798H25.6998H27.2098H28.7198H30.2298H31.7398H33.2498H34.7598H36.2798H37.7898H39.2998H40.8098H42.3198H43.8298H45.3498H46.8598H48.3698H49.8798H51.3898H52.8998H54.4198H55.9298H57.4398H58.9498H60.4598H61.9698H63.4798H64.9998H66.5098H68.0198H69.5298H71.0398H72.5498H74.0698H75.5798H77.0898H78.5998H80.1098H81.6198H83.1398H84.6498H86.1598H87.6698H89.1798H90.6898H92.1998H93.7198H95.2298H96.7398H98.2498H99.7598H101.27H102.79H104.3H105.81H107.32H108.83H110.34H111.86H113.37H114.88H116.39H117.9H119.41H120.92H122.44H123.95H125.46H126.97H128.48H129.99H131.51H133.02H134.53H136.04H137.55H139.06H140.58H142.09H143.6H145.11H146.62H148.13H149.64H151.16H152.67H154.18H155.69H157.2H158.71H160.23H161.74H163.25H164.76H166.27H167.78H169.3H170.81H172.32H173.83H175.34H176.85H178.36H179.88H181.39H182.9H184.41H185.92H187.43H188.95H190.46H191.97H193.48H194.99H196.5H198.02H199.53H201.04H202.55H204.06H205.57H207.08H208.6H210.11H211.62V49.37V47.86V46.35V44.84H213.13H214.64H216.15H217.67V43.32V41.81V40.3V38.79V37.28H219.18H220.69H222.2H223.71H225.22V35.77V34.25V32.74V31.23V29.72V28.21V26.7V25.19V23.67V22.16V20.65H223.71Z" fill="#FF6A13"/>
<path d="M231.27 17.63V14.6H225.22V10.07H223.71V7.05H219.18V4.02H217.67V1H12.09V7.05H6.04V14.6H0V43.32H1.51V46.35H6.04V50.88H7.56001V53.91H12.09V56.93H15.11V59.95H219.18V53.91H225.22V46.35H232.78V17.63H231.27ZM229.76 22.16V43.32H222.2V49.37H216.15V56.93H18.14V53.91H15.11V50.88H10.58V47.86H9.07V43.32H4.53001V40.3H3.02V17.63H9.07V10.07H15.11V4.02H214.64V10.07H220.69V11.58H222.2V16.12H226.74V17.63H228.25V20.65H229.76V22.16Z" fill="white"/>
<path d="M228.25 20.65V17.63H226.74V16.12H222.2V11.58H220.69V10.07H214.64V4.02002H15.11V10.07H9.07001V17.63H3.02002V40.3H4.53002V43.32H9.07001V47.86H10.58V50.88H15.11V53.91H18.14V56.93H216.15V49.37H222.2V43.32H229.76V20.65H228.25ZM4.53002 35.77V20.65H12.09V13.09H18.14V7.05002H211.62V13.09H217.67V20.65H225.22V37.28H217.67V44.84H211.62V50.88H18.14V44.84H12.09V37.28H4.53002V35.77Z" fill="#1F1F1F"/>
</g>
<g clip-path="url(#clip1_334_9970)">
<path d="M310.71 20.65H309.2H307.69H306.18H304.67V19.14V17.63V16.12V14.6V13.09H303.15H301.64H300.13H298.62V11.58V10.07V8.55999V7.04999H297.11H295.6H294.08H292.57H291.06H289.55H288.04H286.53H285.02H283.5H281.99H280.48H278.97H277.46H275.95H274.43H272.92H271.41H269.9H268.39H266.88H265.36H263.85H262.34H260.83H259.32H257.81H256.3H254.78H253.27H251.76H250.25H248.74H247.23H245.71H244.2H242.69H241.18H239.67H238.16H236.64H235.13H233.62H232.11H230.6H229.09H227.58H226.06H224.55H223.04H221.53H220.02H218.51H216.99H215.48H213.97H212.46H210.95H209.44H207.92H206.41H204.9H203.39H201.88H200.37H198.86H197.34H195.83H194.32H192.81H191.3H189.79H188.27H186.76H185.25H183.74H182.23H180.72H179.2H177.69H176.18H174.67H173.16H171.65H170.14H168.62H167.11H165.6H164.09H162.58H161.07H159.55H158.04H156.53H155.02H153.51H152H150.48H148.97H147.46H145.95H144.44H142.93H141.42H139.9H138.39H136.88H135.37H133.86H132.35H130.83H129.32H127.81H126.3H124.79H123.28H121.76H120.25H118.74H117.23H115.72H114.21H112.7H111.18H109.67H108.16H106.65H105.14V8.55999V10.07V11.58V13.09H103.63H102.11H100.6H99.0898V14.6V16.12V17.63V19.14V20.65H97.5798H96.0698H94.5598H93.0398H91.5298V22.16V23.67V25.19V26.7V28.21V29.72V31.23V32.74V34.25V35.77V37.28H93.0398H94.5598H96.0698H97.5798H99.0898V38.79V40.3V41.81V43.32V44.84H100.6H102.11H103.63H105.14V46.35V47.86V49.37V50.88H106.65H108.16H109.67H111.18H112.7H114.21H115.72H117.23H118.74H120.25H121.76H123.28H124.79H126.3H127.81H129.32H130.83H132.35H133.86H135.37H136.88H138.39H139.9H141.42H142.93H144.44H145.95H147.46H148.97H150.48H152H153.51H155.02H156.53H158.04H159.55H161.07H162.58H164.09H165.6H167.11H168.62H170.14H171.65H173.16H174.67H176.18H177.69H179.2H180.72H182.23H183.74H185.25H186.76H188.27H189.79H191.3H192.81H194.32H195.83H197.34H198.86H200.37H201.88H203.39H204.9H206.41H207.92H209.44H210.95H212.46H213.97H215.48H216.99H218.51H220.02H221.53H223.04H224.55H226.06H227.58H229.09H230.6H232.11H233.62H235.13H236.64H238.16H239.67H241.18H242.69H244.2H245.71H247.23H248.74H250.25H251.76H253.27H254.78H256.3H257.81H259.32H260.83H262.34H263.85H265.36H266.88H268.39H269.9H271.41H272.92H274.43H275.95H277.46H278.97H280.48H281.99H283.5H285.02H286.53H288.04H289.55H291.06H292.57H294.08H295.6H297.11H298.62V49.37V47.86V46.35V44.84H300.13H301.64H303.15H304.67V43.32V41.81V40.3V38.79V37.28H306.18H307.69H309.2H310.71H312.22V35.77V34.25V32.74V31.23V29.72V28.21V26.7V25.19V23.67V22.16V20.65H310.71Z" fill="#FF6A13"/>
<path d="M318.27 17.63V14.6H312.22V10.07H310.71V7.05H306.18V4.02H304.67V1H99.09V7.05H93.04V14.6H87V43.32H88.51V46.35H93.04V50.88H94.56V53.91H99.09V56.93H102.11V59.95H306.18V53.91H312.22V46.35H319.78V17.63H318.27ZM316.76 22.16V43.32H309.2V49.37H303.15V56.93H105.14V53.91H102.11V50.88H97.58V47.86H96.07V43.32H91.53V40.3H90.02V17.63H96.07V10.07H102.11V4.02H301.64V10.07H307.69V11.58H309.2V16.12H313.74V17.63H315.25V20.65H316.76V22.16Z" fill="white"/>
<path d="M315.25 20.65V17.63H313.74V16.12H309.2V11.58H307.69V10.07H301.64V4.02002H102.11V10.07H96.07V17.63H90.02V40.3H91.53V43.32H96.07V47.86H97.58V50.88H102.11V53.91H105.14V56.93H303.15V49.37H309.2V43.32H316.76V20.65H315.25ZM91.53 35.77V20.65H99.09V13.09H105.14V7.05002H298.62V13.09H304.67V20.65H312.22V37.28H304.67V44.84H298.62V50.88H105.14V44.84H99.09V37.28H91.53V35.77Z" fill="#1F1F1F"/>
</g>
<g clip-path="url(#clip2_334_9970)">
<path d="M267.71 20.65H266.2H264.69H263.18H261.67V19.14V17.63V16.12V14.6V13.09H260.15H258.64H257.13H255.62V11.58V10.07V8.55999V7.04999H254.11H252.6H251.08H249.57H248.06H246.55H245.04H243.53H242.02H240.5H238.99H237.48H235.97H234.46H232.95H231.43H229.92H228.41H226.9H225.39H223.88H222.36H220.85H219.34H217.83H216.32H214.81H213.3H211.78H210.27H208.76H207.25H205.74H204.23H202.71H201.2H199.69H198.18H196.67H195.16H193.64H192.13H190.62H189.11H187.6H186.09H184.58H183.06H181.55H180.04H178.53H177.02H175.51H173.99H172.48H170.97H169.46H167.95H166.44H164.92H163.41H161.9H160.39H158.88H157.37H155.86H154.34H152.83H151.32H149.81H148.3H146.79H145.27H143.76H142.25H140.74H139.23H137.72H136.2H134.69H133.18H131.67H130.16H128.65H127.14H125.62H124.11H122.6H121.09H119.58H118.07H116.55H115.04H113.53H112.02H110.51H109H107.48H105.97H104.46H102.95H101.44H99.9298H98.4198H96.8998H95.3898H93.8798H92.3698H90.8598H89.3498H87.8298H86.3198H84.8098H83.2998H81.7898H80.2798H78.7598H77.2498H75.7398H74.2298H72.7198H71.2098H69.6998H68.1798H66.6698H65.1598H63.6498H62.1398V8.55999V10.07V11.58V13.09H60.6298H59.1098H57.5998H56.0898V14.6V16.12V17.63V19.14V20.65H54.5798H53.0698H51.5598H50.0398H48.5298V22.16V23.67V25.19V26.7V28.21V29.72V31.23V32.74V34.25V35.77V37.28H50.0398H51.5598H53.0698H54.5798H56.0898V38.79V40.3V41.81V43.32V44.84H57.5998H59.1098H60.6298H62.1398V46.35V47.86V49.37V50.88H63.6498H65.1598H66.6698H68.1798H69.6998H71.2098H72.7198H74.2298H75.7398H77.2498H78.7598H80.2798H81.7898H83.2998H84.8098H86.3198H87.8298H89.3498H90.8598H92.3698H93.8798H95.3898H96.8998H98.4198H99.9298H101.44H102.95H104.46H105.97H107.48H109H110.51H112.02H113.53H115.04H116.55H118.07H119.58H121.09H122.6H124.11H125.62H127.14H128.65H130.16H131.67H133.18H134.69H136.2H137.72H139.23H140.74H142.25H143.76H145.27H146.79H148.3H149.81H151.32H152.83H154.34H155.86H157.37H158.88H160.39H161.9H163.41H164.92H166.44H167.95H169.46H170.97H172.48H173.99H175.51H177.02H178.53H180.04H181.55H183.06H184.58H186.09H187.6H189.11H190.62H192.13H193.64H195.16H196.67H198.18H199.69H201.2H202.71H204.23H205.74H207.25H208.76H210.27H211.78H213.3H214.81H216.32H217.83H219.34H220.85H222.36H223.88H225.39H226.9H228.41H229.92H231.43H232.95H234.46H235.97H237.48H238.99H240.5H242.02H243.53H245.04H246.55H248.06H249.57H251.08H252.6H254.11H255.62V49.37V47.86V46.35V44.84H257.13H258.64H260.15H261.67V43.32V41.81V40.3V38.79V37.28H263.18H264.69H266.2H267.71H269.22V35.77V34.25V32.74V31.23V29.72V28.21V26.7V25.19V23.67V22.16V20.65H267.71Z" fill="#FF6A13"/>
<path d="M275.27 17.63V14.6H269.22V10.07H267.71V7.05H263.18V4.02H261.67V1H56.09V7.05H50.04V14.6H44V43.32H45.51V46.35H50.04V50.88H51.56V53.91H56.09V56.93H59.11V59.95H263.18V53.91H269.22V46.35H276.78V17.63H275.27ZM273.76 22.16V43.32H266.2V49.37H260.15V56.93H62.14V53.91H59.11V50.88H54.58V47.86H53.07V43.32H48.53V40.3H47.02V17.63H53.07V10.07H59.11V4.02H258.64V10.07H264.69V11.58H266.2V16.12H270.74V17.63H272.25V20.65H273.76V22.16Z" fill="white"/>
<path d="M272.25 20.65V17.63H270.74V16.12H266.2V11.58H264.69V10.07H258.64V4.02002H59.11V10.07H53.07V17.63H47.02V40.3H48.53V43.32H53.07V47.86H54.58V50.88H59.11V53.91H62.14V56.93H260.15V49.37H266.2V43.32H273.76V20.65H272.25ZM48.53 35.77V20.65H56.09V13.09H62.14V7.05002H255.62V13.09H261.67V20.65H269.22V37.28H261.67V44.84H255.62V50.88H62.14V44.84H56.09V37.28H48.53V35.77Z" fill="#1F1F1F"/>
</g>
<defs>
<clipPath id="clip0_334_9970">
<rect width="140" height="60" fill="white"/>
</clipPath>
<clipPath id="clip1_334_9970">
<rect width="140" height="60" fill="white" transform="translate(180)"/>
</clipPath>
<clipPath id="clip2_334_9970">
<rect width="140" height="60" fill="white" transform="translate(90)"/>
</clipPath>
</defs>
</svg>
