<svg width="233" height="59" viewBox="0 0 233 59" fill="none" xmlns="http://www.w3.org/2000/svg">
<path d="M223.71 19.65H222.2H220.69H219.18H217.67V18.14V16.63V15.12V13.6V12.09H216.15H214.64H213.13H211.62V10.58V9.07V7.56V6.05H210.11H208.6H207.08H205.57H204.06H202.55H201.04H199.53H198.02H196.5H194.99H193.48H191.97H190.46H188.95H187.43H185.92H184.41H182.9H181.39H179.88H178.36H176.85H175.34H173.83H172.32H170.81H169.3H167.78H166.27H164.76H163.25H161.74H160.23H158.71H157.2H155.69H154.18H152.67H151.16H149.64H148.13H146.62H145.11H143.6H142.09H140.58H139.06H137.55H136.04H134.53H133.02H131.51H129.99H128.48H126.97H125.46H123.95H122.44H120.92H119.41H117.9H116.39H114.88H113.37H111.86H110.34H108.83H107.32H105.81H104.3H102.79H101.27H99.7598H98.2498H96.7398H95.2298H93.7198H92.1998H90.6898H89.1798H87.6698H86.1598H84.6498H83.1398H81.6198H80.1098H78.5998H77.0898H75.5798H74.0698H72.5498H71.0398H69.5298H68.0198H66.5098H64.9998H63.4798H61.9698H60.4598H58.9498H57.4398H55.9298H54.4198H52.8998H51.3898H49.8798H48.3698H46.8598H45.3498H43.8298H42.3198H40.8098H39.2998H37.7898H36.2798H34.7598H33.2498H31.7398H30.2298H28.7198H27.2098H25.6998H24.1798H22.6698H21.1598H19.6498H18.1398V7.56V9.07V10.58V12.09H16.6298H15.1098H13.5998H12.0898V13.6V15.12V16.63V18.14V19.65H10.5798H9.06978H7.55978H6.03978H4.52979V21.16V22.67V24.19V25.7V27.21V28.72V30.23V31.74V33.25V34.77V36.28H6.03978H7.55978H9.06978H10.5798H12.0898V37.79V39.3V40.81V42.32V43.84H13.5998H15.1098H16.6298H18.1398V45.35V46.86V48.37V49.88H19.6498H21.1598H22.6698H24.1798H25.6998H27.2098H28.7198H30.2298H31.7398H33.2498H34.7598H36.2798H37.7898H39.2998H40.8098H42.3198H43.8298H45.3498H46.8598H48.3698H49.8798H51.3898H52.8998H54.4198H55.9298H57.4398H58.9498H60.4598H61.9698H63.4798H64.9998H66.5098H68.0198H69.5298H71.0398H72.5498H74.0698H75.5798H77.0898H78.5998H80.1098H81.6198H83.1398H84.6498H86.1598H87.6698H89.1798H90.6898H92.1998H93.7198H95.2298H96.7398H98.2498H99.7598H101.27H102.79H104.3H105.81H107.32H108.83H110.34H111.86H113.37H114.88H116.39H117.9H119.41H120.92H122.44H123.95H125.46H126.97H128.48H129.99H131.51H133.02H134.53H136.04H137.55H139.06H140.58H142.09H143.6H145.11H146.62H148.13H149.64H151.16H152.67H154.18H155.69H157.2H158.71H160.23H161.74H163.25H164.76H166.27H167.78H169.3H170.81H172.32H173.83H175.34H176.85H178.36H179.88H181.39H182.9H184.41H185.92H187.43H188.95H190.46H191.97H193.48H194.99H196.5H198.02H199.53H201.04H202.55H204.06H205.57H207.08H208.6H210.11H211.62V48.37V46.86V45.35V43.84H213.13H214.64H216.15H217.67V42.32V40.81V39.3V37.79V36.28H219.18H220.69H222.2H223.71H225.22V34.77V33.25V31.74V30.23V28.72V27.21V25.7V24.19V22.67V21.16V19.65H223.71Z" fill="#FF6A13"/>
<path d="M231.27 16.63V13.6H225.22V9.07H223.71V6.05H219.18V3.02H217.67V0H12.09V6.05H6.04V13.6H0V42.32H1.51V45.35H6.04V49.88H7.56001V52.91H12.09V55.93H15.11V58.95H219.18V52.91H225.22V45.35H232.78V16.63H231.27ZM229.76 21.16V42.32H222.2V48.37H216.15V55.93H18.14V52.91H15.11V49.88H10.58V46.86H9.07V42.32H4.53001V39.3H3.02V16.63H9.07V9.07H15.11V3.02H214.64V9.07H220.69V10.58H222.2V15.12H226.74V16.63H228.25V19.65H229.76V21.16Z" fill="white"/>
<path d="M228.25 19.65V16.63H226.74V15.12H222.2V10.58H220.69V9.07H214.64V3.02H15.11V9.07H9.07001V16.63H3.02002V39.3H4.53002V42.32H9.07001V46.86H10.58V49.88H15.11V52.91H18.14V55.93H216.15V48.37H222.2V42.32H229.76V19.65H228.25ZM4.53002 34.77V19.65H12.09V12.09H18.14V6.05H211.62V12.09H217.67V19.65H225.22V36.28H217.67V43.84H211.62V49.88H18.14V43.84H12.09V36.28H4.53002V34.77Z" fill="#1F1F1F"/>
</svg>
