<svg width="234" height="59" viewBox="0 0 234 59" fill="none" xmlns="http://www.w3.org/2000/svg">
<path d="M224 19.65H222.49H220.98H219.47H217.96V18.1401V16.6301V15.12V13.6001V12.09H216.44H214.93H213.42H211.91V10.58V9.07005V7.56005V6.05005H210.4H208.89H207.37H205.86H204.35H202.84H201.33H199.82H198.31H196.79H195.28H193.77H192.26H190.75H189.24H187.72H186.21H184.7H183.19H181.68H180.17H178.65H177.14H175.63H174.12H172.61H171.1H169.59H168.07H166.56H165.05H163.54H162.03H160.52H159H157.49H155.98H154.47H152.96H151.45H149.93H148.42H146.91H145.4H143.89H142.38H140.87H139.35H137.84H136.33H134.82H133.31H131.8H130.28H128.77H127.26H125.75H124.24H122.73H121.21H119.7H118.19H116.68H115.17H113.66H112.15H110.63H109.12H107.61H106.1H104.59H103.08H101.56H100.05H98.5401H97.0301H95.5201H94.0101H92.4901H90.9801H89.4701H87.9601H86.4501H84.9401H83.4301H81.9101H80.4001H78.8901H77.3801H75.8701H74.3601H72.8401H71.3301H69.8201H68.3101H66.8001H65.2901H63.7701H62.2601H60.7501H59.2401H57.7301H56.2201H54.7101H53.1901H51.6801H50.1701H48.6601H47.1501H45.6401H44.1201H42.6101H41.1001H39.5901H38.0801H36.5701H35.0501H33.5401H32.0301H30.5201H29.0101H27.5001H25.9901H24.4701H22.9601H21.4501H19.9401H18.4301V7.56005V9.07005V10.58V12.09H16.9201H15.4001H13.8901H12.3801V13.6001V15.12V16.6301V18.1401V19.65H10.8701H9.36006H7.85007H6.33006H4.82007V21.16V22.6701V24.19V25.7001V27.2101V28.72V30.23V31.7401V33.2501V34.77V36.2801H6.33006H7.85007H9.36006H10.8701H12.3801V37.79V39.3001V40.8101V42.32V43.84H13.8901H15.4001H16.9201H18.4301V45.35V46.8601V48.37V49.88H19.9401H21.4501H22.9601H24.4701H25.9901H27.5001H29.0101H30.5201H32.0301H33.5401H35.0501H36.5701H38.0801H39.5901H41.1001H42.6101H44.1201H45.6401H47.1501H48.6601H50.1701H51.6801H53.1901H54.7101H56.2201H57.7301H59.2401H60.7501H62.2601H63.7701H65.2901H66.8001H68.3101H69.8201H71.3301H72.8401H74.3601H75.8701H77.3801H78.8901H80.4001H81.9101H83.4301H84.9401H86.4501H87.9601H89.4701H90.9801H92.4901H94.0101H95.5201H97.0301H98.5401H100.05H101.56H103.08H104.59H106.1H107.61H109.12H110.63H112.15H113.66H115.17H116.68H118.19H119.7H121.21H122.73H124.24H125.75H127.26H128.77H130.28H131.8H133.31H134.82H136.33H137.84H139.35H140.87H142.38H143.89H145.4H146.91H148.42H149.93H151.45H152.96H154.47H155.98H157.49H159H160.52H162.03H163.54H165.05H166.56H168.07H169.59H171.1H172.61H174.12H175.63H177.14H178.65H180.17H181.68H183.19H184.7H186.21H187.72H189.24H190.75H192.26H193.77H195.28H196.79H198.31H199.82H201.33H202.84H204.35H205.86H207.37H208.89H210.4H211.91V48.37V46.8601V45.35V43.84H213.42H214.93H216.44H217.96V42.32V40.8101V39.3001V37.79V36.2801H219.47H220.98H222.49H224H225.51V34.77V33.2501V31.7401V30.23V28.72V27.2101V25.7001V24.19V22.6701V21.16V19.65H224Z" fill="white"/>
<path d="M231.56 16.63V13.6H225.51V9.07H224V6.05H219.47V3.02H217.96V0H12.38V6.05H6.33004V13.6H0.290039V42.32H1.80004V45.35H6.33004V49.88H7.85004V52.91H12.38V55.93H15.4V58.95H219.47V52.91H225.51V45.35H233.07V16.63H231.56ZM230.05 21.16V42.32H222.49V48.37H216.44V55.93H18.43V52.91H15.4V49.88H10.87V46.86H9.36004V42.32H4.82005V39.3H3.31004V16.63H9.36004V9.07H15.4V3.02H214.93V9.07H220.98V10.58H222.49V15.12H227.03V16.63H228.54V19.65H230.05V21.16Z" fill="#FF6A13"/>
<path d="M228.54 19.65V16.63H227.03V15.12H222.49V10.58H220.98V9.07002H214.93V3.02002H15.4001V9.07002H9.36005V16.63H3.31006V39.3H4.82006V42.32H9.36005V46.86H10.8701V49.88H15.4001V52.91H18.4301V55.93H216.44V48.37H222.49V42.32H230.05V19.65H228.54ZM4.82006 34.77V19.65H12.3801V12.09H18.4301V6.05002H211.91V12.09H217.96V19.65H225.51V36.28H217.96V43.84H211.91V49.88H18.4301V43.84H12.3801V36.28H4.82006V34.77Z" fill="#1F1F1F"/>
</svg>
