<svg width="482" height="64" viewBox="0 0 482 64" fill="none" xmlns="http://www.w3.org/2000/svg">
<g clip-path="url(#clip0_440_1288)">
<path d="M64.5746 6.56824H20.2686V13.1257H13.7003V21.3333H5.49268V39.3879H13.7003V47.5956H20.2686V54.153H67.0391V6.56824H64.5746Z" fill="white"/>
<path d="M472.079 21.3333H465.522V13.1257H458.954V6.56824H425.548C306.048 6.56824 186.538 6.56824 67.0391 6.56824V54.153H425.548C436.654 54.153 447.836 54.153 458.954 54.153V47.5956H465.522V39.3879H473.719V21.3333H472.079Z" fill="white"/>
<path d="M64.5747 0H13.7004V6.56828H7.13213V14.7651H0.574707V45.9454H2.21406V49.2349H7.13213V54.153H8.78234V57.4426H13.7004V60.7213H16.9791V64H67.0392V60.7213H20.2687V57.4426H16.9791V54.153H12.0611V50.8743H10.4217V45.9454H5.49277V42.6667H3.85342V18.0546H10.4217V9.84699H16.9791V3.27871H67.0392V0H64.5747Z" fill="white"/>
<path d="M480.287 18.0546V14.7651H473.719V9.84699H472.079V6.56828H467.161V3.27871H465.522V0H425.548C306.048 0 186.538 0 67.0391 0V3.27871H436.068C444.753 3.27871 453.547 3.27871 462.232 3.27871V9.84699H468.801V11.4863H470.44V16.4153H475.369V18.0546H477.008V21.3333H478.648V45.9454H470.44V52.5137H463.872V60.7213H436.068C313.062 60.7213 190.045 60.7213 67.0391 60.7213V64H425.548C439.401 64 453.308 64 467.161 64V57.4426H473.719V49.2349H481.926V18.0546H480.287Z" fill="white"/>
<path d="M64.5748 3.27869H16.9792V9.84696H10.4218V18.0546H3.85352V42.6666H5.49287V45.9454H10.4218V50.8743H12.0611V54.153H16.9792V57.4426H20.2688V60.7213H67.0393V54.153H20.2688V47.5956H13.7005V39.3879H5.49287V21.3333H13.7005V13.1257H20.2688V6.56825H67.0393V3.27869H64.5748Z" fill="#1D1D1B"/>
<path d="M477.008 21.3333V18.0546H475.369V16.4152H470.44V11.4863H468.801V9.84696H462.232V3.27869H425.548C306.048 3.27869 186.538 3.27869 67.0391 3.27869V6.56825H436.068C443.657 6.56825 451.365 6.56825 458.954 6.56825V13.1257H465.522V21.3333H473.719V39.3879H465.522V47.5956H458.954V54.153H436.068C313.062 54.153 190.045 54.153 67.0391 54.153V60.7213H425.548C438.304 60.7213 451.115 60.7213 463.872 60.7213V52.5136H470.44V45.9454H478.648V21.3333H477.008Z" fill="#1D1D1B"/>
<path d="M38.8592 40.743V17.944H45.3732V30.972H48.6302V27.715H51.8872V24.458H55.1442V17.944H61.6582V40.743H55.1442V30.972H51.8872V34.229H48.6302V37.486H45.3732V40.743H38.8592ZM71.2989 40.743V37.486H68.0419V34.229H74.5559V37.486H84.3269V30.972H74.5559V27.715H84.3269V21.201H74.5559V24.458H68.0419V21.201H71.2989V17.944H87.5839V21.201H90.8409V27.715H87.5839V30.972H90.8409V37.486H87.5839V40.743H71.2989ZM97.2246 40.743V17.944H103.739V21.201H106.996V24.458H110.253V21.201H113.51V17.944H120.024V40.743H113.51V27.715H110.253V34.229H106.996V27.715H103.739V40.743H97.2246ZM126.407 40.743V17.944H149.206V21.201H132.921V27.715H145.949V30.972H132.921V37.486H149.206V40.743H126.407ZM155.59 40.743V17.944H162.104V27.715H171.875V17.944H178.389V40.743H171.875V30.972H162.104V40.743H155.59ZM184.773 40.743V17.944H191.287V30.972H194.544V27.715H197.801V24.458H201.058V17.944H207.572V40.743H201.058V30.972H197.801V34.229H194.544V37.486H191.287V40.743H184.773ZM223.726 40.743V21.201H217.212V17.944H236.754V21.201H230.24V40.743H223.726ZM243.138 40.743V17.944H249.652V24.458H262.68V27.715H265.937V37.486H262.68V40.743H243.138ZM249.652 37.486H259.423V27.715H249.652V37.486ZM301.503 40.743V17.944H308.017V27.715H317.788V17.944H324.302V40.743H317.788V30.972H308.017V40.743H301.503ZM333.943 40.743V37.486H330.686V21.201H333.943V17.944H350.228V21.201H353.485V37.486H350.228V40.743H333.943ZM337.2 37.486H346.971V21.201H337.2V37.486ZM359.869 40.743V17.944H366.383V21.201H369.64V24.458H372.897V21.201H376.154V17.944H382.668V40.743H376.154V27.715H372.897V34.229H369.64V27.715H366.383V40.743H359.869ZM389.052 40.743V17.944H411.851V21.201H395.566V27.715H408.594V30.972H395.566V37.486H411.851V40.743H389.052ZM418.234 40.743V17.944H437.776V21.201H441.033V30.972H437.776V34.229H424.748V40.743H418.234ZM424.748 30.972H434.519V21.201H424.748V30.972Z" fill="#FF6A13"/>
<path d="M38.8592 40.743H38.3163V41.2858H38.8592V40.743ZM38.8592 17.944V17.4012H38.3163V17.944H38.8592ZM45.3732 17.944H45.916V17.4012H45.3732V17.944ZM45.3732 30.972H44.8303V31.5148H45.3732V30.972ZM48.6302 30.972V31.5148H49.173V30.972H48.6302ZM48.6302 27.715V27.1722H48.0873V27.715H48.6302ZM51.8872 27.715V28.2578H52.43V27.715H51.8872ZM51.8872 24.458V23.9152H51.3443V24.458H51.8872ZM55.1442 24.458V25.0008H55.687V24.458H55.1442ZM55.1442 17.944V17.4012H54.6013V17.944H55.1442ZM61.6582 17.944H62.201V17.4012H61.6582V17.944ZM61.6582 40.743V41.2858H62.201V40.743H61.6582ZM55.1442 40.743H54.6013V41.2858H55.1442V40.743ZM55.1442 30.972H55.687V30.4292H55.1442V30.972ZM51.8872 30.972V30.4292H51.3443V30.972H51.8872ZM51.8872 34.229V34.7718H52.43V34.229H51.8872ZM48.6302 34.229V33.6862H48.0873V34.229H48.6302ZM48.6302 37.486V38.0288H49.173V37.486H48.6302ZM45.3732 37.486V36.9432H44.8303V37.486H45.3732ZM45.3732 40.743V41.2858H45.916V40.743H45.3732ZM39.402 40.743V17.944H38.3163V40.743H39.402ZM38.8592 18.4869H45.3732V17.4012H38.8592V18.4869ZM44.8303 17.944V30.972H45.916V17.944H44.8303ZM45.3732 31.5148H48.6302V30.4292H45.3732V31.5148ZM49.173 30.972V27.715H48.0873V30.972H49.173ZM48.6302 28.2578H51.8872V27.1722H48.6302V28.2578ZM52.43 27.715V24.458H51.3443V27.715H52.43ZM51.8872 25.0008H55.1442V23.9152H51.8872V25.0008ZM55.687 24.458V17.944H54.6013V24.458H55.687ZM55.1442 18.4869H61.6582V17.4012H55.1442V18.4869ZM61.1153 17.944V40.743H62.201V17.944H61.1153ZM61.6582 40.2002H55.1442V41.2858H61.6582V40.2002ZM55.687 40.743V30.972H54.6013V40.743H55.687ZM55.1442 30.4292H51.8872V31.5148H55.1442V30.4292ZM51.3443 30.972V34.229H52.43V30.972H51.3443ZM51.8872 33.6862H48.6302V34.7718H51.8872V33.6862ZM48.0873 34.229V37.486H49.173V34.229H48.0873ZM48.6302 36.9432H45.3732V38.0288H48.6302V36.9432ZM44.8303 37.486V40.743H45.916V37.486H44.8303ZM45.3732 40.2002H38.8592V41.2858H45.3732V40.2002ZM71.2989 40.743H70.756V41.2858H71.2989V40.743ZM71.2989 37.486H71.8417V36.9432H71.2989V37.486ZM68.0419 37.486H67.499V38.0288H68.0419V37.486ZM68.0419 34.229V33.6862H67.499V34.229H68.0419ZM74.5559 34.229H75.0987V33.6862H74.5559V34.229ZM74.5559 37.486H74.013V38.0288H74.5559V37.486ZM84.3269 37.486V38.0288H84.8697V37.486H84.3269ZM84.3269 30.972H84.8697V30.4292H84.3269V30.972ZM74.5559 30.972H74.013V31.5148H74.5559V30.972ZM74.5559 27.715V27.1722H74.013V27.715H74.5559ZM84.3269 27.715V28.2578H84.8697V27.715H84.3269ZM84.3269 21.201H84.8697V20.6582H84.3269V21.201ZM74.5559 21.201V20.6582H74.013V21.201H74.5559ZM74.5559 24.458V25.0008H75.0987V24.458H74.5559ZM68.0419 24.458H67.499V25.0008H68.0419V24.458ZM68.0419 21.201V20.6582H67.499V21.201H68.0419ZM71.2989 21.201V21.7438H71.8417V21.201H71.2989ZM71.2989 17.944V17.4012H70.756V17.944H71.2989ZM87.5839 17.944H88.1267V17.4012H87.5839V17.944ZM87.5839 21.201H87.041V21.7438H87.5839V21.201ZM90.8409 21.201H91.3837V20.6582H90.8409V21.201ZM90.8409 27.715V28.2578H91.3837V27.715H90.8409ZM87.5839 27.715V27.1722H87.041V27.715H87.5839ZM87.5839 30.972H87.041V31.5148H87.5839V30.972ZM90.8409 30.972H91.3837V30.4292H90.8409V30.972ZM90.8409 37.486V38.0288H91.3837V37.486H90.8409ZM87.5839 37.486V36.9432H87.041V37.486H87.5839ZM87.5839 40.743V41.2858H88.1267V40.743H87.5839ZM71.8417 40.743V37.486H70.756V40.743H71.8417ZM71.2989 36.9432H68.0419V38.0288H71.2989V36.9432ZM68.5847 37.486V34.229H67.499V37.486H68.5847ZM68.0419 34.7718H74.5559V33.6862H68.0419V34.7718ZM74.013 34.229V37.486H75.0987V34.229H74.013ZM74.5559 38.0288H84.3269V36.9432H74.5559V38.0288ZM84.8697 37.486V30.972H83.784V37.486H84.8697ZM84.3269 30.4292H74.5559V31.5148H84.3269V30.4292ZM75.0987 30.972V27.715H74.013V30.972H75.0987ZM74.5559 28.2578H84.3269V27.1722H74.5559V28.2578ZM84.8697 27.715V21.201H83.784V27.715H84.8697ZM84.3269 20.6582H74.5559V21.7438H84.3269V20.6582ZM74.013 21.201V24.458H75.0987V21.201H74.013ZM74.5559 23.9152H68.0419V25.0008H74.5559V23.9152ZM68.5847 24.458V21.201H67.499V24.458H68.5847ZM68.0419 21.7438H71.2989V20.6582H68.0419V21.7438ZM71.8417 21.201V17.944H70.756V21.201H71.8417ZM71.2989 18.4869H87.5839V17.4012H71.2989V18.4869ZM87.041 17.944V21.201H88.1267V17.944H87.041ZM87.5839 21.7438H90.8409V20.6582H87.5839V21.7438ZM90.298 21.201V27.715H91.3837V21.201H90.298ZM90.8409 27.1722H87.5839V28.2578H90.8409V27.1722ZM87.041 27.715V30.972H88.1267V27.715H87.041ZM87.5839 31.5148H90.8409V30.4292H87.5839V31.5148ZM90.298 30.972V37.486H91.3837V30.972H90.298ZM90.8409 36.9432H87.5839V38.0288H90.8409V36.9432ZM87.041 37.486V40.743H88.1267V37.486H87.041ZM87.5839 40.2002H71.2989V41.2858H87.5839V40.2002ZM97.2246 40.743H96.6817V41.2858H97.2246V40.743ZM97.2246 17.944V17.4012H96.6817V17.944H97.2246ZM103.739 17.944H104.281V17.4012H103.739V17.944ZM103.739 21.201H103.196V21.7438H103.739V21.201ZM106.996 21.201H107.538V20.6582H106.996V21.201ZM106.996 24.458H106.453V25.0008H106.996V24.458ZM110.253 24.458V25.0008H110.795V24.458H110.253ZM110.253 21.201V20.6582H109.71V21.201H110.253ZM113.51 21.201V21.7438H114.052V21.201H113.51ZM113.51 17.944V17.4012H112.967V17.944H113.51ZM120.024 17.944H120.566V17.4012H120.024V17.944ZM120.024 40.743V41.2858H120.566V40.743H120.024ZM113.51 40.743H112.967V41.2858H113.51V40.743ZM113.51 27.715H114.052V27.1722H113.51V27.715ZM110.253 27.715V27.1722H109.71V27.715H110.253ZM110.253 34.229V34.7718H110.795V34.229H110.253ZM106.996 34.229H106.453V34.7718H106.996V34.229ZM106.996 27.715H107.538V27.1722H106.996V27.715ZM103.739 27.715V27.1722H103.196V27.715H103.739ZM103.739 40.743V41.2858H104.281V40.743H103.739ZM97.7674 40.743V17.944H96.6817V40.743H97.7674ZM97.2246 18.4869H103.739V17.4012H97.2246V18.4869ZM103.196 17.944V21.201H104.281V17.944H103.196ZM103.739 21.7438H106.996V20.6582H103.739V21.7438ZM106.453 21.201V24.458H107.538V21.201H106.453ZM106.996 25.0008H110.253V23.9152H106.996V25.0008ZM110.795 24.458V21.201H109.71V24.458H110.795ZM110.253 21.7438H113.51V20.6582H110.253V21.7438ZM114.052 21.201V17.944H112.967V21.201H114.052ZM113.51 18.4869H120.024V17.4012H113.51V18.4869ZM119.481 17.944V40.743H120.566V17.944H119.481ZM120.024 40.2002H113.51V41.2858H120.024V40.2002ZM114.052 40.743V27.715H112.967V40.743H114.052ZM113.51 27.1722H110.253V28.2578H113.51V27.1722ZM109.71 27.715V34.229H110.795V27.715H109.71ZM110.253 33.6862H106.996V34.7718H110.253V33.6862ZM107.538 34.229V27.715H106.453V34.229H107.538ZM106.996 27.1722H103.739V28.2578H106.996V27.1722ZM103.196 27.715V40.743H104.281V27.715H103.196ZM103.739 40.2002H97.2246V41.2858H103.739V40.2002ZM126.407 40.743H125.864V41.2858H126.407V40.743ZM126.407 17.944V17.4012H125.864V17.944H126.407ZM149.206 17.944H149.749V17.4012H149.206V17.944ZM149.206 21.201V21.7438H149.749V21.201H149.206ZM132.921 21.201V20.6582H132.378V21.201H132.921ZM132.921 27.715H132.378V28.2578H132.921V27.715ZM145.949 27.715H146.492V27.1722H145.949V27.715ZM145.949 30.972V31.5148H146.492V30.972H145.949ZM132.921 30.972V30.4292H132.378V30.972H132.921ZM132.921 37.486H132.378V38.0288H132.921V37.486ZM149.206 37.486H149.749V36.9432H149.206V37.486ZM149.206 40.743V41.2858H149.749V40.743H149.206ZM126.95 40.743V17.944H125.864V40.743H126.95ZM126.407 18.4869H149.206V17.4012H126.407V18.4869ZM148.663 17.944V21.201H149.749V17.944H148.663ZM149.206 20.6582H132.921V21.7438H149.206V20.6582ZM132.378 21.201V27.715H133.464V21.201H132.378ZM132.921 28.2578H145.949V27.1722H132.921V28.2578ZM145.406 27.715V30.972H146.492V27.715H145.406ZM145.949 30.4292H132.921V31.5148H145.949V30.4292ZM132.378 30.972V37.486H133.464V30.972H132.378ZM132.921 38.0288H149.206V36.9432H132.921V38.0288ZM148.663 37.486V40.743H149.749V37.486H148.663ZM149.206 40.2002H126.407V41.2858H149.206V40.2002ZM155.59 40.743H155.047V41.2858H155.59V40.743ZM155.59 17.944V17.4012H155.047V17.944H155.59ZM162.104 17.944H162.647V17.4012H162.104V17.944ZM162.104 27.715H161.561V28.2578H162.104V27.715ZM171.875 27.715V28.2578H172.418V27.715H171.875ZM171.875 17.944V17.4012H171.332V17.944H171.875ZM178.389 17.944H178.932V17.4012H178.389V17.944ZM178.389 40.743V41.2858H178.932V40.743H178.389ZM171.875 40.743H171.332V41.2858H171.875V40.743ZM171.875 30.972H172.418V30.4292H171.875V30.972ZM162.104 30.972V30.4292H161.561V30.972H162.104ZM162.104 40.743V41.2858H162.647V40.743H162.104ZM156.133 40.743V17.944H155.047V40.743H156.133ZM155.59 18.4869H162.104V17.4012H155.59V18.4869ZM161.561 17.944V27.715H162.647V17.944H161.561ZM162.104 28.2578H171.875V27.1722H162.104V28.2578ZM172.418 27.715V17.944H171.332V27.715H172.418ZM171.875 18.4869H178.389V17.4012H171.875V18.4869ZM177.846 17.944V40.743H178.932V17.944H177.846ZM178.389 40.2002H171.875V41.2858H178.389V40.2002ZM172.418 40.743V30.972H171.332V40.743H172.418ZM171.875 30.4292H162.104V31.5148H171.875V30.4292ZM161.561 30.972V40.743H162.647V30.972H161.561ZM162.104 40.2002H155.59V41.2858H162.104V40.2002ZM184.773 40.743H184.23V41.2858H184.773V40.743ZM184.773 17.944V17.4012H184.23V17.944H184.773ZM191.287 17.944H191.829V17.4012H191.287V17.944ZM191.287 30.972H190.744V31.5148H191.287V30.972ZM194.544 30.972V31.5148H195.087V30.972H194.544ZM194.544 27.715V27.1722H194.001V27.715H194.544ZM197.801 27.715V28.2578H198.343V27.715H197.801ZM197.801 24.458V23.9152H197.258V24.458H197.801ZM201.058 24.458V25.0008H201.6V24.458H201.058ZM201.058 17.944V17.4012H200.515V17.944H201.058ZM207.572 17.944H208.114V17.4012H207.572V17.944ZM207.572 40.743V41.2858H208.114V40.743H207.572ZM201.058 40.743H200.515V41.2858H201.058V40.743ZM201.058 30.972H201.6V30.4292H201.058V30.972ZM197.801 30.972V30.4292H197.258V30.972H197.801ZM197.801 34.229V34.7718H198.343V34.229H197.801ZM194.544 34.229V33.6862H194.001V34.229H194.544ZM194.544 37.486V38.0288H195.087V37.486H194.544ZM191.287 37.486V36.9432H190.744V37.486H191.287ZM191.287 40.743V41.2858H191.829V40.743H191.287ZM185.316 40.743V17.944H184.23V40.743H185.316ZM184.773 18.4869H191.287V17.4012H184.773V18.4869ZM190.744 17.944V30.972H191.829V17.944H190.744ZM191.287 31.5148H194.544V30.4292H191.287V31.5148ZM195.087 30.972V27.715H194.001V30.972H195.087ZM194.544 28.2578H197.801V27.1722H194.544V28.2578ZM198.343 27.715V24.458H197.258V27.715H198.343ZM197.801 25.0008H201.058V23.9152H197.801V25.0008ZM201.6 24.458V17.944H200.515V24.458H201.6ZM201.058 18.4869H207.572V17.4012H201.058V18.4869ZM207.029 17.944V40.743H208.114V17.944H207.029ZM207.572 40.2002H201.058V41.2858H207.572V40.2002ZM201.6 40.743V30.972H200.515V40.743H201.6ZM201.058 30.4292H197.801V31.5148H201.058V30.4292ZM197.258 30.972V34.229H198.343V30.972H197.258ZM197.801 33.6862H194.544V34.7718H197.801V33.6862ZM194.001 34.229V37.486H195.087V34.229H194.001ZM194.544 36.9432H191.287V38.0288H194.544V36.9432ZM190.744 37.486V40.743H191.829V37.486H190.744ZM191.287 40.2002H184.773V41.2858H191.287V40.2002ZM223.726 40.743H223.184V41.2858H223.726V40.743ZM223.726 21.201H224.269V20.6582H223.726V21.201ZM217.212 21.201H216.67V21.7438H217.212V21.201ZM217.212 17.944V17.4012H216.67V17.944H217.212ZM236.754 17.944H237.297V17.4012H236.754V17.944ZM236.754 21.201V21.7438H237.297V21.201H236.754ZM230.24 21.201V20.6582H229.698V21.201H230.24ZM230.24 40.743V41.2858H230.783V40.743H230.24ZM224.269 40.743V21.201H223.184V40.743H224.269ZM223.726 20.6582H217.212V21.7438H223.726V20.6582ZM217.755 21.201V17.944H216.67V21.201H217.755ZM217.212 18.4869H236.754V17.4012H217.212V18.4869ZM236.212 17.944V21.201H237.297V17.944H236.212ZM236.754 20.6582H230.24V21.7438H236.754V20.6582ZM229.698 21.201V40.743H230.783V21.201H229.698ZM230.24 40.2002H223.726V41.2858H230.24V40.2002ZM243.138 40.743H242.595V41.2858H243.138V40.743ZM243.138 17.944V17.4012H242.595V17.944H243.138ZM249.652 17.944H250.195V17.4012H249.652V17.944ZM249.652 24.458H249.109V25.0008H249.652V24.458ZM262.68 24.458H263.223V23.9152H262.68V24.458ZM262.68 27.715H262.137V28.2578H262.68V27.715ZM265.937 27.715H266.48V27.1722H265.937V27.715ZM265.937 37.486V38.0288H266.48V37.486H265.937ZM262.68 37.486V36.9432H262.137V37.486H262.68ZM262.68 40.743V41.2858H263.223V40.743H262.68ZM249.652 37.486H249.109V38.0288H249.652V37.486ZM259.423 37.486V38.0288H259.966V37.486H259.423ZM259.423 27.715H259.966V27.1722H259.423V27.715ZM249.652 27.715V27.1722H249.109V27.715H249.652ZM243.681 40.743V17.944H242.595V40.743H243.681ZM243.138 18.4869H249.652V17.4012H243.138V18.4869ZM249.109 17.944V24.458H250.195V17.944H249.109ZM249.652 25.0008H262.68V23.9152H249.652V25.0008ZM262.137 24.458V27.715H263.223V24.458H262.137ZM262.68 28.2578H265.937V27.1722H262.68V28.2578ZM265.394 27.715V37.486H266.48V27.715H265.394ZM265.937 36.9432H262.68V38.0288H265.937V36.9432ZM262.137 37.486V40.743H263.223V37.486H262.137ZM262.68 40.2002H243.138V41.2858H262.68V40.2002ZM249.652 38.0288H259.423V36.9432H249.652V38.0288ZM259.966 37.486V27.715H258.88V37.486H259.966ZM259.423 27.1722H249.652V28.2578H259.423V27.1722ZM249.109 27.715V37.486H250.195V27.715H249.109ZM301.503 40.743H300.961V41.2858H301.503V40.743ZM301.503 17.944V17.4012H300.961V17.944H301.503ZM308.017 17.944H308.56V17.4012H308.017V17.944ZM308.017 27.715H307.475V28.2578H308.017V27.715ZM317.788 27.715V28.2578H318.331V27.715H317.788ZM317.788 17.944V17.4012H317.246V17.944H317.788ZM324.302 17.944H324.845V17.4012H324.302V17.944ZM324.302 40.743V41.2858H324.845V40.743H324.302ZM317.788 40.743H317.246V41.2858H317.788V40.743ZM317.788 30.972H318.331V30.4292H317.788V30.972ZM308.017 30.972V30.4292H307.475V30.972H308.017ZM308.017 40.743V41.2858H308.56V40.743H308.017ZM302.046 40.743V17.944H300.961V40.743H302.046ZM301.503 18.4869H308.017V17.4012H301.503V18.4869ZM307.475 17.944V27.715H308.56V17.944H307.475ZM308.017 28.2578H317.788V27.1722H308.017V28.2578ZM318.331 27.715V17.944H317.246V27.715H318.331ZM317.788 18.4869H324.302V17.4012H317.788V18.4869ZM323.76 17.944V40.743H324.845V17.944H323.76ZM324.302 40.2002H317.788V41.2858H324.302V40.2002ZM318.331 40.743V30.972H317.246V40.743H318.331ZM317.788 30.4292H308.017V31.5148H317.788V30.4292ZM307.475 30.972V40.743H308.56V30.972H307.475ZM308.017 40.2002H301.503V41.2858H308.017V40.2002ZM333.943 40.743H333.4V41.2858H333.943V40.743ZM333.943 37.486H334.486V36.9432H333.943V37.486ZM330.686 37.486H330.143V38.0288H330.686V37.486ZM330.686 21.201V20.6582H330.143V21.201H330.686ZM333.943 21.201V21.7438H334.486V21.201H333.943ZM333.943 17.944V17.4012H333.4V17.944H333.943ZM350.228 17.944H350.771V17.4012H350.228V17.944ZM350.228 21.201H349.685V21.7438H350.228V21.201ZM353.485 21.201H354.028V20.6582H353.485V21.201ZM353.485 37.486V38.0288H354.028V37.486H353.485ZM350.228 37.486V36.9432H349.685V37.486H350.228ZM350.228 40.743V41.2858H350.771V40.743H350.228ZM337.2 37.486H336.657V38.0288H337.2V37.486ZM346.971 37.486V38.0288H347.514V37.486H346.971ZM346.971 21.201H347.514V20.6582H346.971V21.201ZM337.2 21.201V20.6582H336.657V21.201H337.2ZM334.486 40.743V37.486H333.4V40.743H334.486ZM333.943 36.9432H330.686V38.0288H333.943V36.9432ZM331.229 37.486V21.201H330.143V37.486H331.229ZM330.686 21.7438H333.943V20.6582H330.686V21.7438ZM334.486 21.201V17.944H333.4V21.201H334.486ZM333.943 18.4869H350.228V17.4012H333.943V18.4869ZM349.685 17.944V21.201H350.771V17.944H349.685ZM350.228 21.7438H353.485V20.6582H350.228V21.7438ZM352.942 21.201V37.486H354.028V21.201H352.942ZM353.485 36.9432H350.228V38.0288H353.485V36.9432ZM349.685 37.486V40.743H350.771V37.486H349.685ZM350.228 40.2002H333.943V41.2858H350.228V40.2002ZM337.2 38.0288H346.971V36.9432H337.2V38.0288ZM347.514 37.486V21.201H346.428V37.486H347.514ZM346.971 20.6582H337.2V21.7438H346.971V20.6582ZM336.657 21.201V37.486H337.743V21.201H336.657ZM359.869 40.743H359.326V41.2858H359.869V40.743ZM359.869 17.944V17.4012H359.326V17.944H359.869ZM366.383 17.944H366.926V17.4012H366.383V17.944ZM366.383 21.201H365.84V21.7438H366.383V21.201ZM369.64 21.201H370.183V20.6582H369.64V21.201ZM369.64 24.458H369.097V25.0008H369.64V24.458ZM372.897 24.458V25.0008H373.44V24.458H372.897ZM372.897 21.201V20.6582H372.354V21.201H372.897ZM376.154 21.201V21.7438H376.697V21.201H376.154ZM376.154 17.944V17.4012H375.611V17.944H376.154ZM382.668 17.944H383.211V17.4012H382.668V17.944ZM382.668 40.743V41.2858H383.211V40.743H382.668ZM376.154 40.743H375.611V41.2858H376.154V40.743ZM376.154 27.715H376.697V27.1722H376.154V27.715ZM372.897 27.715V27.1722H372.354V27.715H372.897ZM372.897 34.229V34.7718H373.44V34.229H372.897ZM369.64 34.229H369.097V34.7718H369.64V34.229ZM369.64 27.715H370.183V27.1722H369.64V27.715ZM366.383 27.715V27.1722H365.84V27.715H366.383ZM366.383 40.743V41.2858H366.926V40.743H366.383ZM360.412 40.743V17.944H359.326V40.743H360.412ZM359.869 18.4869H366.383V17.4012H359.869V18.4869ZM365.84 17.944V21.201H366.926V17.944H365.84ZM366.383 21.7438H369.64V20.6582H366.383V21.7438ZM369.097 21.201V24.458H370.183V21.201H369.097ZM369.64 25.0008H372.897V23.9152H369.64V25.0008ZM373.44 24.458V21.201H372.354V24.458H373.44ZM372.897 21.7438H376.154V20.6582H372.897V21.7438ZM376.697 21.201V17.944H375.611V21.201H376.697ZM376.154 18.4869H382.668V17.4012H376.154V18.4869ZM382.125 17.944V40.743H383.211V17.944H382.125ZM382.668 40.2002H376.154V41.2858H382.668V40.2002ZM376.697 40.743V27.715H375.611V40.743H376.697ZM376.154 27.1722H372.897V28.2578H376.154V27.1722ZM372.354 27.715V34.229H373.44V27.715H372.354ZM372.897 33.6862H369.64V34.7718H372.897V33.6862ZM370.183 34.229V27.715H369.097V34.229H370.183ZM369.64 27.1722H366.383V28.2578H369.64V27.1722ZM365.84 27.715V40.743H366.926V27.715H365.84ZM366.383 40.2002H359.869V41.2858H366.383V40.2002ZM389.052 40.743H388.509V41.2858H389.052V40.743ZM389.052 17.944V17.4012H388.509V17.944H389.052ZM411.851 17.944H412.393V17.4012H411.851V17.944ZM411.851 21.201V21.7438H412.393V21.201H411.851ZM395.566 21.201V20.6582H395.023V21.201H395.566ZM395.566 27.715H395.023V28.2578H395.566V27.715ZM408.594 27.715H409.136V27.1722H408.594V27.715ZM408.594 30.972V31.5148H409.136V30.972H408.594ZM395.566 30.972V30.4292H395.023V30.972H395.566ZM395.566 37.486H395.023V38.0288H395.566V37.486ZM411.851 37.486H412.393V36.9432H411.851V37.486ZM411.851 40.743V41.2858H412.393V40.743H411.851ZM389.594 40.743V17.944H388.509V40.743H389.594ZM389.052 18.4869H411.851V17.4012H389.052V18.4869ZM411.308 17.944V21.201H412.393V17.944H411.308ZM411.851 20.6582H395.566V21.7438H411.851V20.6582ZM395.023 21.201V27.715H396.108V21.201H395.023ZM395.566 28.2578H408.594V27.1722H395.566V28.2578ZM408.051 27.715V30.972H409.136V27.715H408.051ZM408.594 30.4292H395.566V31.5148H408.594V30.4292ZM395.023 30.972V37.486H396.108V30.972H395.023ZM395.566 38.0288H411.851V36.9432H395.566V38.0288ZM411.308 37.486V40.743H412.393V37.486H411.308ZM411.851 40.2002H389.052V41.2858H411.851V40.2002ZM418.234 40.743H417.691V41.2858H418.234V40.743ZM418.234 17.944V17.4012H417.691V17.944H418.234ZM437.776 17.944H438.319V17.4012H437.776V17.944ZM437.776 21.201H437.233V21.7438H437.776V21.201ZM441.033 21.201H441.576V20.6582H441.033V21.201ZM441.033 30.972V31.5148H441.576V30.972H441.033ZM437.776 30.972V30.4292H437.233V30.972H437.776ZM437.776 34.229V34.7718H438.319V34.229H437.776ZM424.748 34.229V33.6862H424.205V34.229H424.748ZM424.748 40.743V41.2858H425.291V40.743H424.748ZM424.748 30.972H424.205V31.5148H424.748V30.972ZM434.519 30.972V31.5148H435.062V30.972H434.519ZM434.519 21.201H435.062V20.6582H434.519V21.201ZM424.748 21.201V20.6582H424.205V21.201H424.748ZM418.777 40.743V17.944H417.691V40.743H418.777ZM418.234 18.4869H437.776V17.4012H418.234V18.4869ZM437.233 17.944V21.201H438.319V17.944H437.233ZM437.776 21.7438H441.033V20.6582H437.776V21.7438ZM440.49 21.201V30.972H441.576V21.201H440.49ZM441.033 30.4292H437.776V31.5148H441.033V30.4292ZM437.233 30.972V34.229H438.319V30.972H437.233ZM437.776 33.6862H424.748V34.7718H437.776V33.6862ZM424.205 34.229V40.743H425.291V34.229H424.205ZM424.748 40.2002H418.234V41.2858H424.748V40.2002ZM424.748 31.5148H434.519V30.4292H424.748V31.5148ZM435.062 30.972V21.201H433.976V30.972H435.062ZM434.519 20.6582H424.748V21.7438H434.519V20.6582ZM424.205 21.201V30.972H425.291V21.201H424.205Z" fill="#FF6A13"/>
</g>
<defs>
<clipPath id="clip0_440_1288">
<rect width="481.352" height="64" fill="white" transform="translate(0.574707)"/>
</clipPath>
</defs>
</svg>
