<svg width="343" height="60" viewBox="0 0 343 60" fill="none" xmlns="http://www.w3.org/2000/svg">
<path d="M333.22 20.6H331.71H330.2H328.69H327.18V19.09V17.58V16.07V14.55V13.04H325.66H324.15H322.64H321.13V11.53V10.02V8.51V7H319.62H318.11H316.59H315.08H313.57H312.06H310.55H309.04H307.53H306.01H304.5H302.99H301.48H299.97H298.46H296.94H295.43H293.92H292.41H290.9H289.39H287.87H286.36H284.85H283.34H281.83H280.32H278.81H277.29H275.78H274.27H272.76H271.25H269.74H268.22H266.71H265.2H263.69H262.41H262.18H260.67H259.15H257.64H256.13H254.62H253.11H251.6H250.09H248.57H247.06H245.55H244.04H242.53H241.02H239.5H237.99H236.48H234.97H233.46H231.95H230.43H228.92H227.41H225.9H225.68H224.17H222.65H221.14H219.63H218.12H216.61H215.1H213.59H212.07H210.56H209.05H207.54H206.03H204.52H203H201.49H199.98H198.47H196.96H195.45H193.93H192.42H190.91H189.4H189.17H187.66H186.14H184.63H183.12H181.61H180.1H178.59H177.08H175.56H174.05H172.54H171.03H169.52H168.01H166.49H164.98H163.47H161.96H160.45H158.94H157.42H155.91H154.4H152.89H152.67H151.16H149.64H148.13H146.62H145.11H143.6H142.09H140.58H139.06H137.55H136.04H134.53H133.02H131.51H129.99H128.48H126.97H125.46H123.95H122.44H120.92H119.41H117.9H116.39V50.83H117.9H119.41H120.92H122.44H123.95H125.46H126.97H128.48H129.99H131.51H133.02H134.53H136.04H137.55H139.06H140.58H142.09H143.6H145.11H146.62H148.13H149.64H151.16H152.67H152.89H154.4H155.91H157.42H158.94H160.45H161.96H163.47H164.98H166.49H168.01H169.52H171.03H172.54H174.05H175.56H177.08H178.59H180.1H181.61H183.12H184.63H186.14H187.66H189.17H189.4H190.91H192.42H193.93H195.45H196.96H198.47H199.98H201.49H203H204.52H206.03H207.54H209.05H210.56H212.07H213.59H215.1H216.61H218.12H219.63H221.14H222.65H224.17H225.68H225.9H227.41H228.92H230.43H231.95H233.46H234.97H236.48H237.99H239.5H241.02H242.53H244.04H245.55H247.06H248.57H250.09H251.6H253.11H254.62H256.13H257.64H259.15H260.67H262.18H262.41H263.69H265.2H266.71H268.22H269.74H271.25H272.76H274.27H275.78H277.29H278.81H280.32H281.83H283.34H284.85H286.36H287.87H289.39H290.9H292.41H293.92H295.43H296.94H298.46H299.97H301.48H302.99H304.5H306.01H307.53H309.04H310.55H312.06H313.57H315.08H316.59H318.11H319.62H321.13V49.32V47.81V46.3V44.79H322.64H324.15H325.66H327.18V43.27V41.76V40.25V38.74V37.23H328.69H330.2H331.71H333.22H334.73V35.72V34.2V32.69V31.18V29.67V28.16V26.65V25.14V23.62V22.11V20.6H333.22Z" fill="white"/>
<path d="M113.37 7H111.86H110.34H108.83H107.32H105.81H104.3H102.79H101.27H99.7598H98.2498H96.7398H95.2298H93.7198H92.1998H90.6898H89.1798H87.6698H86.1598H84.6498H83.1398H81.6198H80.1098H78.5998H77.0898H75.5798H74.0698H72.5498H71.0398H69.5298H68.0198H66.5098H64.9998H63.4798H61.9698H60.4598H58.9498H57.4398H55.9298H54.4198H52.8998H51.3898H49.8798H48.3698H46.8598H45.3498H43.8298H42.3198H40.8098H39.2998H37.7898H36.2798H34.7598H33.2498H31.7398H30.2298H28.7198H27.2098H25.6998H24.1798H22.6698H21.1598H19.6498H18.1398V8.51V10.02V11.53V13.04H16.6298H15.1098H13.5998H12.0898V14.55V16.07V17.58V19.09V20.6H10.5798H9.06978H7.55978H6.03978H4.52979V22.11V23.62V25.14V26.65V28.16V29.67V31.18V32.69V34.2V35.72V37.23H6.03978H7.55978H9.06978H10.5798H12.0898V38.74V40.25V41.76V43.27V44.79H13.5998H15.1098H16.6298H18.1398V46.3V47.81V49.32V50.83H19.6498H21.1598H22.6698H24.1798H25.6998H27.2098H28.7198H30.2298H31.7398H33.2498H34.7598H36.2798H37.7898H39.2998H40.8098H42.3198H43.8298H45.3498H46.8598H48.3698H49.8798H51.3898H52.8998H54.4198H55.9298H57.4398H58.9498H60.4598H61.9698H63.4798H64.9998H66.5098H68.0198H69.5298H71.0398H72.5498H74.0698H75.5798H77.0898H78.5998H80.1098H81.6198H83.1398H84.6498H86.1598H87.6698H89.1798H90.6898H92.1998H93.7198H95.2298H96.7398H98.2498H99.7598H101.27H102.79H104.3H105.81H107.32H108.83H110.34H111.86H113.37H114.88H116.39V7H114.88H113.37Z" fill="white"/>
<path d="M340.78 17.58V16.07V14.55H339.27H337.76H336.25H334.73V13.04V11.53V10.02H333.22V8.51001V7.00001H331.71H330.2H328.69V5.48001V3.97001H327.18V2.46001V0.950012H325.66H324.15H322.64H321.13H319.62H318.11H316.59H315.08H313.57H312.06H310.55H309.04H307.53H306.01H304.5H302.99H301.48H299.97H298.46H296.94H295.43H293.92H292.41H290.9H289.39H287.87H286.36H284.85H283.34H281.83H280.32H278.81H277.29H275.78H274.27H272.76H271.25H269.74H268.22H266.71H265.2H263.69H262.41H262.18H260.67H259.15H257.64H256.13H254.62H253.11H251.6H250.09H248.57H247.06H245.55H244.04H242.53H241.02H239.5H237.99H236.48H234.97H233.46H231.95H230.43H228.92H227.41H225.9H225.68H224.17H222.65H221.14H219.63H218.12H216.61H215.1H213.59H212.07H210.56H209.05H207.54H206.03H204.52H203H201.49H199.98H198.47H196.96H195.45H193.93H192.42H190.91H189.4H189.17H187.66H186.14H184.63H183.12H181.61H180.1H178.59H177.08H175.56H174.05H172.54H171.03H169.52H168.01H166.49H164.98H163.47H161.96H160.45H158.94H157.42H155.91H154.4H152.89H152.67H151.16H149.64H148.13H146.62H145.11H143.6H142.09H140.58H139.06H137.55H136.04H134.53H133.02H131.51H129.99H128.48H126.97H125.46H123.95H122.44H120.92H119.41H117.9H116.39V3.97001H117.9H119.41H120.92H122.44H123.95H125.46H126.97H128.48H129.99H131.51H133.02H134.53H136.04H137.55H139.06H140.58H142.09H143.6H145.11H146.62H148.13H149.64H151.16H152.67H152.89H154.4H155.91H157.42H158.94H160.45H161.96H163.47H164.98H166.49H168.01H169.52H171.03H172.54H174.05H175.56H177.08H178.59H180.1H181.61H183.12H184.63H186.14H187.66H189.17H189.4H190.91H192.42H193.93H195.45H196.96H198.47H199.98H201.49H203H204.52H206.03H207.54H209.05H210.56H212.07H213.59H215.1H216.61H218.12H219.63H221.14H222.65H224.17H225.68H225.9H227.41H228.92H230.43H231.95H233.46H234.97H236.48H237.99H239.5H241.02H242.53H244.04H245.55H247.06H248.57H250.09H251.6H253.11H254.62H256.13H257.64H259.15H260.67H262.18H262.41H263.69H265.2H266.71H268.22H269.74H271.25H272.76H274.27H275.78H277.29H278.81H280.32H281.83H283.34H284.85H286.36H287.87H289.39H290.9H292.41H293.92H295.43H296.94H298.46H299.97H301.48H302.99H304.5H306.01H307.53H309.04H310.55H312.06H313.57H315.08H316.59H318.11H319.62H321.13H322.64H324.15V5.48001V7.00001V8.51001V10.02H325.66H327.18H328.69H330.2V11.53H331.71V13.04V14.55V16.07H333.22H334.73H336.25V17.58H337.76V19.09V20.6H339.27V22.11V23.62V25.14V26.65V28.16V29.67V31.18V32.69V34.2V35.72V37.23V38.74V40.25V41.76V43.27H337.76H336.25H334.73H333.22H331.71V44.79V46.3V47.81V49.32H330.2H328.69H327.18H325.66V50.83V52.34V53.86V55.37V56.88H324.15H322.64H321.13H319.62H318.11H316.59H315.08H313.57H312.06H310.55H309.04H307.53H306.01H304.5H302.99H301.48H299.97H298.46H296.94H295.43H293.92H292.41H290.9H289.39H287.87H286.36H284.85H283.34H281.83H280.32H278.81H277.29H275.78H274.27H272.76H271.25H269.74H268.22H266.71H265.2H263.69H262.41H262.18H260.67H259.15H257.64H256.13H254.62H253.11H251.6H250.09H248.57H247.06H245.55H244.04H242.53H241.02H239.5H237.99H236.48H234.97H233.46H231.95H230.43H228.92H227.41H225.9H225.68H224.17H222.65H221.14H219.63H218.12H216.61H215.1H213.59H212.07H210.56H209.05H207.54H206.03H204.52H203H201.49H199.98H198.47H196.96H195.45H193.93H192.42H190.91H189.4H189.17H187.66H186.14H184.63H183.12H181.61H180.1H178.59H177.08H175.56H174.05H172.54H171.03H169.52H168.01H166.49H164.98H163.47H161.96H160.45H158.94H157.42H155.91H154.4H152.89H152.67H151.16H149.64H148.13H146.62H145.11H143.6H142.09H140.58H139.06H137.55H136.04H134.53H133.02H131.51H129.99H128.48H126.97H125.46H123.95H122.44H120.92H119.41H117.9H116.39V59.9H117.9H119.41H120.92H122.44H123.95H125.46H126.97H128.48H129.99H131.51H133.02H134.53H136.04H137.55H139.06H140.58H142.09H143.6H145.11H146.62H148.13H149.64H151.16H152.67H152.89H154.4H155.91H157.42H158.94H160.45H161.96H163.47H164.98H166.49H168.01H169.52H171.03H172.54H174.05H175.56H177.08H178.59H180.1H181.61H183.12H184.63H186.14H187.66H189.17H189.4H190.91H192.42H193.93H195.45H196.96H198.47H199.98H201.49H203H204.52H206.03H207.54H209.05H210.56H212.07H213.59H215.1H216.61H218.12H219.63H221.14H222.65H224.17H225.68H225.9H227.41H228.92H230.43H231.95H233.46H234.97H236.48H237.99H239.5H241.02H242.53H244.04H245.55H247.06H248.57H250.09H251.6H253.11H254.62H256.13H257.64H259.15H260.67H262.18H262.41H263.69H265.2H266.71H268.22H269.74H271.25H272.76H274.27H275.78H277.29H278.81H280.32H281.83H283.34H284.85H286.36H287.87H289.39H290.9H292.41H293.92H295.43H296.94H298.46H299.97H301.48H302.99H304.5H306.01H307.53H309.04H310.55H312.06H313.57H315.08H316.59H318.11H319.62H321.13H322.64H324.15H325.66H327.18H328.69V58.39V56.88V55.37V53.86H330.2H331.71H333.22H334.73V52.34V50.83V49.32V47.81V46.3H336.25H337.76H339.27H340.78H342.29V44.79V43.27V41.76V40.25V38.74V37.23V35.72V34.2V32.69V31.18V29.67V28.16V26.65V25.14V23.62V22.11V20.6V19.09V17.58H340.78Z" fill="white"/>
<path d="M113.37 0.950012H111.86H110.34H108.83H107.32H105.81H104.3H102.79H101.27H99.76H98.25H96.74H95.23H93.72H92.2H90.69H89.18H87.67H86.16H84.65H83.14H81.62H80.11H78.6H77.09H75.58H74.07H72.55H71.04H69.53H68.02H66.51H65H63.48H61.97H60.46H58.95H57.44H55.93H54.42H52.9H51.39H49.88H48.37H46.86H45.35H43.83H42.32H40.81H39.3H37.79H36.28H34.76H33.25H31.74H30.23H28.72H27.21H25.7H24.18H22.67H21.16H19.65H18.14H16.63H15.11H13.6H12.09V2.46001V3.97001V5.48001V7.00001H10.58H9.07H7.56H6.04V8.51001V10.02V11.53V13.04V14.55H4.53H3.02H1.51H0V16.07V17.58V19.09V20.6V22.11V23.62V25.14V26.65V28.16V29.67V31.18V32.69V34.2V35.72V37.23V38.74V40.25V41.76V43.27H1.51V44.79V46.3H3.02H4.53H6.04V47.81V49.32V50.83H7.56V52.34V53.86H9.07H10.58H12.09V55.37V56.88H13.6H15.11V58.39V59.9H16.63H18.14H19.65H21.16H22.67H24.18H25.7H27.21H28.72H30.23H31.74H33.25H34.76H36.28H37.79H39.3H40.81H42.32H43.83H45.35H46.86H48.37H49.88H51.39H52.9H54.42H55.93H57.44H58.95H60.46H61.97H63.48H65H66.51H68.02H69.53H71.04H72.55H74.07H75.58H77.09H78.6H80.11H81.62H83.14H84.65H86.16H87.67H89.18H90.69H92.2H93.72H95.23H96.74H98.25H99.76H101.27H102.79H104.3H105.81H107.32H108.83H110.34H111.86H113.37H114.88H116.39V56.88H114.88H113.37H111.86H110.34H108.83H107.32H105.81H104.3H102.79H101.27H99.76H98.25H96.74H95.23H93.72H92.2H90.69H89.18H87.67H86.16H84.65H83.14H81.62H80.11H78.6H77.09H75.58H74.07H72.55H71.04H69.53H68.02H66.51H65H63.48H61.97H60.46H58.95H57.44H55.93H54.42H52.9H51.39H49.88H48.37H46.86H45.35H43.83H42.32H40.81H39.3H37.79H36.28H34.76H33.25H31.74H30.23H28.72H27.21H25.7H24.18H22.67H21.16H19.65H18.14V55.37V53.86H16.63H15.11V52.34V50.83H13.6H12.09H10.58V49.32V47.81H9.07V46.3V44.79V43.27H7.56H6.04H4.53V41.76V40.25H3.02V38.74V37.23V35.72V34.2V32.69V31.18V29.67V28.16V26.65V25.14V23.62V22.11V20.6V19.09V17.58H4.53H6.04H7.56H9.07V16.07V14.55V13.04V11.53V10.02H10.58H12.09H13.6H15.11V8.51001V7.00001V5.48001V3.97001H16.63H18.14H19.65H21.16H22.67H24.18H25.7H27.21H28.72H30.23H31.74H33.25H34.76H36.28H37.79H39.3H40.81H42.32H43.83H45.35H46.86H48.37H49.88H51.39H52.9H54.42H55.93H57.44H58.95H60.46H61.97H63.48H65H66.51H68.02H69.53H71.04H72.55H74.07H75.58H77.09H78.6H80.11H81.62H83.14H84.65H86.16H87.67H89.18H90.69H92.2H93.72H95.23H96.74H98.25H99.76H101.27H102.79H104.3H105.81H107.32H108.83H110.34H111.86H113.37H114.88H116.39V0.950012H114.88H113.37Z" fill="white"/>
<path d="M337.76 20.6V19.09V17.58H336.25V16.07H334.73H333.22H331.71V14.55V13.04V11.53H330.2V10.02H328.69H327.18H325.66H324.15V8.51003V7.00003V5.48003V3.97003H322.64H321.13H319.62H318.11H316.59H315.08H313.57H312.06H310.55H309.04H307.53H306.01H304.5H302.99H301.48H299.97H298.46H296.94H295.43H293.92H292.41H290.9H289.39H287.87H286.36H284.85H283.34H281.83H280.32H278.81H277.29H275.78H274.27H272.76H271.25H269.74H268.22H266.71H265.2H263.69H262.41H262.18H260.67H259.15H257.64H256.13H254.62H253.11H251.6H250.09H248.57H247.06H245.55H244.04H242.53H241.02H239.5H237.99H236.48H234.97H233.46H231.95H230.43H228.92H227.41H225.9H225.68H224.17H222.65H221.14H219.63H218.12H216.61H215.1H213.59H212.07H210.56H209.05H207.54H206.03H204.52H203H201.49H199.98H198.47H196.96H195.45H193.93H192.42H190.91H189.4H189.17H187.66H186.14H184.63H183.12H181.61H180.1H178.59H177.08H175.56H174.05H172.54H171.03H169.52H168.01H166.49H164.98H163.47H161.96H160.45H158.94H157.42H155.91H154.4H152.89H152.67H151.16H149.64H148.13H146.62H145.11H143.6H142.09H140.58H139.06H137.55H136.04H134.53H133.02H131.51H129.99H128.48H126.97H125.46H123.95H122.44H120.92H119.41H117.9H116.39V7.00003H117.9H119.41H120.92H122.44H123.95H125.46H126.97H128.48H129.99H131.51H133.02H134.53H136.04H137.55H139.06H140.58H142.09H143.6H145.11H146.62H148.13H149.64H151.16H152.67H152.89H154.4H155.91H157.42H158.94H160.45H161.96H163.47H164.98H166.49H168.01H169.52H171.03H172.54H174.05H175.56H177.08H178.59H180.1H181.61H183.12H184.63H186.14H187.66H189.17H189.4H190.91H192.42H193.93H195.45H196.96H198.47H199.98H201.49H203H204.52H206.03H207.54H209.05H210.56H212.07H213.59H215.1H216.61H218.12H219.63H221.14H222.65H224.17H225.68H225.9H227.41H228.92H230.43H231.95H233.46H234.97H236.48H237.99H239.5H241.02H242.53H244.04H245.55H247.06H248.57H250.09H251.6H253.11H254.62H256.13H257.64H259.15H260.67H262.18H262.41H263.69H265.2H266.71H268.22H269.74H271.25H272.76H274.27H275.78H277.29H278.81H280.32H281.83H283.34H284.85H286.36H287.87H289.39H290.9H292.41H293.92H295.43H296.94H298.46H299.97H301.48H302.99H304.5H306.01H307.53H309.04H310.55H312.06H313.57H315.08H316.59H318.11H319.62H321.13V8.51003V10.02V11.53V13.04H322.64H324.15H325.66H327.18V14.55V16.07V17.58V19.09V20.6H328.69H330.2H331.71H333.22H334.73V22.11V23.62V25.14V26.65V28.16V29.67V31.18V32.69V34.2V35.72V37.23H333.22H331.71H330.2H328.69H327.18V38.74V40.25V41.76V43.27V44.79H325.66H324.15H322.64H321.13V46.3V47.81V49.32V50.83H319.62H318.11H316.59H315.08H313.57H312.06H310.55H309.04H307.53H306.01H304.5H302.99H301.48H299.97H298.46H296.94H295.43H293.92H292.41H290.9H289.39H287.87H286.36H284.85H283.34H281.83H280.32H278.81H277.29H275.78H274.27H272.76H271.25H269.74H268.22H266.71H265.2H263.69H262.41H262.18H260.67H259.15H257.64H256.13H254.62H253.11H251.6H250.09H248.57H247.06H245.55H244.04H242.53H241.02H239.5H237.99H236.48H234.97H233.46H231.95H230.43H228.92H227.41H225.9H225.68H224.17H222.65H221.14H219.63H218.12H216.61H215.1H213.59H212.07H210.56H209.05H207.54H206.03H204.52H203H201.49H199.98H198.47H196.96H195.45H193.93H192.42H190.91H189.4H189.17H187.66H186.14H184.63H183.12H181.61H180.1H178.59H177.08H175.56H174.05H172.54H171.03H169.52H168.01H166.49H164.98H163.47H161.96H160.45H158.94H157.42H155.91H154.4H152.89H152.67H151.16H149.64H148.13H146.62H145.11H143.6H142.09H140.58H139.06H137.55H136.04H134.53H133.02H131.51H129.99H128.48H126.97H125.46H123.95H122.44H120.92H119.41H117.9H116.39V56.88H117.9H119.41H120.92H122.44H123.95H125.46H126.97H128.48H129.99H131.51H133.02H134.53H136.04H137.55H139.06H140.58H142.09H143.6H145.11H146.62H148.13H149.64H151.16H152.67H152.89H154.4H155.91H157.42H158.94H160.45H161.96H163.47H164.98H166.49H168.01H169.52H171.03H172.54H174.05H175.56H177.08H178.59H180.1H181.61H183.12H184.63H186.14H187.66H189.17H189.4H190.91H192.42H193.93H195.45H196.96H198.47H199.98H201.49H203H204.52H206.03H207.54H209.05H210.56H212.07H213.59H215.1H216.61H218.12H219.63H221.14H222.65H224.17H225.68H225.9H227.41H228.92H230.43H231.95H233.46H234.97H236.48H237.99H239.5H241.02H242.53H244.04H245.55H247.06H248.57H250.09H251.6H253.11H254.62H256.13H257.64H259.15H260.67H262.18H262.41H263.69H265.2H266.71H268.22H269.74H271.25H272.76H274.27H275.78H277.29H278.81H280.32H281.83H283.34H284.85H286.36H287.87H289.39H290.9H292.41H293.92H295.43H296.94H298.46H299.97H301.48H302.99H304.5H306.01H307.53H309.04H310.55H312.06H313.57H315.08H316.59H318.11H319.62H321.13H322.64H324.15H325.66V55.37V53.86V52.34V50.83V49.32H327.18H328.69H330.2H331.71V47.81V46.3V44.79V43.27H333.22H334.73H336.25H337.76H339.27V41.76V40.25V38.74V37.23V35.72V34.2V32.69V31.18V29.67V28.16V26.65V25.14V23.62V22.11V20.6H337.76Z" fill="#1D1D1D"/>
<path d="M113.37 3.97003H111.86H110.34H108.83H107.32H105.81H104.3H102.79H101.27H99.76H98.25H96.74H95.23H93.72H92.2H90.69H89.18H87.67H86.16H84.65H83.14H81.62H80.11H78.6H77.09H75.58H74.07H72.55H71.04H69.53H68.02H66.51H65H63.48H61.97H60.46H58.95H57.44H55.93H54.42H52.9H51.39H49.88H48.37H46.86H45.35H43.83H42.32H40.81H39.3H37.79H36.28H34.76H33.25H31.74H30.23H28.72H27.21H25.7H24.18H22.67H21.16H19.65H18.14H16.63H15.11V5.48003V7.00003V8.51003V10.02H13.6H12.09H10.58H9.07002V11.53V13.04V14.55V16.07V17.58H7.56002H6.04002H4.53002H3.02002V19.09V20.6V22.11V23.62V25.14V26.65V28.16V29.67V31.18V32.69V34.2V35.72V37.23V38.74V40.25H4.53002V41.76V43.27H6.04002H7.56002H9.07002V44.79V46.3V47.81H10.58V49.32V50.83H12.09H13.6H15.11V52.34V53.86H16.63H18.14V55.37V56.88H19.65H21.16H22.67H24.18H25.7H27.21H28.72H30.23H31.74H33.25H34.76H36.28H37.79H39.3H40.81H42.32H43.83H45.35H46.86H48.37H49.88H51.39H52.9H54.42H55.93H57.44H58.95H60.46H61.97H63.48H65H66.51H68.02H69.53H71.04H72.55H74.07H75.58H77.09H78.6H80.11H81.62H83.14H84.65H86.16H87.67H89.18H90.69H92.2H93.72H95.23H96.74H98.25H99.76H101.27H102.79H104.3H105.81H107.32H108.83H110.34H111.86H113.37H114.88H116.39V50.83H114.88H113.37H111.86H110.34H108.83H107.32H105.81H104.3H102.79H101.27H99.76H98.25H96.74H95.23H93.72H92.2H90.69H89.18H87.67H86.16H84.65H83.14H81.62H80.11H78.6H77.09H75.58H74.07H72.55H71.04H69.53H68.02H66.51H65H63.48H61.97H60.46H58.95H57.44H55.93H54.42H52.9H51.39H49.88H48.37H46.86H45.35H43.83H42.32H40.81H39.3H37.79H36.28H34.76H33.25H31.74H30.23H28.72H27.21H25.7H24.18H22.67H21.16H19.65H18.14V49.32V47.81V46.3V44.79H16.63H15.11H13.6H12.09V43.27V41.76V40.25V38.74V37.23H10.58H9.07002H7.56002H6.04002H4.53002V35.72V34.2V32.69V31.18V29.67V28.16V26.65V25.14V23.62V22.11V20.6H6.04002H7.56002H9.07002H10.58H12.09V19.09V17.58V16.07V14.55V13.04H13.6H15.11H16.63H18.14V11.53V10.02V8.51003V7.00003H19.65H21.16H22.67H24.18H25.7H27.21H28.72H30.23H31.74H33.25H34.76H36.28H37.79H39.3H40.81H42.32H43.83H45.35H46.86H48.37H49.88H51.39H52.9H54.42H55.93H57.44H58.95H60.46H61.97H63.48H65H66.51H68.02H69.53H71.04H72.55H74.07H75.58H77.09H78.6H80.11H81.62H83.14H84.65H86.16H87.67H89.18H90.69H92.2H93.72H95.23H96.74H98.25H99.76H101.27H102.79H104.3H105.81H107.32H108.83H110.34H111.86H113.37H114.88H116.39V3.97003H114.88H113.37Z" fill="#1D1D1D"/>
</svg>
