<svg width="343" height="59" viewBox="0 0 343 59" fill="none" xmlns="http://www.w3.org/2000/svg">
<path d="M333.22 19.65H331.71H330.2H328.69H327.18V18.14V16.63V15.12V13.6V12.09H325.66H324.15H322.64H321.13V10.58V9.07005V7.56005V6.05005H319.62H318.11H316.59H315.08H313.57H312.06H310.55H309.04H307.53H306.01H304.5H302.99H301.48H299.97H298.46H296.94H295.43H293.92H292.41H290.9H289.39H287.87H286.36H284.85H283.34H281.83H280.32H278.81H277.29H275.78H274.27H272.76H271.25H269.74H268.22H266.71H265.2H263.69H262.41H262.18H260.67H259.15H257.64H256.13H254.62H253.11H251.6H250.09H248.57H247.06H245.55H244.04H242.53H241.02H239.5H237.99H236.48H234.97H233.46H231.95H230.43H228.92H227.41H225.9H225.68H224.17H222.65H221.14H219.63H218.12H216.61H215.1H213.59H212.07H210.56H209.05H207.54H206.03H204.52H203H201.49H199.98H198.47H196.96H195.45H193.93H192.42H190.91H189.4H189.17H187.66H186.14H184.63H183.12H181.61H180.1H178.59H177.08H175.56H174.05H172.54H171.03H169.52H168.01H166.49H164.98H163.47H161.96H160.45H158.94H157.42H155.91H154.4H152.89H152.67H151.16H149.64H148.13H146.62H145.11H143.6H142.09H140.58H139.06H137.55H136.04H134.53H133.02H131.51H129.99H128.48H126.97H125.46H123.95H122.44H120.92H119.41H117.9H116.39V49.8801H117.9H119.41H120.92H122.44H123.95H125.46H126.97H128.48H129.99H131.51H133.02H134.53H136.04H137.55H139.06H140.58H142.09H143.6H145.11H146.62H148.13H149.64H151.16H152.67H152.89H154.4H155.91H157.42H158.94H160.45H161.96H163.47H164.98H166.49H168.01H169.52H171.03H172.54H174.05H175.56H177.08H178.59H180.1H181.61H183.12H184.63H186.14H187.66H189.17H189.4H190.91H192.42H193.93H195.45H196.96H198.47H199.98H201.49H203H204.52H206.03H207.54H209.05H210.56H212.07H213.59H215.1H216.61H218.12H219.63H221.14H222.65H224.17H225.68H225.9H227.41H228.92H230.43H231.95H233.46H234.97H236.48H237.99H239.5H241.02H242.53H244.04H245.55H247.06H248.57H250.09H251.6H253.11H254.62H256.13H257.64H259.15H260.67H262.18H262.41H263.69H265.2H266.71H268.22H269.74H271.25H272.76H274.27H275.78H277.29H278.81H280.32H281.83H283.34H284.85H286.36H287.87H289.39H290.9H292.41H293.92H295.43H296.94H298.46H299.97H301.48H302.99H304.5H306.01H307.53H309.04H310.55H312.06H313.57H315.08H316.59H318.11H319.62H321.13V48.37V46.8601V45.35V43.84H322.64H324.15H325.66H327.18V42.32V40.8101V39.3V37.7901V36.28H328.69H330.2H331.71H333.22H334.73V34.7701V33.25V31.74V30.23V28.72V27.21V25.7001V24.19V22.67V21.16V19.65H333.22Z" fill="#FF6A13"/>
<path d="M113.37 6.05005H111.86H110.34H108.83H107.32H105.81H104.3H102.79H101.27H99.76H98.25H96.74H95.23H93.72H92.2H90.69H89.18H87.67H86.16H84.65H83.14H81.62H80.11H78.6H77.09H75.58H74.07H72.55H71.04H69.53H68.02H66.51H65H63.48H61.97H60.46H58.95H57.44H55.93H54.42H52.9H51.39H49.88H48.37H46.86H45.35H43.83H42.32H40.81H39.3H37.79H36.28H34.76H33.25H31.74H30.23H28.72H27.21H25.7H24.18H22.67H21.16H19.65H18.14V7.56005V9.07005V10.58V12.09H16.63H15.11H13.6H12.09V13.6V15.12V16.63V18.14V19.65H10.58H9.07003H7.56003H6.04003H4.53003V21.16V22.67V24.19V25.7001V27.21V28.72V30.23V31.74V33.25V34.7701V36.28H6.04003H7.56003H9.07003H10.58H12.09V37.7901V39.3V40.8101V42.32V43.84H13.6H15.11H16.63H18.14V45.35V46.8601V48.37V49.8801H19.65H21.16H22.67H24.18H25.7H27.21H28.72H30.23H31.74H33.25H34.76H36.28H37.79H39.3H40.81H42.32H43.83H45.35H46.86H48.37H49.88H51.39H52.9H54.42H55.93H57.44H58.95H60.46H61.97H63.48H65H66.51H68.02H69.53H71.04H72.55H74.07H75.58H77.09H78.6H80.11H81.62H83.14H84.65H86.16H87.67H89.18H90.69H92.2H93.72H95.23H96.74H98.25H99.76H101.27H102.79H104.3H105.81H107.32H108.83H110.34H111.86H113.37H114.88H116.39V6.05005H114.88H113.37Z" fill="#FF6A13"/>
<path d="M340.78 16.63V15.12V13.6H339.27H337.76H336.25H334.73V12.09V10.58V9.07H333.22V7.56V6.05H331.71H330.2H328.69V4.53V3.02H327.18V1.51V0H325.66H324.15H322.64H321.13H319.62H318.11H316.59H315.08H313.57H312.06H310.55H309.04H307.53H306.01H304.5H302.99H301.48H299.97H298.46H296.94H295.43H293.92H292.41H290.9H289.39H287.87H286.36H284.85H283.34H281.83H280.32H278.81H277.29H275.78H274.27H272.76H271.25H269.74H268.22H266.71H265.2H263.69H262.41H262.18H260.67H259.15H257.64H256.13H254.62H253.11H251.6H250.09H248.57H247.06H245.55H244.04H242.53H241.02H239.5H237.99H236.48H234.97H233.46H231.95H230.43H228.92H227.41H225.9H225.68H224.17H222.65H221.14H219.63H218.12H216.61H215.1H213.59H212.07H210.56H209.05H207.54H206.03H204.52H203H201.49H199.98H198.47H196.96H195.45H193.93H192.42H190.91H189.4H189.17H187.66H186.14H184.63H183.12H181.61H180.1H178.59H177.08H175.56H174.05H172.54H171.03H169.52H168.01H166.49H164.98H163.47H161.96H160.45H158.94H157.42H155.91H154.4H152.89H152.67H151.16H149.64H148.13H146.62H145.11H143.6H142.09H140.58H139.06H137.55H136.04H134.53H133.02H131.51H129.99H128.48H126.97H125.46H123.95H122.44H120.92H119.41H117.9H116.39V3.02H117.9H119.41H120.92H122.44H123.95H125.46H126.97H128.48H129.99H131.51H133.02H134.53H136.04H137.55H139.06H140.58H142.09H143.6H145.11H146.62H148.13H149.64H151.16H152.67H152.89H154.4H155.91H157.42H158.94H160.45H161.96H163.47H164.98H166.49H168.01H169.52H171.03H172.54H174.05H175.56H177.08H178.59H180.1H181.61H183.12H184.63H186.14H187.66H189.17H189.4H190.91H192.42H193.93H195.45H196.96H198.47H199.98H201.49H203H204.52H206.03H207.54H209.05H210.56H212.07H213.59H215.1H216.61H218.12H219.63H221.14H222.65H224.17H225.68H225.9H227.41H228.92H230.43H231.95H233.46H234.97H236.48H237.99H239.5H241.02H242.53H244.04H245.55H247.06H248.57H250.09H251.6H253.11H254.62H256.13H257.64H259.15H260.67H262.18H262.41H263.69H265.2H266.71H268.22H269.74H271.25H272.76H274.27H275.78H277.29H278.81H280.32H281.83H283.34H284.85H286.36H287.87H289.39H290.9H292.41H293.92H295.43H296.94H298.46H299.97H301.48H302.99H304.5H306.01H307.53H309.04H310.55H312.06H313.57H315.08H316.59H318.11H319.62H321.13H322.64H324.15V4.53V6.05V7.56V9.07H325.66H327.18H328.69H330.2V10.58H331.71V12.09V13.6V15.12H333.22H334.73H336.25V16.63H337.76V18.14V19.65H339.27V21.16V22.67V24.19V25.7V27.21V28.72V30.23V31.74V33.25V34.77V36.28V37.79V39.3V40.81V42.32H337.76H336.25H334.73H333.22H331.71V43.84V45.35V46.86V48.37H330.2H328.69H327.18H325.66V49.88V51.39V52.91V54.42V55.93H324.15H322.64H321.13H319.62H318.11H316.59H315.08H313.57H312.06H310.55H309.04H307.53H306.01H304.5H302.99H301.48H299.97H298.46H296.94H295.43H293.92H292.41H290.9H289.39H287.87H286.36H284.85H283.34H281.83H280.32H278.81H277.29H275.78H274.27H272.76H271.25H269.74H268.22H266.71H265.2H263.69H262.41H262.18H260.67H259.15H257.64H256.13H254.62H253.11H251.6H250.09H248.57H247.06H245.55H244.04H242.53H241.02H239.5H237.99H236.48H234.97H233.46H231.95H230.43H228.92H227.41H225.9H225.68H224.17H222.65H221.14H219.63H218.12H216.61H215.1H213.59H212.07H210.56H209.05H207.54H206.03H204.52H203H201.49H199.98H198.47H196.96H195.45H193.93H192.42H190.91H189.4H189.17H187.66H186.14H184.63H183.12H181.61H180.1H178.59H177.08H175.56H174.05H172.54H171.03H169.52H168.01H166.49H164.98H163.47H161.96H160.45H158.94H157.42H155.91H154.4H152.89H152.67H151.16H149.64H148.13H146.62H145.11H143.6H142.09H140.58H139.06H137.55H136.04H134.53H133.02H131.51H129.99H128.48H126.97H125.46H123.95H122.44H120.92H119.41H117.9H116.39V58.95H117.9H119.41H120.92H122.44H123.95H125.46H126.97H128.48H129.99H131.51H133.02H134.53H136.04H137.55H139.06H140.58H142.09H143.6H145.11H146.62H148.13H149.64H151.16H152.67H152.89H154.4H155.91H157.42H158.94H160.45H161.96H163.47H164.98H166.49H168.01H169.52H171.03H172.54H174.05H175.56H177.08H178.59H180.1H181.61H183.12H184.63H186.14H187.66H189.17H189.4H190.91H192.42H193.93H195.45H196.96H198.47H199.98H201.49H203H204.52H206.03H207.54H209.05H210.56H212.07H213.59H215.1H216.61H218.12H219.63H221.14H222.65H224.17H225.68H225.9H227.41H228.92H230.43H231.95H233.46H234.97H236.48H237.99H239.5H241.02H242.53H244.04H245.55H247.06H248.57H250.09H251.6H253.11H254.62H256.13H257.64H259.15H260.67H262.18H262.41H263.69H265.2H266.71H268.22H269.74H271.25H272.76H274.27H275.78H277.29H278.81H280.32H281.83H283.34H284.85H286.36H287.87H289.39H290.9H292.41H293.92H295.43H296.94H298.46H299.97H301.48H302.99H304.5H306.01H307.53H309.04H310.55H312.06H313.57H315.08H316.59H318.11H319.62H321.13H322.64H324.15H325.66H327.18H328.69V57.44V55.93V54.42V52.91H330.2H331.71H333.22H334.73V51.39V49.88V48.37V46.86V45.35H336.25H337.76H339.27H340.78H342.29V43.84V42.32V40.81V39.3V37.79V36.28V34.77V33.25V31.74V30.23V28.72V27.21V25.7V24.19V22.67V21.16V19.65V18.14V16.63H340.78Z" fill="white"/>
<path d="M113.37 0H111.86H110.34H108.83H107.32H105.81H104.3H102.79H101.27H99.76H98.25H96.74H95.23H93.72H92.2H90.69H89.18H87.67H86.16H84.65H83.14H81.62H80.11H78.6H77.09H75.58H74.07H72.55H71.04H69.53H68.02H66.51H65H63.48H61.97H60.46H58.95H57.44H55.93H54.42H52.9H51.39H49.88H48.37H46.86H45.35H43.83H42.32H40.81H39.3H37.79H36.28H34.76H33.25H31.74H30.23H28.72H27.21H25.7H24.18H22.67H21.16H19.65H18.14H16.63H15.11H13.6H12.09V1.51V3.02V4.53V6.05H10.58H9.07H7.56H6.04V7.56V9.07V10.58V12.09V13.6H4.53H3.02H1.51H0V15.12V16.63V18.14V19.65V21.16V22.67V24.19V25.7V27.21V28.72V30.23V31.74V33.25V34.77V36.28V37.79V39.3V40.81V42.32H1.51V43.84V45.35H3.02H4.53H6.04V46.86V48.37V49.88H7.56V51.39V52.91H9.07H10.58H12.09V54.42V55.93H13.6H15.11V57.44V58.95H16.63H18.14H19.65H21.16H22.67H24.18H25.7H27.21H28.72H30.23H31.74H33.25H34.76H36.28H37.79H39.3H40.81H42.32H43.83H45.35H46.86H48.37H49.88H51.39H52.9H54.42H55.93H57.44H58.95H60.46H61.97H63.48H65H66.51H68.02H69.53H71.04H72.55H74.07H75.58H77.09H78.6H80.11H81.62H83.14H84.65H86.16H87.67H89.18H90.69H92.2H93.72H95.23H96.74H98.25H99.76H101.27H102.79H104.3H105.81H107.32H108.83H110.34H111.86H113.37H114.88H116.39V55.93H114.88H113.37H111.86H110.34H108.83H107.32H105.81H104.3H102.79H101.27H99.76H98.25H96.74H95.23H93.72H92.2H90.69H89.18H87.67H86.16H84.65H83.14H81.62H80.11H78.6H77.09H75.58H74.07H72.55H71.04H69.53H68.02H66.51H65H63.48H61.97H60.46H58.95H57.44H55.93H54.42H52.9H51.39H49.88H48.37H46.86H45.35H43.83H42.32H40.81H39.3H37.79H36.28H34.76H33.25H31.74H30.23H28.72H27.21H25.7H24.18H22.67H21.16H19.65H18.14V54.42V52.91H16.63H15.11V51.39V49.88H13.6H12.09H10.58V48.37V46.86H9.07V45.35V43.84V42.32H7.56H6.04H4.53V40.81V39.3H3.02V37.79V36.28V34.77V33.25V31.74V30.23V28.72V27.21V25.7V24.19V22.67V21.16V19.65V18.14V16.63H4.53H6.04H7.56H9.07V15.12V13.6V12.09V10.58V9.07H10.58H12.09H13.6H15.11V7.56V6.05V4.53V3.02H16.63H18.14H19.65H21.16H22.67H24.18H25.7H27.21H28.72H30.23H31.74H33.25H34.76H36.28H37.79H39.3H40.81H42.32H43.83H45.35H46.86H48.37H49.88H51.39H52.9H54.42H55.93H57.44H58.95H60.46H61.97H63.48H65H66.51H68.02H69.53H71.04H72.55H74.07H75.58H77.09H78.6H80.11H81.62H83.14H84.65H86.16H87.67H89.18H90.69H92.2H93.72H95.23H96.74H98.25H99.76H101.27H102.79H104.3H105.81H107.32H108.83H110.34H111.86H113.37H114.88H116.39V0H114.88H113.37Z" fill="white"/>
<path d="M337.76 19.65V18.14V16.63H336.25V15.12H334.73H333.22H331.71V13.6V12.09V10.58H330.2V9.07002H328.69H327.18H325.66H324.15V7.56002V6.05002V4.53002V3.02002H322.64H321.13H319.62H318.11H316.59H315.08H313.57H312.06H310.55H309.04H307.53H306.01H304.5H302.99H301.48H299.97H298.46H296.94H295.43H293.92H292.41H290.9H289.39H287.87H286.36H284.85H283.34H281.83H280.32H278.81H277.29H275.78H274.27H272.76H271.25H269.74H268.22H266.71H265.2H263.69H262.41H262.18H260.67H259.15H257.64H256.13H254.62H253.11H251.6H250.09H248.57H247.06H245.55H244.04H242.53H241.02H239.5H237.99H236.48H234.97H233.46H231.95H230.43H228.92H227.41H225.9H225.68H224.17H222.65H221.14H219.63H218.12H216.61H215.1H213.59H212.07H210.56H209.05H207.54H206.03H204.52H203H201.49H199.98H198.47H196.96H195.45H193.93H192.42H190.91H189.4H189.17H187.66H186.14H184.63H183.12H181.61H180.1H178.59H177.08H175.56H174.05H172.54H171.03H169.52H168.01H166.49H164.98H163.47H161.96H160.45H158.94H157.42H155.91H154.4H152.89H152.67H151.16H149.64H148.13H146.62H145.11H143.6H142.09H140.58H139.06H137.55H136.04H134.53H133.02H131.51H129.99H128.48H126.97H125.46H123.95H122.44H120.92H119.41H117.9H116.39V6.05002H117.9H119.41H120.92H122.44H123.95H125.46H126.97H128.48H129.99H131.51H133.02H134.53H136.04H137.55H139.06H140.58H142.09H143.6H145.11H146.62H148.13H149.64H151.16H152.67H152.89H154.4H155.91H157.42H158.94H160.45H161.96H163.47H164.98H166.49H168.01H169.52H171.03H172.54H174.05H175.56H177.08H178.59H180.1H181.61H183.12H184.63H186.14H187.66H189.17H189.4H190.91H192.42H193.93H195.45H196.96H198.47H199.98H201.49H203H204.52H206.03H207.54H209.05H210.56H212.07H213.59H215.1H216.61H218.12H219.63H221.14H222.65H224.17H225.68H225.9H227.41H228.92H230.43H231.95H233.46H234.97H236.48H237.99H239.5H241.02H242.53H244.04H245.55H247.06H248.57H250.09H251.6H253.11H254.62H256.13H257.64H259.15H260.67H262.18H262.41H263.69H265.2H266.71H268.22H269.74H271.25H272.76H274.27H275.78H277.29H278.81H280.32H281.83H283.34H284.85H286.36H287.87H289.39H290.9H292.41H293.92H295.43H296.94H298.46H299.97H301.48H302.99H304.5H306.01H307.53H309.04H310.55H312.06H313.57H315.08H316.59H318.11H319.62H321.13V7.56002V9.07002V10.58V12.09H322.64H324.15H325.66H327.18V13.6V15.12V16.63V18.14V19.65H328.69H330.2H331.71H333.22H334.73V21.16V22.67V24.19V25.7V27.21V28.72V30.23V31.74V33.25V34.77V36.28H333.22H331.71H330.2H328.69H327.18V37.79V39.3V40.81V42.32V43.84H325.66H324.15H322.64H321.13V45.35V46.86V48.37V49.88H319.62H318.11H316.59H315.08H313.57H312.06H310.55H309.04H307.53H306.01H304.5H302.99H301.48H299.97H298.46H296.94H295.43H293.92H292.41H290.9H289.39H287.87H286.36H284.85H283.34H281.83H280.32H278.81H277.29H275.78H274.27H272.76H271.25H269.74H268.22H266.71H265.2H263.69H262.41H262.18H260.67H259.15H257.64H256.13H254.62H253.11H251.6H250.09H248.57H247.06H245.55H244.04H242.53H241.02H239.5H237.99H236.48H234.97H233.46H231.95H230.43H228.92H227.41H225.9H225.68H224.17H222.65H221.14H219.63H218.12H216.61H215.1H213.59H212.07H210.56H209.05H207.54H206.03H204.52H203H201.49H199.98H198.47H196.96H195.45H193.93H192.42H190.91H189.4H189.17H187.66H186.14H184.63H183.12H181.61H180.1H178.59H177.08H175.56H174.05H172.54H171.03H169.52H168.01H166.49H164.98H163.47H161.96H160.45H158.94H157.42H155.91H154.4H152.89H152.67H151.16H149.64H148.13H146.62H145.11H143.6H142.09H140.58H139.06H137.55H136.04H134.53H133.02H131.51H129.99H128.48H126.97H125.46H123.95H122.44H120.92H119.41H117.9H116.39V55.93H117.9H119.41H120.92H122.44H123.95H125.46H126.97H128.48H129.99H131.51H133.02H134.53H136.04H137.55H139.06H140.58H142.09H143.6H145.11H146.62H148.13H149.64H151.16H152.67H152.89H154.4H155.91H157.42H158.94H160.45H161.96H163.47H164.98H166.49H168.01H169.52H171.03H172.54H174.05H175.56H177.08H178.59H180.1H181.61H183.12H184.63H186.14H187.66H189.17H189.4H190.91H192.42H193.93H195.45H196.96H198.47H199.98H201.49H203H204.52H206.03H207.54H209.05H210.56H212.07H213.59H215.1H216.61H218.12H219.63H221.14H222.65H224.17H225.68H225.9H227.41H228.92H230.43H231.95H233.46H234.97H236.48H237.99H239.5H241.02H242.53H244.04H245.55H247.06H248.57H250.09H251.6H253.11H254.62H256.13H257.64H259.15H260.67H262.18H262.41H263.69H265.2H266.71H268.22H269.74H271.25H272.76H274.27H275.78H277.29H278.81H280.32H281.83H283.34H284.85H286.36H287.87H289.39H290.9H292.41H293.92H295.43H296.94H298.46H299.97H301.48H302.99H304.5H306.01H307.53H309.04H310.55H312.06H313.57H315.08H316.59H318.11H319.62H321.13H322.64H324.15H325.66V54.42V52.91V51.39V49.88V48.37H327.18H328.69H330.2H331.71V46.86V45.35V43.84V42.32H333.22H334.73H336.25H337.76H339.27V40.81V39.3V37.79V36.28V34.77V33.25V31.74V30.23V28.72V27.21V25.7V24.19V22.67V21.16V19.65H337.76Z" fill="#1D1D1D"/>
<path d="M113.37 3.02002H111.86H110.34H108.83H107.32H105.81H104.3H102.79H101.27H99.76H98.25H96.74H95.23H93.72H92.2H90.69H89.18H87.67H86.16H84.65H83.14H81.62H80.11H78.6H77.09H75.58H74.07H72.55H71.04H69.53H68.02H66.51H65H63.48H61.97H60.46H58.95H57.44H55.93H54.42H52.9H51.39H49.88H48.37H46.86H45.35H43.83H42.32H40.81H39.3H37.79H36.28H34.76H33.25H31.74H30.23H28.72H27.21H25.7H24.18H22.67H21.16H19.65H18.14H16.63H15.11V4.53002V6.05002V7.56002V9.07002H13.6H12.09H10.58H9.07002V10.58V12.09V13.6V15.12V16.63H7.56002H6.04002H4.53002H3.02002V18.14V19.65V21.16V22.67V24.19V25.7V27.21V28.72V30.23V31.74V33.25V34.77V36.28V37.79V39.3H4.53002V40.81V42.32H6.04002H7.56002H9.07002V43.84V45.35V46.86H10.58V48.37V49.88H12.09H13.6H15.11V51.39V52.91H16.63H18.14V54.42V55.93H19.65H21.16H22.67H24.18H25.7H27.21H28.72H30.23H31.74H33.25H34.76H36.28H37.79H39.3H40.81H42.32H43.83H45.35H46.86H48.37H49.88H51.39H52.9H54.42H55.93H57.44H58.95H60.46H61.97H63.48H65H66.51H68.02H69.53H71.04H72.55H74.07H75.58H77.09H78.6H80.11H81.62H83.14H84.65H86.16H87.67H89.18H90.69H92.2H93.72H95.23H96.74H98.25H99.76H101.27H102.79H104.3H105.81H107.32H108.83H110.34H111.86H113.37H114.88H116.39V49.88H114.88H113.37H111.86H110.34H108.83H107.32H105.81H104.3H102.79H101.27H99.76H98.25H96.74H95.23H93.72H92.2H90.69H89.18H87.67H86.16H84.65H83.14H81.62H80.11H78.6H77.09H75.58H74.07H72.55H71.04H69.53H68.02H66.51H65H63.48H61.97H60.46H58.95H57.44H55.93H54.42H52.9H51.39H49.88H48.37H46.86H45.35H43.83H42.32H40.81H39.3H37.79H36.28H34.76H33.25H31.74H30.23H28.72H27.21H25.7H24.18H22.67H21.16H19.65H18.14V48.37V46.86V45.35V43.84H16.63H15.11H13.6H12.09V42.32V40.81V39.3V37.79V36.28H10.58H9.07002H7.56002H6.04002H4.53002V34.77V33.25V31.74V30.23V28.72V27.21V25.7V24.19V22.67V21.16V19.65H6.04002H7.56002H9.07002H10.58H12.09V18.14V16.63V15.12V13.6V12.09H13.6H15.11H16.63H18.14V10.58V9.07002V7.56002V6.05002H19.65H21.16H22.67H24.18H25.7H27.21H28.72H30.23H31.74H33.25H34.76H36.28H37.79H39.3H40.81H42.32H43.83H45.35H46.86H48.37H49.88H51.39H52.9H54.42H55.93H57.44H58.95H60.46H61.97H63.48H65H66.51H68.02H69.53H71.04H72.55H74.07H75.58H77.09H78.6H80.11H81.62H83.14H84.65H86.16H87.67H89.18H90.69H92.2H93.72H95.23H96.74H98.25H99.76H101.27H102.79H104.3H105.81H107.32H108.83H110.34H111.86H113.37H114.88H116.39V3.02002H114.88H113.37Z" fill="#1D1D1D"/>
</svg>
