<svg width="380" height="59" viewBox="0 0 380 59" fill="none" xmlns="http://www.w3.org/2000/svg">
<path d="M370.02 19.65H368.51H367H365.49H363.98V18.14V16.63V15.12V13.6V12.09H362.46H360.95H359.44H357.93V10.58V9.07005V7.56005V6.05005H356.42H354.91H353.39H351.88H350.37H348.86H347.35H345.84H344.33H342.81H341.3H339.79H338.28H336.77H335.26H333.74H332.23H330.72H329.21H327.7H326.19H324.67H323.16H321.65H320.14H318.63H317.12H315.61H314.09H312.58H311.07H309.56H308.05H306.54H305.02H303.51H302H300.49H299.2H298.98H297.47H295.95H294.44H292.93H291.42H289.91H288.4H286.89H285.37H283.86H282.35H280.84H279.33H277.82H276.3H274.79H273.28H271.77H270.26H268.75H267.23H265.72H264.21H262.7H262.47H260.96H259.44H257.93H256.42H254.91H253.4H251.89H250.38H248.86H247.35H245.84H244.33H242.82H241.31H239.79H238.28H236.77H235.26H233.75H232.24H230.72H229.21H227.7H226.19H225.97H224.46H222.94H221.43H219.92H218.41H216.9H215.39H213.88H212.36H210.85H209.34H207.83H206.32H204.81H203.29H201.78H200.27H198.76H197.25H195.74H194.22H192.71H191.2H189.69H189.46H187.95H186.43H184.92H183.41H181.9H180.39H178.88H177.37H175.85H174.34H172.83H171.32H169.81H168.3H166.78H165.27H163.76H162.25H160.74H159.23H157.71H156.2H154.69H153.18H152.96H151.45H149.93H148.42H146.91H145.4H143.89H142.38H140.87H139.35H137.84H136.33H134.82H133.31H131.8H130.28H128.77H127.26H125.75H124.24H122.73H121.21H119.7H118.19H116.68V49.88H118.19H119.7H121.21H122.73H124.24H125.75H127.26H128.77H130.28H131.8H133.31H134.82H136.33H137.84H139.35H140.87H142.38H143.89H145.4H146.91H148.42H149.93H151.45H152.96H153.18H154.69H156.2H157.71H159.23H160.74H162.25H163.76H165.27H166.78H168.3H169.81H171.32H172.83H174.34H175.85H177.37H178.88H180.39H181.9H183.41H184.92H186.43H187.95H189.46H189.69H191.2H192.71H194.22H195.74H197.25H198.76H200.27H201.78H203.29H204.81H206.32H207.83H209.34H210.85H212.36H213.88H215.39H216.9H218.41H219.92H221.43H222.94H224.46H225.97H226.19H227.7H229.21H230.72H232.24H233.75H235.26H236.77H238.28H239.79H241.31H242.82H244.33H245.84H247.35H248.86H250.38H251.89H253.4H254.91H256.42H257.93H259.44H260.96H262.47H262.7H264.21H265.72H267.23H268.75H270.26H271.77H273.28H274.79H276.3H277.82H279.33H280.84H282.35H283.86H285.37H286.89H288.4H289.91H291.42H292.93H294.44H295.95H297.47H298.98H299.2H300.49H302H303.51H305.02H306.54H308.05H309.56H311.07H312.58H314.09H315.61H317.12H318.63H320.14H321.65H323.16H324.67H326.19H327.7H329.21H330.72H332.23H333.74H335.26H336.77H338.28H339.79H341.3H342.81H344.33H345.84H347.35H348.86H350.37H351.88H353.39H354.91H356.42H357.93V48.37V46.86V45.35V43.84H359.44H360.95H362.46H363.98V42.32V40.81V39.3V37.79V36.2801H365.49H367H368.51H370.02H371.53V34.77V33.25V31.74V30.23V28.72V27.21V25.7V24.1901V22.67V21.16V19.65H370.02Z" fill="white"/>
<path d="M113.66 6.05005H112.15H110.63H109.12H107.61H106.1H104.59H103.08H101.56H100.05H98.5401H97.0301H95.5201H94.0101H92.4901H90.9801H89.4701H87.9601H86.4501H84.9401H83.4301H81.9101H80.4001H78.8901H77.3801H75.8701H74.3601H72.8401H71.3301H69.8201H68.3101H66.8001H65.2901H63.7701H62.2601H60.7501H59.2401H57.7301H56.2201H54.7101H53.1901H51.6801H50.1701H48.6601H47.1501H45.6401H44.1201H42.6101H41.1001H39.5901H38.0801H36.5701H35.0501H33.5401H32.0301H30.5201H29.0101H27.5001H25.9901H24.4701H22.9601H21.4501H19.9401H18.4301V7.56005V9.07005V10.58V12.09H16.9201H15.4001H13.8901H12.3801V13.6V15.12V16.63V18.14V19.65H10.8701H9.36008H7.85007H6.33008H4.82007V21.16V22.67V24.1901V25.7V27.21V28.72V30.23V31.74V33.25V34.77V36.2801H6.33008H7.85007H9.36008H10.8701H12.3801V37.79V39.3V40.81V42.32V43.84H13.8901H15.4001H16.9201H18.4301V45.35V46.86V48.37V49.88H19.9401H21.4501H22.9601H24.4701H25.9901H27.5001H29.0101H30.5201H32.0301H33.5401H35.0501H36.5701H38.0801H39.5901H41.1001H42.6101H44.1201H45.6401H47.1501H48.6601H50.1701H51.6801H53.1901H54.7101H56.2201H57.7301H59.2401H60.7501H62.2601H63.7701H65.2901H66.8001H68.3101H69.8201H71.3301H72.8401H74.3601H75.8701H77.3801H78.8901H80.4001H81.9101H83.4301H84.9401H86.4501H87.9601H89.4701H90.9801H92.4901H94.0101H95.5201H97.0301H98.5401H100.05H101.56H103.08H104.59H106.1H107.61H109.12H110.63H112.15H113.66H115.17H116.68V6.05005H115.17H113.66Z" fill="white"/>
<path d="M377.58 16.63V15.12V13.6H376.07H374.56H373.05H371.53V12.09V10.58V9.07H370.02V7.56V6.05H368.51H367H365.49V4.53V3.02H363.98V1.51V0H362.46H360.95H359.44H357.93H356.42H354.91H353.39H351.88H350.37H348.86H347.35H345.84H344.33H342.81H341.3H339.79H338.28H336.77H335.26H333.74H332.23H330.72H329.21H327.7H326.19H324.67H323.16H321.65H320.14H318.63H317.12H315.61H314.09H312.58H311.07H309.56H308.05H306.54H305.02H303.51H302H300.49H299.2H298.98H297.47H295.95H294.44H292.93H291.42H289.91H288.4H286.89H285.37H283.86H282.35H280.84H279.33H277.82H276.3H274.79H273.28H271.77H270.26H268.75H267.23H265.72H264.21H262.7H262.47H260.96H259.44H257.93H256.42H254.91H253.4H251.89H250.38H248.86H247.35H245.84H244.33H242.82H241.31H239.79H238.28H236.77H235.26H233.75H232.24H230.72H229.21H227.7H226.19H225.97H224.46H222.94H221.43H219.92H218.41H216.9H215.39H213.88H212.36H210.85H209.34H207.83H206.32H204.81H203.29H201.78H200.27H198.76H197.25H195.74H194.22H192.71H191.2H189.69H189.46H187.95H186.43H184.92H183.41H181.9H180.39H178.88H177.37H175.85H174.34H172.83H171.32H169.81H168.3H166.78H165.27H163.76H162.25H160.74H159.23H157.71H156.2H154.69H153.18H152.96H151.45H149.93H148.42H146.91H145.4H143.89H142.38H140.87H139.35H137.84H136.33H134.82H133.31H131.8H130.28H128.77H127.26H125.75H124.24H122.73H121.21H119.7H118.19H116.68V3.02H118.19H119.7H121.21H122.73H124.24H125.75H127.26H128.77H130.28H131.8H133.31H134.82H136.33H137.84H139.35H140.87H142.38H143.89H145.4H146.91H148.42H149.93H151.45H152.96H153.18H154.69H156.2H157.71H159.23H160.74H162.25H163.76H165.27H166.78H168.3H169.81H171.32H172.83H174.34H175.85H177.37H178.88H180.39H181.9H183.41H184.92H186.43H187.95H189.46H189.69H191.2H192.71H194.22H195.74H197.25H198.76H200.27H201.78H203.29H204.81H206.32H207.83H209.34H210.85H212.36H213.88H215.39H216.9H218.41H219.92H221.43H222.94H224.46H225.97H226.19H227.7H229.21H230.72H232.24H233.75H235.26H236.77H238.28H239.79H241.31H242.82H244.33H245.84H247.35H248.86H250.38H251.89H253.4H254.91H256.42H257.93H259.44H260.96H262.47H262.7H264.21H265.72H267.23H268.75H270.26H271.77H273.28H274.79H276.3H277.82H279.33H280.84H282.35H283.86H285.37H286.89H288.4H289.91H291.42H292.93H294.44H295.95H297.47H298.98H299.2H300.49H302H303.51H305.02H306.54H308.05H309.56H311.07H312.58H314.09H315.61H317.12H318.63H320.14H321.65H323.16H324.67H326.19H327.7H329.21H330.72H332.23H333.74H335.26H336.77H338.28H339.79H341.3H342.81H344.33H345.84H347.35H348.86H350.37H351.88H353.39H354.91H356.42H357.93H359.44H360.95V4.53V6.05V7.56V9.07H362.46H363.98H365.49H367V10.58H368.51V12.09V13.6V15.12H370.02H371.53H373.05V16.63H374.56V18.14V19.65H376.07V21.16V22.67V24.19V25.7V27.21V28.72V30.23V31.74V33.25V34.77V36.28V37.79V39.3V40.81V42.32H374.56H373.05H371.53H370.02H368.51V43.84V45.35V46.86V48.37H367H365.49H363.98H362.46V49.88V51.39V52.91V54.42V55.93H360.95H359.44H357.93H356.42H354.91H353.39H351.88H350.37H348.86H347.35H345.84H344.33H342.81H341.3H339.79H338.28H336.77H335.26H333.74H332.23H330.72H329.21H327.7H326.19H324.67H323.16H321.65H320.14H318.63H317.12H315.61H314.09H312.58H311.07H309.56H308.05H306.54H305.02H303.51H302H300.49H299.2H298.98H297.47H295.95H294.44H292.93H291.42H289.91H288.4H286.89H285.37H283.86H282.35H280.84H279.33H277.82H276.3H274.79H273.28H271.77H270.26H268.75H267.23H265.72H264.21H262.7H262.47H260.96H259.44H257.93H256.42H254.91H253.4H251.89H250.38H248.86H247.35H245.84H244.33H242.82H241.31H239.79H238.28H236.77H235.26H233.75H232.24H230.72H229.21H227.7H226.19H225.97H224.46H222.94H221.43H219.92H218.41H216.9H215.39H213.88H212.36H210.85H209.34H207.83H206.32H204.81H203.29H201.78H200.27H198.76H197.25H195.74H194.22H192.71H191.2H189.69H189.46H187.95H186.43H184.92H183.41H181.9H180.39H178.88H177.37H175.85H174.34H172.83H171.32H169.81H168.3H166.78H165.27H163.76H162.25H160.74H159.23H157.71H156.2H154.69H153.18H152.96H151.45H149.93H148.42H146.91H145.4H143.89H142.38H140.87H139.35H137.84H136.33H134.82H133.31H131.8H130.28H128.77H127.26H125.75H124.24H122.73H121.21H119.7H118.19H116.68V58.95H118.19H119.7H121.21H122.73H124.24H125.75H127.26H128.77H130.28H131.8H133.31H134.82H136.33H137.84H139.35H140.87H142.38H143.89H145.4H146.91H148.42H149.93H151.45H152.96H153.18H154.69H156.2H157.71H159.23H160.74H162.25H163.76H165.27H166.78H168.3H169.81H171.32H172.83H174.34H175.85H177.37H178.88H180.39H181.9H183.41H184.92H186.43H187.95H189.46H189.69H191.2H192.71H194.22H195.74H197.25H198.76H200.27H201.78H203.29H204.81H206.32H207.83H209.34H210.85H212.36H213.88H215.39H216.9H218.41H219.92H221.43H222.94H224.46H225.97H226.19H227.7H229.21H230.72H232.24H233.75H235.26H236.77H238.28H239.79H241.31H242.82H244.33H245.84H247.35H248.86H250.38H251.89H253.4H254.91H256.42H257.93H259.44H260.96H262.47H262.7H264.21H265.72H267.23H268.75H270.26H271.77H273.28H274.79H276.3H277.82H279.33H280.84H282.35H283.86H285.37H286.89H288.4H289.91H291.42H292.93H294.44H295.95H297.47H298.98H299.2H300.49H302H303.51H305.02H306.54H308.05H309.56H311.07H312.58H314.09H315.61H317.12H318.63H320.14H321.65H323.16H324.67H326.19H327.7H329.21H330.72H332.23H333.74H335.26H336.77H338.28H339.79H341.3H342.81H344.33H345.84H347.35H348.86H350.37H351.88H353.39H354.91H356.42H357.93H359.44H360.95H362.46H363.98H365.49V57.44V55.93V54.42V52.91H367H368.51H370.02H371.53V51.39V49.88V48.37V46.86V45.35H373.05H374.56H376.07H377.58H379.09V43.84V42.32V40.81V39.3V37.79V36.28V34.77V33.25V31.74V30.23V28.72V27.21V25.7V24.19V22.67V21.16V19.65V18.14V16.63H377.58Z" fill="white"/>
<path d="M113.66 0H112.15H110.63H109.12H107.61H106.1H104.59H103.08H101.56H100.05H98.54H97.03H95.5201H94.01H92.4901H90.98H89.47H87.9601H86.45H84.94H83.4301H81.91H80.4H78.89H77.38H75.87H74.36H72.84H71.33H69.82H68.31H66.8H65.29H63.7701H62.26H60.75H59.2401H57.73H56.22H54.7101H53.19H51.6801H50.17H48.66H47.15H45.64H44.12H42.61H41.1H39.59H38.08H36.57H35.05H33.54H32.03H30.5201H29.01H27.5H25.9901H24.47H22.9601H21.45H19.94H18.4301H16.92H15.4H13.89H12.38V1.51V3.02V4.53V6.05H10.87H9.36005H7.85004H6.33005V7.56V9.07V10.58V12.09V13.6H4.82004H3.31003H1.80005H0.290039V15.12V16.63V18.14V19.65V21.16V22.67V24.19V25.7V27.21V28.72V30.23V31.74V33.25V34.77V36.28V37.79V39.3V40.81V42.32H1.80005V43.84V45.35H3.31003H4.82004H6.33005V46.86V48.37V49.88H7.85004V51.39V52.91H9.36005H10.87H12.38V54.42V55.93H13.89H15.4V57.44V58.95H16.92H18.4301H19.94H21.45H22.9601H24.47H25.9901H27.5H29.01H30.5201H32.03H33.54H35.05H36.57H38.08H39.59H41.1H42.61H44.12H45.64H47.15H48.66H50.17H51.6801H53.19H54.7101H56.22H57.73H59.2401H60.75H62.26H63.7701H65.29H66.8H68.31H69.82H71.33H72.84H74.36H75.87H77.38H78.89H80.4H81.91H83.4301H84.94H86.45H87.9601H89.47H90.98H92.4901H94.01H95.5201H97.03H98.54H100.05H101.56H103.08H104.59H106.1H107.61H109.12H110.63H112.15H113.66H115.17H116.68V55.93H115.17H113.66H112.15H110.63H109.12H107.61H106.1H104.59H103.08H101.56H100.05H98.54H97.03H95.5201H94.01H92.4901H90.98H89.47H87.9601H86.45H84.94H83.4301H81.91H80.4H78.89H77.38H75.87H74.36H72.84H71.33H69.82H68.31H66.8H65.29H63.7701H62.26H60.75H59.2401H57.73H56.22H54.7101H53.19H51.6801H50.17H48.66H47.15H45.64H44.12H42.61H41.1H39.59H38.08H36.57H35.05H33.54H32.03H30.5201H29.01H27.5H25.9901H24.47H22.9601H21.45H19.94H18.4301V54.42V52.91H16.92H15.4V51.39V49.88H13.89H12.38H10.87V48.37V46.86H9.36005V45.35V43.84V42.32H7.85004H6.33005H4.82004V40.81V39.3H3.31003V37.79V36.28V34.77V33.25V31.74V30.23V28.72V27.21V25.7V24.19V22.67V21.16V19.65V18.14V16.63H4.82004H6.33005H7.85004H9.36005V15.12V13.6V12.09V10.58V9.07H10.87H12.38H13.89H15.4V7.56V6.05V4.53V3.02H16.92H18.4301H19.94H21.45H22.9601H24.47H25.9901H27.5H29.01H30.5201H32.03H33.54H35.05H36.57H38.08H39.59H41.1H42.61H44.12H45.64H47.15H48.66H50.17H51.6801H53.19H54.7101H56.22H57.73H59.2401H60.75H62.26H63.7701H65.29H66.8H68.31H69.82H71.33H72.84H74.36H75.87H77.38H78.89H80.4H81.91H83.4301H84.94H86.45H87.9601H89.47H90.98H92.4901H94.01H95.5201H97.03H98.54H100.05H101.56H103.08H104.59H106.1H107.61H109.12H110.63H112.15H113.66H115.17H116.68V0H115.17H113.66Z" fill="white"/>
<path d="M300.49 6.05002H302H303.51H305.02H306.54H308.05H309.56H311.07H312.58H314.09H315.61H317.12H318.63H320.14H321.65H323.16H324.67H326.19H327.7H329.21H330.72H332.23H333.74H335.26H336.77H338.28H339.79H341.3H342.81H344.33H345.84H347.35H348.86H350.37H351.88H353.39H354.91H356.42H357.93V7.56002V9.07002V10.58V12.09H359.44H360.95H362.46H363.98V13.6V15.12V16.63V18.14V19.65H365.49H367H368.51H370.02H371.53V21.16V22.67V24.19V25.7V27.21V28.72V30.23V31.74V33.25V34.77V36.28H370.02H368.51H367H365.49H363.98V37.79V39.3V40.81V42.32V43.84H362.46H360.95H359.44H357.93V45.35V46.86V48.37V49.88H356.42H354.91H353.39H351.88H350.37H348.86H347.35H345.84H344.33H342.81H341.3H339.79H338.28H336.77H335.26H333.74H332.23H330.72H329.21H327.7H326.19H324.67H323.16H321.65H320.14H318.63H317.12H315.61H314.09H312.58H311.07H309.56H308.05H306.54H305.02H303.51H302H300.49H299.2V55.93H300.49H302H303.51H305.02H306.54H308.05H309.56H311.07H312.58H314.09H315.61H317.12H318.63H320.14H321.65H323.16H324.67H326.19H327.7H329.21H330.72H332.23H333.74H335.26H336.77H338.28H339.79H341.3H342.81H344.33H345.84H347.35H348.86H350.37H351.88H353.39H354.91H356.42H357.93H359.44H360.95H362.46V54.42V52.91V51.39V49.88V48.37H363.98H365.49H367H368.51V46.86V45.35V43.84V42.32H370.02H371.53H373.05H374.56H376.07V40.81V39.3V37.79V36.28V34.77V33.25V31.74V30.23V28.72V27.21V25.7V24.19V22.67V21.16V19.65H374.56V18.14V16.63H373.05V15.12H371.53H370.02H368.51V13.6V12.09V10.58H367V9.07002H365.49H363.98H362.46H360.95V7.56002V6.05002V4.53002V3.02002H359.44H357.93H356.42H354.91H353.39H351.88H350.37H348.86H347.35H345.84H344.33H342.81H341.3H339.79H338.28H336.77H335.26H333.74H332.23H330.72H329.21H327.7H326.19H324.67H323.16H321.65H320.14H318.63H317.12H315.61H314.09H312.58H311.07H309.56H308.05H306.54H305.02H303.51H302H300.49H299.2V6.05002H300.49Z" fill="#1D1D1B"/>
<path d="M113.66 3.02002H112.15H110.63H109.12H107.61H106.1H104.59H103.08H101.56H100.05H98.5401H97.0301H95.5201H94.0101H92.4901H90.9801H89.4701H87.9601H86.4501H84.9401H83.4301H81.9101H80.4001H78.8901H77.3801H75.8701H74.3601H72.8401H71.3301H69.8201H68.3101H66.8001H65.2901H63.7701H62.2601H60.7501H59.2401H57.7301H56.2201H54.7101H53.1901H51.6801H50.1701H48.6601H47.1501H45.6401H44.1201H42.6101H41.1001H39.5901H38.0801H36.5701H35.0501H33.5401H32.0301H30.5201H29.0101H27.5001H25.9901H24.4701H22.9601H21.4501H19.9401H18.4301H16.9201H15.4001V4.53002V6.05002V7.56002V9.07002H13.8901H12.3801H10.8701H9.36008V10.58V12.09V13.6V15.12V16.63H7.85007H6.33008H4.82007H3.31006V18.14V19.65V21.16V22.67V24.19V25.7V27.21V28.72V30.23V31.74V33.25V34.77V36.28V37.79V39.3H4.82007V40.81V42.32H6.33008H7.85007H9.36008V43.84V45.35V46.86H10.8701V48.37V49.88H12.3801H13.8901H15.4001V51.39V52.91H16.9201H18.4301V54.42V55.93H19.9401H21.4501H22.9601H24.4701H25.9901H27.5001H29.0101H30.5201H32.0301H33.5401H35.0501H36.5701H38.0801H39.5901H41.1001H42.6101H44.1201H45.6401H47.1501H48.6601H50.1701H51.6801H53.1901H54.7101H56.2201H57.7301H59.2401H60.7501H62.2601H63.7701H65.2901H66.8001H68.3101H69.8201H71.3301H72.8401H74.3601H75.8701H77.3801H78.8901H80.4001H81.9101H83.4301H84.9401H86.4501H87.9601H89.4701H90.9801H92.4901H94.0101H95.5201H97.0301H98.5401H100.05H101.56H103.08H104.59H106.1H107.61H109.12H110.63H112.15H113.66H115.17H116.68V49.88H115.17H113.66H112.15H110.63H109.12H107.61H106.1H104.59H103.08H101.56H100.05H98.5401H97.0301H95.5201H94.0101H92.4901H90.9801H89.4701H87.9601H86.4501H84.9401H83.4301H81.9101H80.4001H78.8901H77.3801H75.8701H74.3601H72.8401H71.3301H69.8201H68.3101H66.8001H65.2901H63.7701H62.2601H60.7501H59.2401H57.7301H56.2201H54.7101H53.1901H51.6801H50.1701H48.6601H47.1501H45.6401H44.1201H42.6101H41.1001H39.5901H38.0801H36.5701H35.0501H33.5401H32.0301H30.5201H29.0101H27.5001H25.9901H24.4701H22.9601H21.4501H19.9401H18.4301V48.37V46.86V45.35V43.84H16.9201H15.4001H13.8901H12.3801V42.32V40.81V39.3V37.79V36.28H10.8701H9.36008H7.85007H6.33008H4.82007V34.77V33.25V31.74V30.23V28.72V27.21V25.7V24.19V22.67V21.16V19.65H6.33008H7.85007H9.36008H10.8701H12.3801V18.14V16.63V15.12V13.6V12.09H13.8901H15.4001H16.9201H18.4301V10.58V9.07002V7.56002V6.05002H19.9401H21.4501H22.9601H24.4701H25.9901H27.5001H29.0101H30.5201H32.0301H33.5401H35.0501H36.5701H38.0801H39.5901H41.1001H42.6101H44.1201H45.6401H47.1501H48.6601H50.1701H51.6801H53.1901H54.7101H56.2201H57.7301H59.2401H60.7501H62.2601H63.7701H65.2901H66.8001H68.3101H69.8201H71.3301H72.8401H74.3601H75.8701H77.3801H78.8901H80.4001H81.9101H83.4301H84.9401H86.4501H87.9601H89.4701H90.9801H92.4901H94.0101H95.5201H97.0301H98.5401H100.05H101.56H103.08H104.59H106.1H107.61H109.12H110.63H112.15H113.66H115.17H116.68V3.02002H115.17H113.66Z" fill="#1D1D1B"/>
<path d="M119.7 55.93H121.21H122.73H124.24H125.75H127.26H128.77H130.28H131.8H133.31H134.82H136.33H137.84H139.35H140.87H142.38H143.89H145.4H146.91H148.42H149.93H151.45H152.96H153.18V49.88H152.96H151.45H149.93H148.42H146.91H145.4H143.89H142.38H140.87H139.35H137.84H136.33H134.82H133.31H131.8H130.28H128.77H127.26H125.75H124.24H122.73H121.21H119.7H118.19H116.68V55.93H118.19H119.7Z" fill="#1D1D1B"/>
<path d="M119.7 6.05002H121.21H122.73H124.24H125.75H127.26H128.77H130.28H131.8H133.31H134.82H136.33H137.84H139.35H140.87H142.38H143.89H145.4H146.91H148.42H149.93H151.45H152.96H153.18V3.02002H152.96H151.45H149.93H148.42H146.91H145.4H143.89H142.38H140.87H139.35H137.84H136.33H134.82H133.31H131.8H130.28H128.77H127.26H125.75H124.24H122.73H121.21H119.7H118.19H116.68V6.05002H118.19H119.7Z" fill="#1D1D1B"/>
<path d="M156.2 55.93H157.71H159.23H160.74H162.25H163.76H165.27H166.78H168.3H169.81H171.32H172.83H174.34H175.85H177.37H178.88H180.39H181.9H183.41H184.92H186.43H187.95H189.46H189.69V49.88H189.46H187.95H186.43H184.92H183.41H181.9H180.39H178.88H177.37H175.85H174.34H172.83H171.32H169.81H168.3H166.78H165.27H163.76H162.25H160.74H159.23H157.71H156.2H154.69H153.18V55.93H154.69H156.2Z" fill="#1D1D1B"/>
<path d="M156.2 6.05002H157.71H159.23H160.74H162.25H163.76H165.27H166.78H168.3H169.81H171.32H172.83H174.34H175.85H177.37H178.88H180.39H181.9H183.41H184.92H186.43H187.95H189.46H189.69V3.02002H189.46H187.95H186.43H184.92H183.41H181.9H180.39H178.88H177.37H175.85H174.34H172.83H171.32H169.81H168.3H166.78H165.27H163.76H162.25H160.74H159.23H157.71H156.2H154.69H153.18V6.05002H154.69H156.2Z" fill="#1D1D1B"/>
<path d="M192.71 55.93H194.22H195.74H197.25H198.76H200.27H201.78H203.29H204.81H206.32H207.83H209.34H210.85H212.36H213.88H215.39H216.9H218.41H219.92H221.43H222.94H224.46H225.97H226.19V49.88H225.97H224.46H222.94H221.43H219.92H218.41H216.9H215.39H213.88H212.36H210.85H209.34H207.83H206.32H204.81H203.29H201.78H200.27H198.76H197.25H195.74H194.22H192.71H191.2H189.69V55.93H191.2H192.71Z" fill="#1D1D1B"/>
<path d="M192.71 6.05002H194.22H195.74H197.25H198.76H200.27H201.78H203.29H204.81H206.32H207.83H209.34H210.85H212.36H213.88H215.39H216.9H218.41H219.92H221.43H222.94H224.46H225.97H226.19V3.02002H225.97H224.46H222.94H221.43H219.92H218.41H216.9H215.39H213.88H212.36H210.85H209.34H207.83H206.32H204.81H203.29H201.78H200.27H198.76H197.25H195.74H194.22H192.71H191.2H189.69V6.05002H191.2H192.71Z" fill="#1D1D1B"/>
<path d="M229.21 55.93H230.72H232.24H233.75H235.26H236.77H238.28H239.79H241.31H242.82H244.33H245.84H247.35H248.86H250.38H251.89H253.4H254.91H256.42H257.93H259.44H260.96H262.47H262.7V49.88H262.47H260.96H259.44H257.93H256.42H254.91H253.4H251.89H250.38H248.86H247.35H245.84H244.33H242.82H241.31H239.79H238.28H236.77H235.26H233.75H232.24H230.72H229.21H227.7H226.19V55.93H227.7H229.21Z" fill="#1D1D1B"/>
<path d="M229.21 6.05002H230.72H232.24H233.75H235.26H236.77H238.28H239.79H241.31H242.82H244.33H245.84H247.35H248.86H250.38H251.89H253.4H254.91H256.42H257.93H259.44H260.96H262.47H262.7V3.02002H262.47H260.96H259.44H257.93H256.42H254.91H253.4H251.89H250.38H248.86H247.35H245.84H244.33H242.82H241.31H239.79H238.28H236.77H235.26H233.75H232.24H230.72H229.21H227.7H226.19V6.05002H227.7H229.21Z" fill="#1D1D1B"/>
<path d="M265.72 55.93H267.23H268.75H270.26H271.77H273.28H274.79H276.3H277.82H279.33H280.84H282.35H283.86H285.37H286.89H288.4H289.91H291.42H292.93H294.44H295.95H297.47H298.98H299.2V49.88H298.98H297.47H295.95H294.44H292.93H291.42H289.91H288.4H286.89H285.37H283.86H282.35H280.84H279.33H277.82H276.3H274.79H273.28H271.77H270.26H268.75H267.23H265.72H264.21H262.7V55.93H264.21H265.72Z" fill="#1D1D1B"/>
<path d="M265.72 6.05002H267.23H268.75H270.26H271.77H273.28H274.79H276.3H277.82H279.33H280.84H282.35H283.86H285.37H286.89H288.4H289.91H291.42H292.93H294.44H295.95H297.47H298.98H299.2V3.02002H298.98H297.47H295.95H294.44H292.93H291.42H289.91H288.4H286.89H285.37H283.86H282.35H280.84H279.33H277.82H276.3H274.79H273.28H271.77H270.26H268.75H267.23H265.72H264.21H262.7V6.05002H264.21H265.72Z" fill="#1D1D1B"/>
</svg>
