<svg width="26" height="26" viewBox="0 0 26 26" fill="none" xmlns="http://www.w3.org/2000/svg">
<g clip-path="url(#clip0_346_910)">
<path d="M24.6314 8.21164V6.84303V5.47442H23.2628V4.10582H21.8942V2.73721H20.5256V1.36861H19.157H17.7884V0H16.4198H15.0511H13.6825H12.3139H10.9453H9.58024H8.21164V1.36861H6.84303H5.47442V2.73721H4.10582V4.10582H2.73721V5.47442H1.36861V6.84303V8.21164H0V9.58024V10.9488V12.3139V13.6825V15.0511V16.4198V17.7884H1.36861V19.157V20.5256H2.73721V21.8942H4.10582V23.2628H5.47442V24.6314H6.84303H8.21164V26H9.58024H10.9453H12.3139H13.6825H15.0511H16.4198H17.7884V24.6314H19.157H20.5256V23.2628H21.8942V21.8942H23.2628V20.5256H24.6314V19.157V17.7884H26V16.4198V15.0511V13.6825V12.3139V10.9488V9.58024V8.21164H24.6314Z" fill="#1D1D1B"/>
<g clip-path="url(#clip1_346_910)">
<path d="M15.1287 12.9999V12.4678V11.9356H15.6609V11.4034H16.193V10.8713V10.3391H16.7252V9.80694V9.27478H17.2574V8.74261H17.7895V8.21045H17.2574H16.7252H16.193H15.6609H15.1287H14.5965V8.74261H14.0644V9.27478V9.80694H13.5322V10.3391V10.8713V11.4034H13H12.4679V10.8713V10.3391V9.80694H11.9357V9.27478V8.74261H11.4036V8.21045H10.8714H10.3392H9.80706H9.2749H8.74274H8.21057V8.74261H8.74274V9.27478H9.2749V9.80694V10.3391H9.80706V10.8713V11.4034H10.3392V11.9356H10.8714V12.4678V12.9999V13.5321V14.0643H10.3392V14.5964H9.80706V15.1286V15.6607H9.2749V16.1929V16.7251H8.74274V17.2572H8.21057V17.7894H8.74274H9.2749H9.80706H10.3392H10.8714H11.4036V17.2572H11.9357V16.7251V16.1929H12.4679V15.6607V15.1286V14.5964H13H13.5322V15.1286V15.6607V16.1929H14.0644V16.7251V17.2572H14.5965V17.7894H15.1287H15.6609H16.193H16.7252H17.2574H17.7895V17.2572H17.2574V16.7251H16.7252V16.1929V15.6607H16.193V15.1286V14.5964H15.6609V14.0643H15.1287V13.5321V12.9999Z" fill="white"/>
</g>
</g>
<defs>
<clipPath id="clip0_346_910">
<rect width="26" height="26" fill="white"/>
</clipPath>
<clipPath id="clip1_346_910">
<rect width="9.57895" height="9.57895" fill="white" transform="translate(8.21057 8.21045)"/>
</clipPath>
</defs>
</svg>
