<svg width="14" height="14" viewBox="0 0 14 14" fill="none" xmlns="http://www.w3.org/2000/svg">
<path d="M10.1111 7V6.22222V5.44444H10.8889V4.66667H11.6667V3.88889V3.11111H12.4444V2.33333V1.55556H13.2222V0.777778H14V0H13.2222H12.4444H11.6667H10.8889H10.1111H9.33333V0.777778H8.55556V1.55556V2.33333H7.77778V3.11111V3.88889V4.66667H7H6.22222V3.88889V3.11111V2.33333H5.44444V1.55556V0.777778H4.66667V0H3.88889H3.11111H2.33333H1.55556H0.777778H0V0.777778H0.777778V1.55556H1.55556V2.33333V3.11111H2.33333V3.88889V4.66667H3.11111V5.44444H3.88889V6.22222V7V7.77778V8.55556H3.11111V9.33333H2.33333V10.1111V10.8889H1.55556V11.6667V12.4444H0.777778V13.2222H0V14H0.777778H1.55556H2.33333H3.11111H3.88889H4.66667V13.2222H5.44444V12.4444V11.6667H6.22222V10.8889V10.1111V9.33333H7H7.77778V10.1111V10.8889V11.6667H8.55556V12.4444V13.2222H9.33333V14H10.1111H10.8889H11.6667H12.4444H13.2222H14V13.2222H13.2222V12.4444H12.4444V11.6667V10.8889H11.6667V10.1111V9.33333H10.8889V8.55556H10.1111V7.77778V7Z" fill="white"/>
</svg>
