<svg width="161" height="198" viewBox="0 0 161 198" fill="none" xmlns="http://www.w3.org/2000/svg">
<g clip-path="url(#clip0_334_7406)">
<path d="M161 61.8713H154.812V68.061H161V61.8713Z" fill="black"/>
<path d="M154.812 61.8713H148.617V68.061H154.812V61.8713Z" fill="black"/>
<path d="M161 55.6816H154.812V61.8713H161V55.6816Z" fill="black"/>
<path d="M154.812 55.6816H148.617V61.8713H154.812V55.6816Z" fill="black"/>
<path d="M161 49.4984H154.812V55.6817H161V49.4984Z" fill="black"/>
<path d="M161 43.3087H154.812V49.4984H161V43.3087Z" fill="black"/>
<path d="M161 37.119H154.812V43.3087H161V37.119Z" fill="black"/>
<path d="M161 30.9357H154.812V37.119H161V30.9357Z" fill="black"/>
<path d="M154.812 49.4984H148.617V55.6817H154.812V49.4984Z" fill="black"/>
<path d="M154.812 43.3087H148.617V49.4984H154.812V43.3087Z" fill="black"/>
<path d="M154.812 37.119H148.617V43.3087H154.812V37.119Z" fill="black"/>
<path d="M154.812 30.9357H148.617V37.119H154.812V30.9357Z" fill="black"/>
<path d="M154.812 24.746H148.617V30.9357H154.812V24.746Z" fill="black"/>
<path d="M154.812 18.5563H148.617V24.746H154.812V18.5563Z" fill="black"/>
<path d="M148.617 24.746H142.423V30.9357H148.617V24.746Z" fill="black"/>
<path d="M148.617 18.5563H142.423V24.746H148.617V18.5563Z" fill="black"/>
<path d="M142.423 18.5563H136.235V24.746H142.423V18.5563Z" fill="black"/>
<path d="M142.423 12.373H136.235V18.5563H142.423V12.373Z" fill="black"/>
<path d="M136.228 18.5563H130.034V24.746H136.228V18.5563Z" fill="black"/>
<path d="M136.228 12.373H130.034V18.5563H136.228V12.373Z" fill="black"/>
<path d="M130.04 18.5563H123.845V24.746H130.04V18.5563Z" fill="black"/>
<path d="M130.04 12.373H123.845V18.5563H130.04V12.373Z" fill="black"/>
<path d="M123.846 30.9357H117.657V37.119H123.846V30.9357Z" fill="black"/>
<path d="M123.846 18.5563H117.657V24.746H123.846V18.5563Z" fill="black"/>
<path d="M123.846 12.373H117.657V18.5563H123.846V12.373Z" fill="black"/>
<path d="M123.846 0H117.657V6.18329H123.846V0Z" fill="black"/>
<path d="M117.651 30.9357H111.457V37.119H117.651V30.9357Z" fill="black"/>
<path d="M117.651 24.746H111.457V30.9357H117.651V24.746Z" fill="black"/>
<path d="M117.651 18.5563H111.457V24.746H117.651V18.5563Z" fill="black"/>
<path d="M117.651 12.373H111.457V18.5563H117.651V12.373Z" fill="black"/>
<path d="M117.651 6.18323H111.457V12.3729H117.651V6.18323Z" fill="black"/>
<path d="M117.651 0H111.457V6.18329H117.651V0Z" fill="black"/>
<path d="M111.463 24.746H105.275V30.9357H111.463V24.746Z" fill="black"/>
<path d="M111.463 18.5563H105.275V24.746H111.463V18.5563Z" fill="black"/>
<path d="M111.463 12.373H105.275V18.5563H111.463V12.373Z" fill="black"/>
<path d="M111.463 6.18323H105.275V12.3729H111.463V6.18323Z" fill="black"/>
<path d="M105.275 24.746H99.0803V30.9357H105.275V24.746Z" fill="black"/>
<path d="M105.275 18.5563H99.0803V24.746H105.275V18.5563Z" fill="black"/>
<path d="M105.275 12.373H99.0803V18.5563H105.275V12.373Z" fill="black"/>
<path d="M99.0803 18.5563H92.8857V24.746H99.0803V18.5563Z" fill="black"/>
<path d="M6.18811 129.939H0V136.129H6.18811V129.939Z" fill="black"/>
<path d="M12.3825 129.939H6.18799V136.129H12.3825V129.939Z" fill="black"/>
<path d="M6.18811 136.129H0V142.318H6.18811V136.129Z" fill="black"/>
<path d="M12.3825 136.129H6.18799V142.318H12.3825V136.129Z" fill="black"/>
<path d="M6.18811 142.318H0V148.502H6.18811V142.318Z" fill="black"/>
<path d="M6.18811 148.502H0V154.691H6.18811V148.502Z" fill="black"/>
<path d="M6.18811 154.691H0V160.881H6.18811V154.691Z" fill="black"/>
<path d="M6.18811 160.881H0V167.064H6.18811V160.881Z" fill="black"/>
<path d="M12.3825 142.318H6.18799V148.502H12.3825V142.318Z" fill="black"/>
<path d="M12.3825 148.502H6.18799V154.691H12.3825V148.502Z" fill="black"/>
<path d="M12.3825 154.691H6.18799V160.881H12.3825V154.691Z" fill="black"/>
<path d="M12.3825 160.881H6.18799V167.064H12.3825V160.881Z" fill="black"/>
<path d="M12.3825 167.064H6.18799V173.254H12.3825V167.064Z" fill="black"/>
<path d="M12.3825 173.254H6.18799V179.444H12.3825V173.254Z" fill="black"/>
<path d="M18.5771 167.064H12.3826V173.254H18.5771V167.064Z" fill="black"/>
<path d="M18.5771 173.254H12.3826V179.444H18.5771V173.254Z" fill="black"/>
<path d="M24.7653 173.254H18.5771V179.444H24.7653V173.254Z" fill="black"/>
<path d="M24.7653 179.444H18.5771V185.627H24.7653V179.444Z" fill="black"/>
<path d="M30.9599 173.254H24.7654V179.444H30.9599V173.254Z" fill="black"/>
<path d="M30.9599 179.444H24.7654V185.627H30.9599V179.444Z" fill="black"/>
<path d="M37.1542 173.254H30.9597V179.444H37.1542V173.254Z" fill="black"/>
<path d="M37.1542 179.444H30.9597V185.627H37.1542V179.444Z" fill="black"/>
<path d="M43.3424 160.881H37.1543V167.064H43.3424V160.881Z" fill="black"/>
<path d="M43.3424 173.254H37.1543V179.444H43.3424V173.254Z" fill="black"/>
<path d="M43.3424 179.444H37.1543V185.627H43.3424V179.444Z" fill="black"/>
<path d="M43.3424 191.817H37.1543V198H43.3424V191.817Z" fill="black"/>
<path d="M49.5371 160.881H43.3425V167.064H49.5371V160.881Z" fill="black"/>
<path d="M49.5371 167.064H43.3425V173.254H49.5371V167.064Z" fill="black"/>
<path d="M49.5371 173.254H43.3425V179.444H49.5371V173.254Z" fill="black"/>
<path d="M49.5371 179.444H43.3425V185.627H49.5371V179.444Z" fill="black"/>
<path d="M49.5371 185.627H43.3425V191.817H49.5371V185.627Z" fill="black"/>
<path d="M49.5371 191.817H43.3425V198H49.5371V191.817Z" fill="black"/>
<path d="M55.725 167.064H49.5369V173.254H55.725V167.064Z" fill="black"/>
<path d="M55.725 173.254H49.5369V179.444H55.725V173.254Z" fill="black"/>
<path d="M55.725 179.444H49.5369V185.627H55.725V179.444Z" fill="black"/>
<path d="M55.725 185.627H49.5369V191.817H55.725V185.627Z" fill="black"/>
<path d="M61.9196 167.064H55.7251V173.254H61.9196V167.064Z" fill="black"/>
<path d="M61.9196 173.254H55.7251V179.444H61.9196V173.254Z" fill="black"/>
<path d="M61.9196 179.444H55.7251V185.627H61.9196V179.444Z" fill="black"/>
<path d="M68.1142 173.254H61.9197V179.444H68.1142V173.254Z" fill="black"/>
<path d="M154.812 117.559H148.617V123.749H154.812V117.559Z" fill="black"/>
<path d="M154.812 111.37H148.617V117.559H154.812V111.37Z" fill="black"/>
<path d="M154.812 105.187H148.617V111.37H154.812V105.187Z" fill="black"/>
<path d="M148.617 123.749H142.423V129.932H148.617V123.749Z" fill="black"/>
<path d="M148.617 117.559H142.423V123.749H148.617V117.559Z" fill="#FF6A13"/>
<path d="M148.617 111.37H142.423V117.559H148.617V111.37Z" fill="#FF6A13"/>
<path d="M148.617 105.187H142.423V111.37H148.617V105.187Z" fill="#FF6A13"/>
<path d="M148.617 98.9968H142.423V105.187H148.617V98.9968Z" fill="black"/>
<path d="M142.423 129.932H136.235V136.122H142.423V129.932Z" fill="black"/>
<path d="M142.423 123.749H136.235V129.932H142.423V123.749Z" fill="#FF6A13"/>
<path d="M142.423 117.559H136.235V123.749H142.423V117.559Z" fill="#FF6A13"/>
<path d="M142.423 111.37H136.235V117.559H142.423V111.37Z" fill="#FF6A13"/>
<path d="M142.423 105.187H136.235V111.37H142.423V105.187Z" fill="#FF6A13"/>
<path d="M142.423 98.9968H136.235V105.187H142.423V98.9968Z" fill="#FF6A13"/>
<path d="M142.423 92.807H136.235V98.9967H142.423V92.807Z" fill="black"/>
<path d="M136.228 136.122H130.034V142.312H136.228V136.122Z" fill="black"/>
<path d="M136.228 129.932H130.034V136.122H136.228V129.932Z" fill="#FF6A13"/>
<path d="M136.228 123.749H130.034V129.932H136.228V123.749Z" fill="#FF6A13"/>
<path d="M136.228 98.9968H130.034V105.187H136.228V98.9968Z" fill="#FF6A13"/>
<path d="M136.228 92.807H130.034V98.9967H136.228V92.807Z" fill="#FF6A13"/>
<path d="M136.228 86.6238H130.034V92.8071H136.228V86.6238Z" fill="black"/>
<path d="M130.04 142.312H123.846V148.495H130.04V142.312Z" fill="black"/>
<path d="M130.04 136.122H123.846V142.312H130.04V136.122Z" fill="#FF6A13"/>
<path d="M130.04 129.932H123.846V136.122H130.04V129.932Z" fill="#FF6A13"/>
<path d="M130.04 92.807H123.846V98.9967H130.04V92.807Z" fill="#FF6A13"/>
<path d="M130.04 86.6238H123.846V92.8071H130.04V86.6238Z" fill="#FF6A13"/>
<path d="M130.04 80.4341H123.846V86.6238H130.04V80.4341Z" fill="black"/>
<path d="M123.846 148.495H117.658V154.685H123.846V148.495Z" fill="black"/>
<path d="M123.846 142.312H117.658V148.495H123.846V142.312Z" fill="#FF6A13"/>
<path d="M123.846 136.122H117.658V142.312H123.846V136.122Z" fill="#FF6A13"/>
<path d="M123.846 86.6238H117.658V92.8071H123.846V86.6238Z" fill="#FF6A13"/>
<path d="M123.846 80.4341H117.658V86.6238H123.846V80.4341Z" fill="#FF6A13"/>
<path d="M123.846 74.2444H117.658V80.4341H123.846V74.2444Z" fill="black"/>
<path d="M117.651 154.685H111.457V160.875H117.651V154.685Z" fill="black"/>
<path d="M117.651 148.495H111.457V154.685H117.651V148.495Z" fill="#FF6A13"/>
<path d="M117.651 142.312H111.457V148.495H117.651V142.312Z" fill="#FF6A13"/>
<path d="M117.651 80.4341H111.457V86.6238H117.651V80.4341Z" fill="#FF6A13"/>
<path d="M117.651 74.2444H111.457V80.4341H117.651V74.2444Z" fill="#FF6A13"/>
<path d="M117.651 68.061H111.457V74.2443H117.651V68.061Z" fill="black"/>
<path d="M111.463 160.875H105.275V167.058H111.463V160.875Z" fill="black"/>
<path d="M111.463 154.685H105.275V160.875H111.463V154.685Z" fill="#FF6A13"/>
<path d="M111.463 148.495H105.275V154.685H111.463V148.495Z" fill="#FF6A13"/>
<path d="M111.463 74.2444H105.275V80.4341H111.463V74.2444Z" fill="#FF6A13"/>
<path d="M111.463 68.061H105.275V74.2443H111.463V68.061Z" fill="#FF6A13"/>
<path d="M111.463 61.8713H105.275V68.061H111.463V61.8713Z" fill="black"/>
<path d="M105.275 167.058H99.0803V173.248H105.275V167.058Z" fill="black"/>
<path d="M105.275 160.875H99.0803V167.058H105.275V160.875Z" fill="#FF6A13"/>
<path d="M105.275 154.685H99.0803V160.875H105.275V154.685Z" fill="#FF6A13"/>
<path d="M105.275 68.061H99.0803V74.2443H105.275V68.061Z" fill="#FF6A13"/>
<path d="M105.275 61.8713H99.0803V68.061H105.275V61.8713Z" fill="#FF6A13"/>
<path d="M105.275 55.6816H99.0803V61.8713H105.275V55.6816Z" fill="black"/>
<path d="M99.0805 167.058H92.886V173.248H99.0805V167.058Z" fill="black"/>
<path d="M99.0805 160.875H92.886V167.058H99.0805V160.875Z" fill="#FF6A13"/>
<path d="M99.0805 154.685H92.886V160.875H99.0805V154.685Z" fill="#FF6A13"/>
<path d="M99.0805 61.8713H92.886V68.061H99.0805V61.8713Z" fill="#FF6A13"/>
<path d="M99.0805 55.6816H92.886V61.8713H99.0805V55.6816Z" fill="#FF6A13"/>
<path d="M99.0805 49.4984H92.886V55.6817H99.0805V49.4984Z" fill="black"/>
<path d="M92.8859 167.058H86.6978V173.248H92.8859V167.058Z" fill="black"/>
<path d="M92.8859 160.875H86.6978V167.058H92.8859V160.875Z" fill="#FF6A13"/>
<path d="M92.8859 154.685H86.6978V160.875H92.8859V154.685Z" fill="#FF6A13"/>
<path d="M92.8859 55.6816H86.6978V61.8713H92.8859V55.6816Z" fill="#FF6A13"/>
<path d="M92.8859 49.4984H86.6978V55.6817H92.8859V49.4984Z" fill="#FF6A13"/>
<path d="M92.8859 43.3087H86.6978V49.4984H92.8859V43.3087Z" fill="black"/>
<path d="M86.6977 160.875H80.5032V167.058H86.6977V160.875Z" fill="black"/>
<path d="M86.6977 154.685H80.5032V160.875H86.6977V154.685Z" fill="#FF6A13"/>
<path d="M86.6977 148.495H80.5032V154.685H86.6977V148.495Z" fill="#FF6A13"/>
<path d="M86.6977 49.4984H80.5032V55.6817H86.6977V49.4984Z" fill="#FF6A13"/>
<path d="M86.6977 43.3087H80.5032V49.4984H86.6977V43.3087Z" fill="#FF6A13"/>
<path d="M86.6977 37.119H80.5032V43.3087H86.6977V37.119Z" fill="black"/>
<path d="M80.5034 154.685H74.3088V160.875H80.5034V154.685Z" fill="black"/>
<path d="M80.5034 148.495H74.3088V154.685H80.5034V148.495Z" fill="#FF6A13"/>
<path d="M80.5034 142.312H74.3088V148.495H80.5034V142.312Z" fill="#FF6A13"/>
<path d="M80.5034 43.3087H74.3088V49.4984H80.5034V43.3087Z" fill="#FF6A13"/>
<path d="M80.5034 37.119H74.3088V43.3087H80.5034V37.119Z" fill="#FF6A13"/>
<path d="M80.5034 30.9357H74.3088V37.119H80.5034V30.9357Z" fill="black"/>
<path d="M74.3087 148.495H68.1206V154.685H74.3087V148.495Z" fill="black"/>
<path d="M74.3087 142.312H68.1206V148.495H74.3087V142.312Z" fill="#FF6A13"/>
<path d="M74.3087 136.122H68.1206V142.312H74.3087V136.122Z" fill="#FF6A13"/>
<path d="M74.3087 37.119H68.1206V43.3087H74.3087V37.119Z" fill="#FF6A13"/>
<path d="M74.3087 30.9357H68.1206V37.119H74.3087V30.9357Z" fill="#FF6A13"/>
<path d="M74.3087 24.746H68.1206V30.9357H74.3087V24.746Z" fill="black"/>
<path d="M68.1142 142.312H61.9197V148.495H68.1142V142.312Z" fill="black"/>
<path d="M68.1142 136.122H61.9197V142.312H68.1142V136.122Z" fill="#FF6A13"/>
<path d="M68.1142 129.932H61.9197V136.122H68.1142V129.932Z" fill="#FF6A13"/>
<path d="M68.1142 37.119H61.9197V43.3087H68.1142V37.119Z" fill="#FF6A13"/>
<path d="M68.1142 30.9357H61.9197V37.119H68.1142V30.9357Z" fill="#FF6A13"/>
<path d="M68.1142 24.746H61.9197V30.9357H68.1142V24.746Z" fill="black"/>
<path d="M61.926 136.122H55.7314V142.312H61.926V136.122Z" fill="black"/>
<path d="M61.926 129.932H55.7314V136.122H61.926V129.932Z" fill="#FF6A13"/>
<path d="M61.926 123.749H55.7314V129.932H61.926V123.749Z" fill="#FF6A13"/>
<path d="M61.926 37.119H55.7314V43.3087H61.926V37.119Z" fill="#FF6A13"/>
<path d="M61.926 30.9357H55.7314V37.119H61.926V30.9357Z" fill="#FF6A13"/>
<path d="M61.926 24.746H55.7314V30.9357H61.926V24.746Z" fill="black"/>
<path d="M55.7316 129.932H49.5435V136.122H55.7316V129.932Z" fill="black"/>
<path d="M55.7316 123.749H49.5435V129.932H55.7316V123.749Z" fill="#FF6A13"/>
<path d="M55.7316 117.559H49.5435V123.749H55.7316V117.559Z" fill="#FF6A13"/>
<path d="M55.7316 43.3087H49.5435V49.4984H55.7316V43.3087Z" fill="#FF6A13"/>
<path d="M55.7316 37.119H49.5435V43.3087H55.7316V37.119Z" fill="#FF6A13"/>
<path d="M55.7316 30.9357H49.5435V37.119H55.7316V30.9357Z" fill="black"/>
<path d="M49.5371 123.749H43.3425V129.932H49.5371V123.749Z" fill="black"/>
<path d="M49.5371 117.559H43.3425V123.749H49.5371V117.559Z" fill="#FF6A13"/>
<path d="M49.5371 111.37H43.3425V117.559H49.5371V111.37Z" fill="#FF6A13"/>
<path d="M49.5371 49.4984H43.3425V55.6817H49.5371V49.4984Z" fill="#FF6A13"/>
<path d="M49.5371 43.3087H43.3425V49.4984H49.5371V43.3087Z" fill="#FF6A13"/>
<path d="M49.5371 37.119H43.3425V43.3087H49.5371V37.119Z" fill="black"/>
<path d="M43.3488 117.559H37.1543V123.749H43.3488V117.559Z" fill="black"/>
<path d="M43.3488 111.37H37.1543V117.559H43.3488V111.37Z" fill="#FF6A13"/>
<path d="M43.3488 105.187H37.1543V111.37H43.3488V105.187Z" fill="#FF6A13"/>
<path d="M43.3488 55.6816H37.1543V61.8713H43.3488V55.6816Z" fill="#FF6A13"/>
<path d="M43.3488 49.4984H37.1543V55.6817H43.3488V49.4984Z" fill="#FF6A13"/>
<path d="M43.3488 43.3087H37.1543V49.4984H43.3488V43.3087Z" fill="black"/>
<path d="M37.1544 111.37H30.9663V117.559H37.1544V111.37Z" fill="black"/>
<path d="M37.1544 105.187H30.9663V111.37H37.1544V105.187Z" fill="#FF6A13"/>
<path d="M37.1544 98.9968H30.9663V105.187H37.1544V98.9968Z" fill="#FF6A13"/>
<path d="M37.1544 61.8713H30.9663V68.061H37.1544V61.8713Z" fill="#FF6A13"/>
<path d="M37.1544 55.6816H30.9663V61.8713H37.1544V55.6816Z" fill="#FF6A13"/>
<path d="M37.1544 49.4984H30.9663V55.6817H37.1544V49.4984Z" fill="black"/>
<path d="M30.9663 105.187H24.7717V111.37H30.9663V105.187Z" fill="black"/>
<path d="M30.9663 98.9968H24.7717V105.187H30.9663V98.9968Z" fill="#FF6A13"/>
<path d="M30.9663 92.807H24.7717V98.9967H30.9663V92.807Z" fill="#FF6A13"/>
<path d="M30.9663 68.061H24.7717V74.2443H30.9663V68.061Z" fill="#FF6A13"/>
<path d="M30.9663 61.8713H24.7717V68.061H30.9663V61.8713Z" fill="#FF6A13"/>
<path d="M30.9663 55.6816H24.7717V61.8713H30.9663V55.6816Z" fill="black"/>
<path d="M24.7717 98.9968H18.5771V105.187H24.7717V98.9968Z" fill="black"/>
<path d="M24.7717 92.807H18.5771V98.9967H24.7717V92.807Z" fill="#FF6A13"/>
<path d="M24.7717 86.6238H18.5771V92.8071H24.7717V86.6238Z" fill="#FF6A13"/>
<path d="M24.7717 80.4341H18.5771V86.6238H24.7717V80.4341Z" fill="#FF6A13"/>
<path d="M24.7717 74.2444H18.5771V80.4341H24.7717V74.2444Z" fill="#FF6A13"/>
<path d="M24.7717 68.061H18.5771V74.2443H24.7717V68.061Z" fill="#FF6A13"/>
<path d="M24.7717 61.8713H18.5771V68.061H24.7717V61.8713Z" fill="black"/>
<path d="M18.5773 92.807H12.3892V98.9967H18.5773V92.807Z" fill="black"/>
<path d="M18.5773 86.6238H12.3892V92.8071H18.5773V86.6238Z" fill="#FF6A13"/>
<path d="M18.5773 80.4341H12.3892V86.6238H18.5773V80.4341Z" fill="#FF6A13"/>
<path d="M18.5773 74.2444H12.3892V80.4341H18.5773V74.2444Z" fill="#FF6A13"/>
<path d="M18.5773 68.061H12.3892V74.2443H18.5773V68.061Z" fill="black"/>
<path d="M12.3891 86.6238H6.19458V92.8071H12.3891V86.6238Z" fill="black"/>
<path d="M12.3891 80.4341H6.19458V86.6238H12.3891V80.4341Z" fill="black"/>
<path d="M12.3891 74.2444H6.19458V80.4341H12.3891V74.2444Z" fill="black"/>
</g>
<defs>
<clipPath id="clip0_334_7406">
<rect width="161" height="198" fill="white"/>
</clipPath>
</defs>
</svg>
