<svg width="62" height="21" viewBox="0 0 62 21" fill="none" xmlns="http://www.w3.org/2000/svg">
<g clip-path="url(#clip0_346_937)">
<path d="M60.3698 0H59.4944H58.6191H57.7479V0.875351V1.7507H56.8726V2.62605H55.9972H55.1219V1.7507H54.2465V0.875351V0H53.3712H52.4958H51.6205H50.7451V0.875351V1.7507H51.6205V2.62605H52.4958V3.5014H53.3712V4.37675H54.2465V5.2521V6.12746V6.9986H53.3712V7.87395H52.4958V8.7493H51.6205V9.62465H50.7451V10.5V11.3754H51.6205H52.4958H53.3712H54.2465V10.5V9.62465H55.1219V8.7493H55.9972H56.8726V9.62465H57.7479V10.5V11.3754H58.6191H59.4944H60.3698H61.2451V10.5V9.62465H60.3698V8.7493H59.4944V7.87395H58.6191V6.9986H57.7479V6.12746V5.2521V4.37675H58.6191V3.5014H59.4944V2.62605H60.3698V1.7507H61.2451V0.875351V0H60.3698Z" fill="#FF6A13"/>
<path d="M48.9986 1.7507H48.1233V0.875351H47.2479V0H41.9958V0.875351H41.1205V1.7507H40.2451V2.62605H39.374V8.7493H40.2451V9.62465H41.1205V10.5H41.9958V11.3754H47.2479V10.5H48.1233V9.62465H48.9986V8.7493H49.8698V2.62605H48.9986V1.7507ZM46.3726 7.87395V8.7493H42.8712V7.87395H41.9958V3.5014H42.8712V2.62605H46.3726V3.5014H47.2479V7.87395H46.3726Z" fill="#FF6A13"/>
<path d="M35.8725 5.2521H34.9972V4.37675H35.8725V1.7507H34.9972V0.875351H34.1218V0H27.9986V11.3754H34.9972V10.5H35.8725V9.62465H36.7479V6.12746H35.8725V5.2521ZM33.2465 4.37675H30.6246V2.62605H33.2465V4.37675ZM33.2465 8.7493H30.6246V6.9986H34.1218V8.7493H33.2465Z" fill="#FF6A13"/>
<path d="M23.6218 0H22.7465H21.8711V0.875351V1.7507H21V2.62605V3.5014H20.1246V4.37675H19.2493V3.5014H18.3739V2.62605V1.7507H17.4986V0.875351V0H16.6232H15.7479H14.8725H13.9972V0.875351V1.7507H14.8725V2.62605H15.7479V3.5014H16.6232V4.37675V5.2521H17.4986V6.12746V6.9986H18.3739V7.87395V8.7493V9.62465V10.5V11.3754H19.2493H20.1246H21V10.5V9.62465V8.7493V7.87395V6.9986H21.8711V6.12746V5.2521H22.7465V4.37675V3.5014H23.6218V2.62605H24.4972V1.7507H25.3725V0.875351V0H24.4972H23.6218Z" fill="#FF6A13"/>
<path d="M24.4972 14.0015H23.6218H22.7465V14.8768H21.8711V15.7522H21H20.1246V16.6233H19.2493H18.3739V17.4987H17.4986H16.6232V18.374H15.7479H14.8725H13.9972H13.1218H12.2507H11.3753H10.5H9.62465H8.7493V17.4987H7.87395H6.9986V16.6233H6.12325H5.2479V15.7522H4.37254H3.5014V14.8768H2.62605V14.0015H1.7507H0.875351V14.8768H0V15.7522H0.875351V16.6233H1.7507V17.4987H2.62605V18.374H3.5014H4.37254V19.2494H5.2479H6.12325V20.1247H6.9986H7.87395H8.7493V21.0001H9.62465H10.5H11.3753H12.2507H13.1218H13.9972H14.8725H15.7479H16.6232V20.1247H17.4986H18.3739H19.2493V19.2494H20.1246H21V18.374H21.8711H22.7465V17.4987H23.6218V16.6233H24.4972V15.7522H25.3725V14.8768H24.4972V14.0015Z" fill="#FF6A13"/>
<path d="M1.7507 11.3754H2.62605V10.5V9.62465V8.7493V7.87395V6.9986V6.12746V5.2521H3.5014V6.12746H4.37255V6.9986V7.87395H5.2479V8.7493H6.12325H6.9986V7.87395H7.87395V6.9986V6.12746H8.7493V5.2521H9.62465V6.12746V6.9986V7.87395V8.7493V9.62465V10.5V11.3754H10.5H11.3753H12.2507V10.5V9.62465V8.7493V7.87395V6.9986V6.12746V5.2521V4.37675V3.5014V2.62605V1.7507V0.875351V0H11.3753H10.5H9.62465H8.7493V0.875351V1.7507H7.87395V2.62605V3.5014H6.9986V4.37675H6.12325H5.2479V3.5014H4.37255V2.62605V1.7507H3.5014V0.875351V0H2.62605H1.7507H0.875351H0V0.875351V1.7507V2.62605V3.5014V4.37675V5.2521V6.12746V6.9986V7.87395V8.7493V9.62465V10.5V11.3754H0.875351H1.7507Z" fill="#FF6A13"/>
</g>
<defs>
<clipPath id="clip0_346_937">
<rect width="61.2451" height="21" fill="white"/>
</clipPath>
</defs>
</svg>
