<svg width="444" height="191" xmlns="http://www.w3.org/2000/svg">
 <defs>
  <clipPath id="clip0_334_8380">
   <rect width="443.61" height="190.74" fill="white" transform="matrix(-1,0,0,1,443.61,0) " id="svg_1"/>
  </clipPath>
 </defs>
 <g>
  <title>background</title>
  <rect x="-1" y="-1" width="446" height="193" id="canvas_background" fill="none"/>
 </g>
 <g>
  <title>Layer 1</title>
  <g clip-path="url(#clip0_334_8380)" id="svg_2">
   <path d="m33.8098,172.6l2.79,0l2.77,0l2.77,0l2.77,0l2.77,0l2.76,0l2.79,0l2.77,0l2.77,0l2.77,0l2.77,0l2.77,0l2.79,0l2.77,0l2.77,0l2.77,0l2.76,0l2.77,0l2.77,0l2.79,0l2.77,0l2.77,0l2.77,0l2.7702,0l2.77,0l2.79,0l2.77,0l2.76,0l2.77,0l2.77,0l2.77,0l2.79,0l2.77,0l2.77,0l2.77,0l2.77,0l2.77,0l2.77,0l2.78,0l2.77,0l2.77,0l2.77,0l2.77,0l2.77,0l2.79,0l2.77,0l2.77,0l2.77,0l2.77,0l2.77,0l2.78,0l2.77,0l2.77,0l2.77,0l2.77,0l2.77,0l2.77,0l2.79,0l2.77,0l2.77,0l2.77,0l2.77,0l2.77,0l2.78,0l2.77,0l2.77,0l2.77,0l2.77,0l2.77,0l2.79,0l2.77,0l2.77,0l2.77,0l2.77,0l2.76,0l2.77,0l2.79,0l2.77,0l2.77,0l2.77,0l2.77,0l2.77,0l2.79,0l2.77,0l2.77,0l2.76,0l2.77,0l2.77,0l2.79,0l2.77,0l2.77,0l2.77,0l2.77,0l2.77,0l2.77,0l2.79,0l2.77,0l2.76,0l2.77,0l2.77,0l2.77,0l2.79,0l2.77,0l2.77,0l2.77,0l2.77,0l2.77,0l2.78,0l2.77,0l2.77,0l2.77,0l2.77,0l2.77,0l2.77,0l2.79,0l2.77,0l2.77,0l2.77,0l2.77,0l2.77,0l2.78,0l2.77,0l2.77,0l2.77,0l2.77,0l2.77,0l2.77,0l2.79,0l2.77,0l2.77,0l2.77,0l2.77,0l2.76,0l2.79,0l2.77,0l2.77,0l2.77,0l2.77,0l2.77,0l2.79,0l2.77,0l2.77,0l2.77,0l2.77,0l0,6.04l-2.77,0l-2.77,0l-2.77,0l-2.77,0l-2.79,0l-2.77,0l-2.77,0l-2.77,0l-2.77,0l-2.77,0l-2.79,0l-2.76,0l-2.77,0l-2.77,0l-2.77,0l-2.77,0l-2.79,0l-2.77,0l-2.77,0l-2.77,0l-2.77,0l-2.77,0l-2.77,0l-2.78,0l-2.77,0l-2.77,0l-2.77,0l-2.77,0l-2.77,0l-2.79,0l-2.77,0l-2.77,0l-2.77,0l-2.77,0l-2.77,0l-2.77,0l-2.78,0l-2.77,0l-2.77,0l-2.77,0l-2.77,0l-2.77,0l-2.79,0l-2.77,0l-2.77,0l-2.77,0l-2.76,0l-2.77,0l-2.79,0l-2.77,0l-2.77,0l-2.77,0l-2.77,0l-2.77,0l-2.77,0l-2.79,0l-2.77,0l-2.77,0l-2.76,0l-2.77,0l-2.77,0l-2.79,0l-2.77,0l-2.77,0l-2.77,0l-2.77,0l-2.77,0l-2.79,0l-2.77,0l-2.76,0l-2.77,0l-2.77,0l-2.77,0l-2.77,0l-2.79,0l-2.77,0l-2.77,0l-2.77,0l-2.77,0l-2.77,0l-2.78,0l-2.77,0l-2.77,0l-2.77,0l-2.77,0l-2.77,0l-2.79,0l-2.77,0l-2.77,0l-2.77,0l-2.77,0l-2.77,0l-2.77,0l-2.78,0l-2.77,0l-2.77,0l-2.77,0l-2.77,0l-2.77,0l-2.79,0l-2.77,0l-2.77,0l-2.77,0l-2.77,0l-2.77,0l-2.78,0l-2.77,0l-2.77,0l-2.77,0l-2.77,0l-2.77,0l-2.77,0l-2.79,0l-2.77,0l-2.77,0l-2.77,0l-2.76,0l-2.77,0l-2.79,0l-2.77,0l-2.7702,0l-2.77,0l-2.77,0l-2.77,0l-2.79,0l-2.77,0l-2.77,0l-2.76,0l-2.77,0l-2.77,0l-2.77,0l-2.79,0l-2.77,0l-2.77,0l-2.77,0l-2.77,0l-2.77,0l-2.79,0l-2.76,0l-2.77,0l-2.77,0l-2.77,0l-2.77,0l-2.79,0l-2.06,0l0,-6.04l2.06,0z" fill="#FF6A13" id="svg_3"/>
   <path d="m433.03,172.6l-2.77,0l-2.77,0l-2.77,0l-2.77,0l-2.79,0l-2.77,0l-2.77,0l-2.77,0l-2.77,0l-2.77,0l-2.79,0l-2.76,0l-2.77,0l-2.77,0l-2.77,0l-2.77,0l-2.79,0l-2.77,0l-2.77,0l-2.77,0l-2.77,0l-2.77,0l-2.77,0l-2.78,0l-2.77,0l-2.77,0l-2.77,0l-2.77,0l-2.77,0l-2.79,0l-2.77,0l-2.77,0l-2.77,0l-2.77,0l-2.77,0l-2.77,0l-2.78,0l-2.77,0l-2.77,0l-2.77,0l-2.77,0l-2.77,0l-2.79,0l-2.77,0l-2.77,0l-2.77,0l-2.76,0l-2.77,0l-2.79,0l-2.77,0l-2.77,0l-2.77,0l-2.77,0l-2.77,0l-2.77,0l-2.79,0l-2.77,0l-2.77,0l-2.76,0l-2.77,0l-2.77,0l-2.79,0l-2.77,0l-2.77,0l-2.77,0l-2.77,0l-2.77,0l-2.79,0l-2.77,0l-2.76,0l-2.77,0l-2.77,0l-2.77,0l-2.77,0l-2.79,0l-2.77,0l-2.77,0l-2.77,0l-2.77,0l-2.77,0l-2.78,0l-2.77,0l-2.77,0l-2.77,0l-2.77,0l-2.77,0l-2.79,0l-2.77,0l-2.77,0l-2.77,0l-2.77,0l-2.77,0l-2.77,0l-2.78,0l-2.77,0l-2.77,0l-2.77,0l-2.77,0l-2.77,0l-2.79,0l-2.77,0l-2.77,0l-2.77,0l-2.77,0l-2.77,0l-2.78,0l-2.77,0l-2.77,0l-2.77,0l-2.77,0l-2.77,0l-2.77,0l-2.79,0l-2.77,0l-2.77,0l-2.77,0l-2.76,0l-2.77,0l-2.79,0l-2.77,0l-2.7702,0l-2.77,0l-2.77,0l-2.77,0l-2.79,0l-2.77,0l-2.77,0l-2.76,0l-2.77,0l-2.77,0l-2.77,0l-2.79,0l-2.77,0l-2.77,0l-2.77,0l-2.77,0l-2.77,0l-2.79,0l-2.76,0l-2.77,0l-2.77,0l-2.77,0l-2.77,0l-2.79,0l-2.06,0l0,-16.53l401.2802,0l0,16.53z" fill="white" id="svg_4"/>
   <path d="m430,172.6l1.51,0l1.52,0l1.51,0l1.51,0l1.51,0l0,1.51l0,1.51l0,1.51l0,1.51l-1.51,0l-1.51,0l-1.51,0l-1.52,0l-1.51,0l-1.51,0l0,-6.04l1.51,0z" fill="#FF6A13" id="svg_5"/>
   <path d="m437.56,168.06l0,-1.51l0,-1.51l1.51,0l1.51,0l1.52,0l1.51,0l0,1.51l0,1.51l0,1.51l0,1.52l-1.51,0l-1.52,0l-1.51,0l-1.51,0l0,-1.52l0,-1.51z" fill="#FF6A13" id="svg_6"/>
   <path d="m434.54,172.6l-1.51,0l-1.52,0l-1.51,0l-1.51,0l0,-16.53l15.12,0l0,1.41l0,1.51l0,1.52l0,1.51l0,1.51l0,1.51l-1.51,0l-1.52,0l-1.51,0l-1.51,0l0,1.51l0,1.51l0,1.51l0,1.52l0,1.51l-1.51,0l-1.51,0z" fill="white" id="svg_7"/>
   <path d="m31.75,175.62l0,-1.51l0,-1.51l1.5099,0l1.5101,0l1.51,0l1.5099,0l1.5101,0l0.3899,0l0,6.04l-0.3899,0l-1.5101,0l-1.5099,0l-1.51,0l-1.5101,0l-1.5099,0l0,-1.51l0,-1.51z" fill="#FF6A13" id="svg_8"/>
   <path d="m3.02982,165.04l1.50997,0l1.51001,0l0,1.51l0,1.51l0,1.51l0,1.52l-1.51001,0l-1.50997,0l-1.52002,0l-1.50998,0l0,-1.52l0,-1.51l0,-1.51l0,-1.51l1.50998,0l1.52002,0z" fill="#FF6A13" id="svg_9"/>
   <path d="m9.06995,172.6l1.51005,0l1.51,0l1.52,0l1.51,0l1.5099,0l1.5101,0l1.51,0l1.5099,0l1.5201,0l1.5099,0l1.5101,0l0,1.51l0,1.51l0,1.51l0,1.51l-1.5101,0l-1.5099,0l-1.5201,0l-1.5099,0l-1.51,0l-1.5101,0l-1.5099,0l-1.51,0l-1.52,0l-1.51,0l-1.51005,0l-1.50998,0l-1.51001,0l0,-1.51l0,-1.51l0,-1.51l0,-1.51l1.51001,0l1.50998,0z" fill="#FF6A13" id="svg_10"/>
   <path d="m22.68,184.69l1.5099,0l1.5101,0l0,1.51l0,1.51l0,1.52l0,1.51l-1.5101,0l-1.5099,0l-1.5201,0l-1.5099,0l0,-1.51l0,-1.52l0,-1.51l0,-1.51l1.5099,0l1.5201,0z" fill="#FF6A13" id="svg_11"/>
   <path d="m25.7,181.67l0,-1.51l0,-1.52l1.51,0l1.51,0l1.51,0l1.52,0l0,1.52l0,1.51l0,1.51l0,1.51l-1.52,0l-1.51,0l-1.51,0l-1.51,0l0,-1.51l0,-1.51z" fill="#FF6A13" id="svg_12"/>
   <path d="m31.7498,14.22l0,-14.22l2.06,0l2.79,0l2.77,0l2.77,0l2.77,0l2.77,0l2.76,0l2.79,0l2.77,0l2.77,0l2.77,0l2.77,0l2.77,0l2.79,0l2.77,0l2.77,0l2.77,0l2.76,0l2.77,0l2.77,0l2.79,0l2.77,0l2.77,0l2.77,0l2.7702,0l2.77,0l2.79,0l2.77,0l2.76,0l2.77,0l2.77,0l2.77,0l2.79,0l2.77,0l2.77,0l2.77,0l2.77,0l2.77,0l2.77,0l2.78,0l2.77,0l2.77,0l2.77,0l2.77,0l2.77,0l2.79,0l2.77,0l2.77,0l2.77,0l2.77,0l2.77,0l2.78,0l2.77,0l2.77,0l2.77,0l2.77,0l2.77,0l2.77,0l2.79,0l2.77,0l2.77,0l2.77,0l2.77,0l2.77,0l2.78,0l2.77,0l2.77,0l2.77,0l2.77,0l2.77,0l2.79,0l2.77,0l2.77,0l2.77,0l2.77,0l2.76,0l2.77,0l2.79,0l2.77,0l2.77,0l2.77,0l2.77,0l2.77,0l2.79,0l2.77,0l2.77,0l2.76,0l2.77,0l2.77,0l2.79,0l2.77,0l2.77,0l2.77,0l2.77,0l2.77,0l2.77,0l2.79,0l2.77,0l2.76,0l2.77,0l2.77,0l2.77,0l2.79,0l2.77,0l2.77,0l2.77,0l2.77,0l2.77,0l2.78,0l2.77,0l2.77,0l2.77,0l2.77,0l2.77,0l2.77,0l2.79,0l2.77,0l2.77,0l2.77,0l2.77,0l2.77,0l2.78,0l2.77,0l2.77,0l2.77,0l2.77,0l2.77,0l2.77,0l2.79,0l2.77,0l2.77,0l2.77,0l2.77,0l2.76,0l2.79,0l2.77,0l2.77,0l2.77,0l2.77,0l2.77,0l2.79,0l2.77,0l2.77,0l2.77,0l2.77,0l0,14.22l-401.2802,0z" fill="white" id="svg_13"/>
   <path d="m428.49,0l1.51,0l1.51,0l1.52,0l1.51,0l1.51,0l1.51,0l0,1.52l0,1.51l0,1.51l0,1.51l0,1.51l1.51,0l1.51,0l1.52,0l1.51,0l0,1.51l0,1.51l0,1.52l0,1.51l0,0.61l-15.12,0l0,-14.22z" fill="white" id="svg_14"/>
   <path d="m-0.00003,14.22l0,-0.61l0,-1.51l0,-1.52l0,-1.51l0,-1.51l1.50998,0l1.52002,0l1.50998,0l1.51001,0l0,-1.51l0,-1.51l0,-1.51l0,-1.51l0,-1.52l1.51001,0l1.50998,0l1.51005,0l1.51,0l1.52,0l1.51,0l1.5099,0l1.5101,0l1.51,0l1.5099,0l1.5201,0l1.5099,0l1.5101,0l1.51,0l1.5099,0l1.51,0l1.5201,0l1.5099,0l1.5101,0l1.51,0l1.5099,0l1.5101,0l0.3899,0l0,14.22l-39.68993,0z" fill="white" id="svg_15"/>
   <path d="m31.7499,12l7.9399,0l388.8002,0l4.53,0l10.59,0l0,3.22l0,5.4l0,5.4l0,5.4l0,5.43l0,5.4l0,5.4l0,5.4l0,5.39l0,5.4l0,5.44l0,5.4l0,5.39l0,5.4l0,5.4l0,5.4l0,5.4l0,5.43l0,5.4l0,5.4l0,5.4l0,5.4l0,5.4l0,5.43l0,5.4l0,5.4l0,5.4l0,0.34l-10.59,0l-4.53,0l-388.8002,0l-7.9399,0l-31.75002,0l0,-0.34l0,-5.4l0,-5.4l0,-5.4l0,-5.43l0,-5.4l0,-5.4l0,-5.4l0,-5.4l0,-5.4l0,-5.43l0,-5.4l0,-5.4l0,-5.4l0,-5.4l0,-5.39l0,-5.4l0,-5.44l0,-5.4l0,-5.39l0,-5.4l0,-5.4l0,-5.4l0,-5.43l0,-5.4l0,-5.4l0,-5.4l0,-3.22l31.75002,0z" fill="white" id="svg_16"/>
   <path d="m39.6899,156.07l0,16.53l-0.3899,0l-1.5101,0l-1.5099,0l-1.51,0l-1.5101,0l-1.5099,0l0,1.51l0,1.51l0,1.51l0,1.51l-1.5201,0l-1.51,0l-1.5099,0l-1.51,0l0,-1.51l0,-1.51l0,-1.51l0,-1.51l-1.5101,0l-1.5099,0l-1.5201,0l-1.5099,0l-1.51,0l-1.5101,0l-1.5099,0l-1.51,0l-1.52,0l-1.51,0l-1.51005,0l-1.50998,0l-1.51001,0l0,-1.51l0,-1.52l0,-1.51l0,-1.51l0,-1.51l-1.51001,0l-1.50998,0l-1.52002,0l-1.50998,0l0,-1.51l0,-1.51l0,-1.51l0,-1.52l0,-1.51l0,-1.41l39.68993,0z" fill="white" id="svg_17"/>
   <path d="m22.68,178.64l1.5099,0l1.5101,0l0,1.52l0,1.51l0,1.51l0,1.51l-1.5101,0l-1.5099,0l-1.5201,0l-1.5099,0l0,-1.51l0,-1.51l0,-1.51l0,-1.52l1.5099,0l1.5201,0z" fill="white" id="svg_18"/>
   <path d="m20,42.75l0,-8.75l8.75,0l0,8.75l-2.5,0l0,-7.5l-3.75,0l0,7.5l-2.5,0zm18.675,-5l0,3.75l-1.25,0l0,1.25l-5,0l0,1.25l-2.5,0l0,-7.5l2.5,0l0,1.25l1.25,0l0,1.25l-1.25,0l0,2.5l3.75,0l0,-3.75l-2.5,0l0,-1.25l3.75,0l0,1.25l1.25,0zm3.675,2.5l1.25,0l0,1.25l-1.25,0l0,1.25l-2.5,0l0,-6.25l2.5,0l0,3.75zm6.25,-3.75l0,6.25l-2.5,0l0,-3.75l-1.25,0l0,-1.25l1.25,0l0,-1.25l2.5,0zm-5,2.5l1.25,0l0,1.25l-1.25,0l0,-1.25zm6.175,3.75l0,-6.25l7.5,0l0,1.25l1.25,0l0,1.25l-1.25,0l0,1.25l1.25,0l0,1.25l-1.25,0l0,1.25l-7.5,0zm2.5,-3.75l3.75,0l0,-1.25l-3.75,0l0,1.25zm0,2.5l3.75,0l0,-1.25l-3.75,0l0,1.25zm8.675,1.25l0,-1.25l-1.25,0l0,-3.75l1.25,0l0,-1.25l6.25,0l0,1.25l1.25,0l0,2.5l-6.25,0l0,1.25l5,0l0,1.25l-6.25,0zm1.25,-3.75l3.75,0l0,-1.25l-3.75,0l0,1.25zm11.175,3.75l0,-5l-2.5,0l0,-1.25l7.5,0l0,1.25l-2.5,0l0,5l-2.5,0zm8.675,-2.5l0,-6.25l3.75,0l0,3.75l-1.25,0l0,2.5l-2.5,0zm0,2.5l0,-1.25l2.5,0l0,1.25l-2.5,0zm17.35,1.25l0,-2.5l1.25,0l0,-2.5l1.25,0l0,-5l6.25,0l0,7.5l1.25,0l0,2.5l-2.5,0l0,-1.25l-5,0l0,1.25l-2.5,0zm3.75,-2.5l2.5,0l0,-6.25l-2.5,0l0,6.25zm14.925,-3.75l0,3.75l-1.25,0l0,1.25l-5,0l0,1.25l-2.5,0l0,-7.5l2.5,0l0,1.25l1.25,0l0,1.25l-1.25,0l0,2.5l3.75,0l0,-3.75l-2.5,0l0,-1.25l3.75,0l0,1.25l1.25,0zm2.425,5l0,-1.25l-1.25,0l0,-1.25l1.25,0l0,-1.25l5,0l0,-1.25l-5,0l0,-1.25l6.25,0l0,1.25l1.25,0l0,5l-7.5,0zm1.25,-1.25l3.75,0l0,-1.25l-3.75,0l0,1.25zm12.425,-3.75l1.25,0l0,1.25l1.25,0l0,1.25l1.25,0l0,2.5l-2.5,0l0,-2.5l-3.75,0l0,2.5l-2.5,0l0,-6.25l2.5,0l0,2.5l2.5,0l0,-1.25zm3.75,-1.25l0,1.25l-2.5,0l0,-1.25l2.5,0zm2.425,6.25l0,-1.25l-1.25,0l0,-3.75l1.25,0l0,-1.25l6.25,0l0,1.25l1.25,0l0,3.75l-1.25,0l0,1.25l-6.25,0zm1.25,-1.25l3.75,0l0,-3.75l-3.75,0l0,3.75zm7.425,1.25l0,-6.25l2.5,0l0,2.5l3.75,0l0,-2.5l2.5,0l0,6.25l-2.5,0l0,-2.5l-3.75,0l0,2.5l-2.5,0zm11.175,1.25l0,-1.25l5,0l0,-1.25l-5,0l0,-1.25l-1.25,0l0,-3.75l2.5,0l0,3.75l3.75,0l0,-3.75l2.5,0l0,6.25l-1.25,0l0,1.25l-6.25,0zm18.6,-1.25l0,-6.25l2.5,0l0,2.5l3.75,0l0,-2.5l2.5,0l0,6.25l-2.5,0l0,-2.5l-3.75,0l0,2.5l-2.5,0zm11.175,1.25l0,-1.25l5,0l0,-1.25l-5,0l0,-1.25l-1.25,0l0,-3.75l2.5,0l0,3.75l3.75,0l0,-3.75l2.5,0l0,6.25l-1.25,0l0,1.25l-6.25,0zm8.675,-1.25l0,-2.5l1.25,0l0,-1.25l-1.25,0l0,-2.5l2.5,0l0,2.5l1.25,0l0,-2.5l1.25,0l0,2.5l1.25,0l0,-2.5l2.5,0l0,2.5l-1.25,0l0,1.25l1.25,0l0,2.5l-2.5,0l0,-2.5l-1.25,0l0,2.5l-1.25,0l0,-2.5l-1.25,0l0,2.5l-2.5,0zm9.925,0l0,-6.25l2.5,0l0,2.5l3.75,0l0,-2.5l2.5,0l0,6.25l-2.5,0l0,-2.5l-3.75,0l0,2.5l-2.5,0zm11.175,0l0,-1.25l-1.25,0l0,-3.75l1.25,0l0,-1.25l6.25,0l0,1.25l1.25,0l0,3.75l-1.25,0l0,1.25l-6.25,0zm1.25,-1.25l3.75,0l0,-3.75l-3.75,0l0,3.75zm18.6,1.25l0,-1.25l-1.25,0l0,-3.75l1.25,0l0,-1.25l6.25,0l0,1.25l1.25,0l0,1.25l-2.5,0l0,-1.25l-3.75,0l0,3.75l3.75,0l0,-1.25l2.5,0l0,1.25l-1.25,0l0,1.25l-6.25,0zm8.675,0l0,-6.25l8.75,0l0,6.25l-2.5,0l0,-5l-3.75,0l0,5l-2.5,0zm11.175,0l0,-1.25l-1.25,0l0,-1.25l1.25,0l0,-1.25l5,0l0,-1.25l-5,0l0,-1.25l6.25,0l0,1.25l1.25,0l0,5l-7.5,0zm1.25,-1.25l3.75,0l0,-1.25l-3.75,0l0,1.25zm8.675,1.25l0,-1.25l-1.25,0l0,-3.75l1.25,0l0,-1.25l6.25,0l0,1.25l1.25,0l0,1.25l-2.5,0l0,-1.25l-3.75,0l0,3.75l3.75,0l0,-1.25l2.5,0l0,1.25l-1.25,0l0,1.25l-6.25,0zm12.425,0l0,-5l-2.5,0l0,-1.25l7.5,0l0,1.25l-2.5,0l0,5l-2.5,0zm8.675,-2.5l1.25,0l0,1.25l-1.25,0l0,1.25l-2.5,0l0,-6.25l2.5,0l0,3.75zm6.25,-3.75l0,6.25l-2.5,0l0,-3.75l-1.25,0l0,-1.25l1.25,0l0,-1.25l2.5,0zm-5,2.5l1.25,0l0,1.25l-1.25,0l0,-1.25zm16.1,3.75l0,-6.25l8.75,0l0,6.25l-2.5,0l0,-5l-3.75,0l0,5l-2.5,0zm18.675,-5l0,3.75l-1.25,0l0,1.25l-5,0l0,1.25l-2.5,0l0,-7.5l2.5,0l0,1.25l1.25,0l0,1.25l-1.25,0l0,2.5l3.75,0l0,-3.75l-2.5,0l0,-1.25l3.75,0l0,1.25l1.25,0zm3.675,2.5l1.25,0l0,1.25l-1.25,0l0,1.25l-2.5,0l0,-6.25l2.5,0l0,3.75zm6.25,-3.75l0,6.25l-2.5,0l0,-3.75l-1.25,0l0,-1.25l1.25,0l0,-1.25l2.5,0zm-5,2.5l1.25,0l0,1.25l-1.25,0l0,-1.25zm6.175,3.75l0,-6.25l2.5,0l0,2.5l3.75,0l0,-2.5l2.5,0l0,6.25l-2.5,0l0,-2.5l-3.75,0l0,2.5l-2.5,0zm16.175,1.25l0,-1.25l-6.25,0l0,-6.25l2.5,0l0,5l2.5,0l0,-5l2.5,0l0,5l1.25,0l0,2.5l-2.5,0zm4.925,-1.25l0,-1.25l-1.25,0l0,-3.75l1.25,0l0,-1.25l6.25,0l0,1.25l1.25,0l0,2.5l-6.25,0l0,1.25l5,0l0,1.25l-6.25,0zm1.25,-3.75l3.75,0l0,-1.25l-3.75,0l0,1.25zm8.675,3.75l0,-1.25l-1.25,0l0,-3.75l1.25,0l0,-1.25l6.25,0l0,1.25l1.25,0l0,1.25l-2.5,0l0,-1.25l-3.75,0l0,3.75l3.75,0l0,-1.25l2.5,0l0,1.25l-1.25,0l0,1.25l-6.25,0zm9.925,0l0,-1.25l-1.25,0l0,-3.75l1.25,0l0,-1.25l6.25,0l0,1.25l1.25,0l0,1.25l-2.5,0l0,-1.25l-3.75,0l0,3.75l3.75,0l0,-1.25l2.5,0l0,1.25l-1.25,0l0,1.25l-6.25,0zm9.925,1.25l0,-1.25l5,0l0,-1.25l-5,0l0,-1.25l-1.25,0l0,-3.75l2.5,0l0,3.75l3.75,0l0,-3.75l2.5,0l0,6.25l-1.25,0l0,1.25l-6.25,0zm-367.225,24.75l0,-1.25l-1.25,0l0,-3.75l1.25,0l0,-1.25l6.25,0l0,1.25l1.25,0l0,3.75l-1.25,0l0,1.25l-6.25,0zm1.25,-1.25l3.75,0l0,-3.75l-3.75,0l0,3.75zm11.175,1.25l0,-5l-2.5,0l0,-1.25l7.5,0l0,1.25l-2.5,0l0,5l-2.5,0zm17.35,0l0,-1.25l-1.25,0l0,-1.25l2.5,0l0,1.25l3.75,0l0,-1.25l-2.5,0l0,-1.25l2.5,0l0,-1.25l-3.75,0l0,1.25l-2.5,0l0,-1.25l1.25,0l0,-1.25l6.25,0l0,1.25l1.25,0l0,1.25l-1.25,0l0,1.25l1.25,0l0,1.25l-1.25,0l0,1.25l-6.25,0zm17.425,-6.25l0,6.25l-2.5,0l0,-5l-2.5,0l0,3.75l-1.25,0l0,1.25l-2.5,0l0,-2.5l1.25,0l0,-1.25l1.25,0l0,-2.5l6.25,0zm1.175,6.25l0,-6.25l2.5,0l0,2.5l2.5,0l0,3.75l-5,0zm6.25,0l0,-6.25l2.5,0l0,6.25l-2.5,0zm-3.75,-1.25l1.25,0l0,-1.25l-1.25,0l0,1.25zm7.425,1.25l0,-1.25l1.25,0l0,-1.25l1.25,0l0,-1.25l-1.25,0l0,-1.25l-1.25,0l0,-1.25l2.5,0l0,1.25l1.25,0l0,1.25l1.25,0l0,-1.25l1.25,0l0,-1.25l2.5,0l0,1.25l-1.25,0l0,1.25l-1.25,0l0,1.25l1.25,0l0,1.25l1.25,0l0,1.25l-2.5,0l0,-1.25l-1.25,0l0,-1.25l-1.25,0l0,1.25l-1.25,0l0,1.25l-2.5,0zm28.6,-5l0,3.75l-1.25,0l0,1.25l-5,0l0,1.25l-2.5,0l0,-7.5l2.5,0l0,1.25l1.25,0l0,1.25l-1.25,0l0,2.5l3.75,0l0,-3.75l-2.5,0l0,-1.25l3.75,0l0,1.25l1.25,0zm1.175,5l0,-6.25l2.5,0l0,2.5l2.5,0l0,3.75l-5,0zm6.25,0l0,-6.25l2.5,0l0,6.25l-2.5,0zm-3.75,-1.25l1.25,0l0,-1.25l-1.25,0l0,1.25zm13.675,2.5l0,-1.25l-6.25,0l0,-6.25l2.5,0l0,5l2.5,0l0,-5l2.5,0l0,5l1.25,0l0,2.5l-2.5,0zm4.925,-1.25l0,-1.25l-1.25,0l0,-1.25l1.25,0l0,-1.25l5,0l0,-1.25l-5,0l0,-1.25l6.25,0l0,1.25l1.25,0l0,5l-7.5,0zm1.25,-1.25l3.75,0l0,-1.25l-3.75,0l0,1.25zm16.175,-3.75l0,3.75l-1.25,0l0,1.25l-5,0l0,1.25l-2.5,0l0,-7.5l2.5,0l0,1.25l1.25,0l0,1.25l-1.25,0l0,2.5l3.75,0l0,-3.75l-2.5,0l0,-1.25l3.75,0l0,1.25l1.25,0zm2.425,5l0,-1.25l-1.25,0l0,-3.75l1.25,0l0,-1.25l6.25,0l0,1.25l1.25,0l0,2.5l-6.25,0l0,1.25l5,0l0,1.25l-6.25,0zm1.25,-3.75l3.75,0l0,-1.25l-3.75,0l0,1.25zm14.925,-5l0,1.25l-6.25,0l0,-1.25l6.25,0zm-5,6.25l1.25,0l0,1.25l-1.25,0l0,1.25l-2.5,0l0,-6.25l2.5,0l0,3.75zm6.25,-3.75l0,6.25l-2.5,0l0,-3.75l-1.25,0l0,-1.25l1.25,0l0,-1.25l2.5,0zm-5,2.5l1.25,0l0,1.25l-1.25,0l0,-1.25zm18.6,1.25l1.25,0l0,1.25l-1.25,0l0,1.25l-2.5,0l0,-6.25l2.5,0l0,3.75zm6.25,-3.75l0,6.25l-2.5,0l0,-3.75l-1.25,0l0,-1.25l1.25,0l0,-1.25l2.5,0zm-5,2.5l1.25,0l0,1.25l-1.25,0l0,-1.25zm16.1,3.75l0,-6.25l2.5,0l0,2.5l3.75,0l0,-2.5l2.5,0l0,6.25l-2.5,0l0,-2.5l-3.75,0l0,2.5l-2.5,0zm11.175,0l0,-1.25l-1.25,0l0,-1.25l1.25,0l0,-1.25l5,0l0,-1.25l-5,0l0,-1.25l6.25,0l0,1.25l1.25,0l0,5l-7.5,0zm1.25,-1.25l3.75,0l0,-1.25l-3.75,0l0,1.25zm12.425,-3.75l1.25,0l0,1.25l1.25,0l0,1.25l1.25,0l0,2.5l-2.5,0l0,-2.5l-3.75,0l0,2.5l-2.5,0l0,-6.25l2.5,0l0,2.5l2.5,0l0,-1.25zm3.75,-1.25l0,1.25l-2.5,0l0,-1.25l2.5,0zm2.425,6.25l0,-1.25l-1.25,0l0,-3.75l1.25,0l0,-1.25l6.25,0l0,1.25l1.25,0l0,3.75l-1.25,0l0,1.25l-6.25,0zm1.25,-1.25l3.75,0l0,-3.75l-3.75,0l0,3.75zm16.175,-3.75l0,3.75l-1.25,0l0,1.25l-5,0l0,1.25l-2.5,0l0,-7.5l2.5,0l0,1.25l1.25,0l0,1.25l-1.25,0l0,2.5l3.75,0l0,-3.75l-2.5,0l0,-1.25l3.75,0l0,1.25l1.25,0zm4.925,0l0,1.25l-1.25,0l0,3.75l-2.5,0l0,-6.25l2.5,0l0,1.25l1.25,0zm5,-1.25l0,6.25l-2.5,0l0,-3.75l-1.25,0l0,-1.25l1.25,0l0,-1.25l2.5,0zm-5,2.5l1.25,0l0,2.5l-1.25,0l0,-2.5zm8.675,1.25l1.25,0l0,1.25l-1.25,0l0,1.25l-2.5,0l0,-6.25l2.5,0l0,3.75zm6.25,-3.75l0,6.25l-2.5,0l0,-3.75l-1.25,0l0,-1.25l1.25,0l0,-1.25l2.5,0zm-5,2.5l1.25,0l0,1.25l-1.25,0l0,-1.25zm9.925,3.75l0,-5l-2.5,0l0,-1.25l7.5,0l0,1.25l-2.5,0l0,5l-2.5,0zm6.175,0l0,-6.25l2.5,0l0,2.5l5,0l0,1.25l1.25,0l0,1.25l-1.25,0l0,1.25l-7.5,0zm2.5,-1.25l3.75,0l0,-1.25l-3.75,0l0,1.25zm18.6,1.25l0,-1.25l-1.25,0l0,-3.75l1.25,0l0,-1.25l6.25,0l0,1.25l1.25,0l0,2.5l-6.25,0l0,1.25l5,0l0,1.25l-6.25,0zm1.25,-3.75l3.75,0l0,-1.25l-3.75,0l0,1.25zm8.675,3.75l0,-1.25l-1.25,0l0,-3.75l1.25,0l0,-1.25l6.25,0l0,1.25l1.25,0l0,2.5l-6.25,0l0,1.25l5,0l0,1.25l-6.25,0zm1.25,-3.75l3.75,0l0,-1.25l-3.75,0l0,1.25zm26.1,-1.25l0,3.75l-1.25,0l0,1.25l-5,0l0,1.25l-2.5,0l0,-7.5l2.5,0l0,1.25l1.25,0l0,1.25l-1.25,0l0,2.5l3.75,0l0,-3.75l-2.5,0l0,-1.25l3.75,0l0,1.25l1.25,0zm2.425,5l0,-1.25l-1.25,0l0,-3.75l1.25,0l0,-1.25l6.25,0l0,1.25l1.25,0l0,3.75l-1.25,0l0,1.25l-6.25,0zm1.25,-1.25l3.75,0l0,-3.75l-3.75,0l0,3.75zm16.175,-5l0,6.25l-2.5,0l0,-5l-2.5,0l0,3.75l-1.25,0l0,1.25l-2.5,0l0,-2.5l1.25,0l0,-1.25l1.25,0l0,-2.5l6.25,0zm9.925,0l0,6.25l-2.5,0l0,-5l-2.5,0l0,3.75l-1.25,0l0,1.25l-2.5,0l0,-2.5l1.25,0l0,-1.25l1.25,0l0,-2.5l6.25,0zm2.425,6.25l0,-1.25l-1.25,0l0,-1.25l1.25,0l0,-1.25l5,0l0,-1.25l-5,0l0,-1.25l6.25,0l0,1.25l1.25,0l0,5l-7.5,0zm1.25,-1.25l3.75,0l0,-1.25l-3.75,0l0,1.25zm11.175,-3.75l0,1.25l-1.25,0l0,3.75l-2.5,0l0,-6.25l2.5,0l0,1.25l1.25,0zm5,-1.25l0,6.25l-2.5,0l0,-3.75l-1.25,0l0,-1.25l1.25,0l0,-1.25l2.5,0zm-5,2.5l1.25,0l0,2.5l-1.25,0l0,-2.5zm8.675,1.25l1.25,0l0,1.25l-1.25,0l0,1.25l-2.5,0l0,-6.25l2.5,0l0,3.75zm6.25,-3.75l0,6.25l-2.5,0l0,-3.75l-1.25,0l0,-1.25l1.25,0l0,-1.25l2.5,0zm-5,2.5l1.25,0l0,1.25l-1.25,0l0,-1.25zm7.425,5l0,-1.25l1.25,0l0,-2.5l2.5,0l0,2.5l-1.25,0l0,1.25l-2.5,0zm-369.65,23.5l1.25,0l0,2.5l-2.5,0l0,-1.25l-5,0l0,1.25l-2.5,0l0,-2.5l1.25,0l0,-1.25l1.25,0l0,-3.75l6.25,0l0,5zm-5,0l2.5,0l0,-3.75l-2.5,0l0,3.75zm14.925,-5l0,6.25l-2.5,0l0,-5l-2.5,0l0,3.75l-1.25,0l0,1.25l-2.5,0l0,-2.5l1.25,0l0,-1.25l1.25,0l0,-2.5l6.25,0zm1.175,6.25l0,-2.5l1.25,0l0,-1.25l-1.25,0l0,-1.25l1.25,0l0,-1.25l7.5,0l0,6.25l-2.5,0l0,-2.5l-3.75,0l0,2.5l-2.5,0zm2.5,-3.75l3.75,0l0,-1.25l-3.75,0l0,1.25zm18.6,3.75l0,-1.25l-1.25,0l0,-1.25l2.5,0l0,1.25l3.75,0l0,-1.25l-2.5,0l0,-1.25l2.5,0l0,-1.25l-3.75,0l0,1.25l-2.5,0l0,-1.25l1.25,0l0,-1.25l6.25,0l0,1.25l1.25,0l0,3.75l-1.25,0l0,1.25l-6.25,0zm12.425,0l0,-5l-2.5,0l0,-1.25l7.5,0l0,1.25l-2.5,0l0,5l-2.5,0zm7.425,0l0,-1.25l-1.25,0l0,-3.75l1.25,0l0,-1.25l6.25,0l0,1.25l1.25,0l0,3.75l-1.25,0l0,1.25l-6.25,0zm1.25,-1.25l3.75,0l0,-3.75l-3.75,0l0,3.75zm8.675,1.25l0,-6.25l7.5,0l0,2.5l-1.25,0l0,-1.25l-3.75,0l0,5l-2.5,0zm9.925,0l0,-1.25l-1.25,0l0,-3.75l1.25,0l0,-1.25l6.25,0l0,1.25l1.25,0l0,3.75l-1.25,0l0,1.25l-6.25,0zm1.25,-1.25l3.75,0l0,-3.75l-3.75,0l0,3.75zm17.35,1.25l0,-6.25l2.5,0l0,2.5l3.75,0l0,-2.5l2.5,0l0,6.25l-2.5,0l0,-2.5l-3.75,0l0,2.5l-2.5,0zm11.175,0l0,-1.25l-1.25,0l0,-1.25l1.25,0l0,-1.25l5,0l0,-1.25l-5,0l0,-1.25l6.25,0l0,1.25l1.25,0l0,5l-7.5,0zm1.25,-1.25l3.75,0l0,-1.25l-3.75,0l0,1.25zm16.175,-7.5l0,1.25l-6.25,0l0,2.5l1.25,0l0,1.25l-1.25,0l0,2.5l3.75,0l0,-3.75l-2.5,0l0,-1.25l3.75,0l0,1.25l1.25,0l0,3.75l-1.25,0l0,1.25l-6.25,0l0,-1.25l-1.25,0l0,-6.25l1.25,0l0,-1.25l7.5,0zm2.425,8.75l0,-1.25l-1.25,0l0,-3.75l1.25,0l0,-1.25l6.25,0l0,1.25l1.25,0l0,2.5l-6.25,0l0,1.25l5,0l0,1.25l-6.25,0zm1.25,-3.75l3.75,0l0,-1.25l-3.75,0l0,1.25zm16.175,-1.25l0,3.75l-1.25,0l0,1.25l-5,0l0,1.25l-2.5,0l0,-7.5l2.5,0l0,1.25l1.25,0l0,1.25l-1.25,0l0,2.5l3.75,0l0,-3.75l-2.5,0l0,-1.25l3.75,0l0,1.25l1.25,0zm3.675,2.5l1.25,0l0,1.25l-1.25,0l0,1.25l-2.5,0l0,-6.25l2.5,0l0,3.75zm6.25,-3.75l0,6.25l-2.5,0l0,-3.75l-1.25,0l0,-1.25l1.25,0l0,-1.25l2.5,0zm-5,2.5l1.25,0l0,1.25l-1.25,0l0,-1.25zm19.85,-1.25l0,1.25l-1.25,0l0,3.75l-2.5,0l0,-6.25l2.5,0l0,1.25l1.25,0zm5,-1.25l0,6.25l-2.5,0l0,-3.75l-1.25,0l0,-1.25l1.25,0l0,-1.25l2.5,0zm-5,2.5l1.25,0l0,2.5l-1.25,0l0,-2.5zm7.425,3.75l0,-1.25l-1.25,0l0,-1.25l1.25,0l0,-1.25l5,0l0,-1.25l-5,0l0,-1.25l6.25,0l0,1.25l1.25,0l0,5l-7.5,0zm1.25,-1.25l3.75,0l0,-1.25l-3.75,0l0,1.25zm12.425,-3.75l1.25,0l0,1.25l1.25,0l0,1.25l1.25,0l0,2.5l-2.5,0l0,-2.5l-3.75,0l0,2.5l-2.5,0l0,-6.25l2.5,0l0,2.5l2.5,0l0,-1.25zm3.75,-1.25l0,1.25l-2.5,0l0,-1.25l2.5,0zm2.425,6.25l0,-1.25l-1.25,0l0,-3.75l1.25,0l0,-1.25l6.25,0l0,1.25l1.25,0l0,1.25l-2.5,0l0,-1.25l-3.75,0l0,3.75l3.75,0l0,-1.25l2.5,0l0,1.25l-1.25,0l0,1.25l-6.25,0zm11.175,-2.5l1.25,0l0,1.25l-1.25,0l0,1.25l-2.5,0l0,-6.25l2.5,0l0,3.75zm6.25,-3.75l0,6.25l-2.5,0l0,-3.75l-1.25,0l0,-1.25l1.25,0l0,-1.25l2.5,0zm-5,2.5l1.25,0l0,1.25l-1.25,0l0,-1.25zm9.925,-1.25l0,1.25l-1.25,0l0,3.75l-2.5,0l0,-6.25l2.5,0l0,1.25l1.25,0zm5,-1.25l0,6.25l-2.5,0l0,-3.75l-1.25,0l0,-1.25l1.25,0l0,-1.25l2.5,0zm-5,2.5l1.25,0l0,2.5l-1.25,0l0,-2.5zm9.925,-1.25l0,1.25l-1.25,0l0,3.75l-2.5,0l0,-6.25l2.5,0l0,1.25l1.25,0zm5,-1.25l0,6.25l-2.5,0l0,-3.75l-1.25,0l0,-1.25l1.25,0l0,-1.25l2.5,0zm-5,2.5l1.25,0l0,2.5l-1.25,0l0,-2.5zm7.425,3.75l0,-1.25l-1.25,0l0,-1.25l1.25,0l0,-1.25l5,0l0,-1.25l-5,0l0,-1.25l6.25,0l0,1.25l1.25,0l0,5l-7.5,0zm1.25,-1.25l3.75,0l0,-1.25l-3.75,0l0,1.25zm16.175,-5l0,6.25l-2.5,0l0,-5l-2.5,0l0,3.75l-1.25,0l0,1.25l-2.5,0l0,-2.5l1.25,0l0,-1.25l1.25,0l0,-2.5l6.25,0zm1.175,6.25l0,-6.25l2.5,0l0,2.5l5,0l0,1.25l1.25,0l0,1.25l-1.25,0l0,1.25l-7.5,0zm2.5,-1.25l3.75,0l0,-1.25l-3.75,0l0,1.25zm7.425,1.25l0,-6.25l2.5,0l0,2.5l3.75,0l0,-2.5l2.5,0l0,6.25l-2.5,0l0,-2.5l-3.75,0l0,2.5l-2.5,0zm11.175,0l0,-1.25l-1.25,0l0,-3.75l1.25,0l0,-1.25l6.25,0l0,1.25l1.25,0l0,3.75l-1.25,0l0,1.25l-6.25,0zm1.25,-1.25l3.75,0l0,-3.75l-3.75,0l0,3.75zm8.675,1.25l0,-1.25l-1.25,0l0,-3.75l1.25,0l0,-1.25l6.25,0l0,1.25l1.25,0l0,2.5l-6.25,0l0,1.25l5,0l0,1.25l-6.25,0zm1.25,-3.75l3.75,0l0,-1.25l-3.75,0l0,1.25zm22.35,-1.25l1.25,0l0,1.25l1.25,0l0,1.25l1.25,0l0,2.5l-2.5,0l0,-2.5l-3.75,0l0,2.5l-2.5,0l0,-6.25l2.5,0l0,2.5l2.5,0l0,-1.25zm3.75,-1.25l0,1.25l-2.5,0l0,-1.25l2.5,0zm2.425,6.25l0,-1.25l-1.25,0l0,-3.75l1.25,0l0,-1.25l6.25,0l0,1.25l1.25,0l0,3.75l-1.25,0l0,1.25l-6.25,0zm1.25,-1.25l3.75,0l0,-3.75l-3.75,0l0,3.75zm16.175,-5l0,6.25l-2.5,0l0,-5l-2.5,0l0,3.75l-1.25,0l0,1.25l-2.5,0l0,-2.5l1.25,0l0,-1.25l1.25,0l0,-2.5l6.25,0zm3.675,3.75l1.25,0l0,1.25l-1.25,0l0,1.25l-2.5,0l0,-6.25l2.5,0l0,3.75zm6.25,-3.75l0,6.25l-2.5,0l0,-3.75l-1.25,0l0,-1.25l1.25,0l0,-1.25l2.5,0zm-5,2.5l1.25,0l0,1.25l-1.25,0l0,-1.25zm12.425,3.75l0,-2.5l-5,0l0,-1.25l-1.25,0l0,-2.5l2.5,0l0,2.5l3.75,0l0,-2.5l2.5,0l0,6.25l-2.5,0zm4.925,0l0,-1.25l-1.25,0l0,-3.75l1.25,0l0,-1.25l6.25,0l0,1.25l1.25,0l0,2.5l-6.25,0l0,1.25l5,0l0,1.25l-6.25,0zm1.25,-3.75l3.75,0l0,-1.25l-3.75,0l0,1.25zm8.675,3.75l0,-1.25l-1.25,0l0,-3.75l1.25,0l0,-1.25l6.25,0l0,1.25l1.25,0l0,1.25l-2.5,0l0,-1.25l-3.75,0l0,3.75l3.75,0l0,-1.25l2.5,0l0,1.25l-1.25,0l0,1.25l-6.25,0zm12.425,0l0,-5l-2.5,0l0,-1.25l7.5,0l0,1.25l-2.5,0l0,5l-2.5,0zm6.175,0l0,-6.25l7.5,0l0,1.25l1.25,0l0,1.25l-1.25,0l0,1.25l1.25,0l0,1.25l-1.25,0l0,1.25l-7.5,0zm2.5,-3.75l3.75,0l0,-1.25l-3.75,0l0,1.25zm0,2.5l3.75,0l0,-1.25l-3.75,0l0,1.25zm8.675,1.25l0,-1.25l-1.25,0l0,-3.75l1.25,0l0,-1.25l6.25,0l0,1.25l1.25,0l0,3.75l-1.25,0l0,1.25l-6.25,0zm1.25,-1.25l3.75,0l0,-3.75l-3.75,0l0,3.75zm-395.75,22.25l0,1.25l-1.25,0l0,3.75l-2.5,0l0,-6.25l2.5,0l0,1.25l1.25,0zm5,-1.25l0,6.25l-2.5,0l0,-3.75l-1.25,0l0,-1.25l1.25,0l0,-1.25l2.5,0zm-5,2.5l1.25,0l0,2.5l-1.25,0l0,-2.5zm7.425,3.75l0,-1.25l-1.25,0l0,-3.75l1.25,0l0,-1.25l6.25,0l0,1.25l1.25,0l0,3.75l-1.25,0l0,1.25l-6.25,0zm1.25,-1.25l3.75,0l0,-3.75l-3.75,0l0,3.75zm7.425,1.25l0,-6.25l2.5,0l0,2.5l3.75,0l0,-2.5l2.5,0l0,6.25l-2.5,0l0,-2.5l-3.75,0l0,2.5l-2.5,0zm11.175,0l0,-1.25l-1.25,0l0,-3.75l1.25,0l0,-1.25l6.25,0l0,1.25l1.25,0l0,2.5l-6.25,0l0,1.25l5,0l0,1.25l-6.25,0zm1.25,-3.75l3.75,0l0,-1.25l-3.75,0l0,1.25zm11.175,3.75l0,-5l-2.5,0l0,-1.25l7.5,0l0,1.25l-2.5,0l0,5l-2.5,0zm18.6,-2.5l1.25,0l0,1.25l-1.25,0l0,1.25l-2.5,0l0,-6.25l2.5,0l0,3.75zm6.25,-3.75l0,6.25l-2.5,0l0,-3.75l-1.25,0l0,-1.25l1.25,0l0,-1.25l2.5,0zm-5,2.5l1.25,0l0,1.25l-1.25,0l0,-1.25zm17.35,3.75l0,-1.25l-1.25,0l0,-3.75l1.25,0l0,-1.25l6.25,0l0,1.25l1.25,0l0,3.75l-1.25,0l0,1.25l-6.25,0zm1.25,-1.25l3.75,0l0,-3.75l-3.75,0l0,3.75zm16.175,-7.5l0,1.25l-6.25,0l0,2.5l1.25,0l0,1.25l-1.25,0l0,2.5l3.75,0l0,-3.75l-2.5,0l0,-1.25l3.75,0l0,1.25l1.25,0l0,3.75l-1.25,0l0,1.25l-6.25,0l0,-1.25l-1.25,0l0,-6.25l1.25,0l0,-1.25l7.5,0zm4.925,3.75l0,1.25l-1.25,0l0,3.75l-2.5,0l0,-6.25l2.5,0l0,1.25l1.25,0zm5,-1.25l0,6.25l-2.5,0l0,-3.75l-1.25,0l0,-1.25l1.25,0l0,-1.25l2.5,0zm-5,2.5l1.25,0l0,2.5l-1.25,0l0,-2.5zm7.425,3.75l0,-1.25l-1.25,0l0,-3.75l1.25,0l0,-1.25l6.25,0l0,1.25l1.25,0l0,2.5l-6.25,0l0,1.25l5,0l0,1.25l-6.25,0zm1.25,-3.75l3.75,0l0,-1.25l-3.75,0l0,1.25zm7.425,3.75l0,-6.25l2.5,0l0,2.5l3.75,0l0,-2.5l2.5,0l0,6.25l-2.5,0l0,-2.5l-3.75,0l0,2.5l-2.5,0zm9.925,0l0,-2.5l1.25,0l0,-1.25l-1.25,0l0,-1.25l1.25,0l0,-1.25l7.5,0l0,6.25l-2.5,0l0,-2.5l-3.75,0l0,2.5l-2.5,0zm2.5,-3.75l3.75,0l0,-1.25l-3.75,0l0,1.25zm14.925,-5l0,1.25l-6.25,0l0,-1.25l6.25,0zm-5,6.25l1.25,0l0,1.25l-1.25,0l0,1.25l-2.5,0l0,-6.25l2.5,0l0,3.75zm6.25,-3.75l0,6.25l-2.5,0l0,-3.75l-1.25,0l0,-1.25l1.25,0l0,-1.25l2.5,0zm-5,2.5l1.25,0l0,1.25l-1.25,0l0,-1.25zm18.6,1.25l1.25,0l0,1.25l-1.25,0l0,1.25l-2.5,0l0,-6.25l2.5,0l0,3.75zm6.25,-3.75l0,6.25l-2.5,0l0,-3.75l-1.25,0l0,-1.25l1.25,0l0,-1.25l2.5,0zm-5,2.5l1.25,0l0,1.25l-1.25,0l0,-1.25zm6.175,3.75l0,-1.25l1.25,0l0,-1.25l1.25,0l0,-1.25l-1.25,0l0,-1.25l-1.25,0l0,-1.25l2.5,0l0,1.25l1.25,0l0,1.25l1.25,0l0,-1.25l1.25,0l0,-1.25l2.5,0l0,1.25l-1.25,0l0,1.25l-1.25,0l0,1.25l1.25,0l0,1.25l1.25,0l0,1.25l-2.5,0l0,-1.25l-1.25,0l0,-1.25l-1.25,0l0,1.25l-1.25,0l0,1.25l-2.5,0zm19.85,0l0,-6.25l2.5,0l0,2.5l3.75,0l0,-2.5l2.5,0l0,6.25l-2.5,0l0,-2.5l-3.75,0l0,2.5l-2.5,0zm11.175,0l0,-1.25l-1.25,0l0,-1.25l1.25,0l0,-1.25l5,0l0,-1.25l-5,0l0,-1.25l6.25,0l0,1.25l1.25,0l0,5l-7.5,0zm1.25,-1.25l3.75,0l0,-1.25l-3.75,0l0,1.25zm21.1,-3.75l0,1.25l-1.25,0l0,3.75l-2.5,0l0,-6.25l2.5,0l0,1.25l1.25,0zm5,-1.25l0,6.25l-2.5,0l0,-3.75l-1.25,0l0,-1.25l1.25,0l0,-1.25l2.5,0zm-5,2.5l1.25,0l0,2.5l-1.25,0l0,-2.5zm7.425,3.75l0,-1.25l-1.25,0l0,-1.25l1.25,0l0,-1.25l5,0l0,-1.25l-5,0l0,-1.25l6.25,0l0,1.25l1.25,0l0,5l-7.5,0zm1.25,-1.25l3.75,0l0,-1.25l-3.75,0l0,1.25zm14.925,-7.5l0,1.25l-6.25,0l0,-1.25l6.25,0zm-5,6.25l1.25,0l0,1.25l-1.25,0l0,1.25l-2.5,0l0,-6.25l2.5,0l0,3.75zm6.25,-3.75l0,6.25l-2.5,0l0,-3.75l-1.25,0l0,-1.25l1.25,0l0,-1.25l2.5,0zm-5,2.5l1.25,0l0,1.25l-1.25,0l0,-1.25zm14.925,-5l0,1.25l-6.25,0l0,2.5l1.25,0l0,1.25l-1.25,0l0,2.5l3.75,0l0,-3.75l-2.5,0l0,-1.25l3.75,0l0,1.25l1.25,0l0,3.75l-1.25,0l0,1.25l-6.25,0l0,-1.25l-1.25,0l0,-6.25l1.25,0l0,-1.25l7.5,0zm2.425,8.75l0,-1.25l-1.25,0l0,-1.25l1.25,0l0,-1.25l5,0l0,-1.25l-5,0l0,-1.25l6.25,0l0,1.25l1.25,0l0,5l-7.5,0zm1.25,-1.25l3.75,0l0,-1.25l-3.75,0l0,1.25zm12.425,-3.75l1.25,0l0,1.25l1.25,0l0,1.25l1.25,0l0,2.5l-2.5,0l0,-2.5l-3.75,0l0,2.5l-2.5,0l0,-6.25l2.5,0l0,2.5l2.5,0l0,-1.25zm3.75,-1.25l0,1.25l-2.5,0l0,-1.25l2.5,0zm2.425,6.25l0,-1.25l-1.25,0l0,-3.75l1.25,0l0,-1.25l6.25,0l0,1.25l1.25,0l0,1.25l-2.5,0l0,-1.25l-3.75,0l0,3.75l3.75,0l0,-1.25l2.5,0l0,1.25l-1.25,0l0,1.25l-6.25,0zm8.675,0l0,-6.25l2.5,0l0,2.5l2.5,0l0,3.75l-5,0zm6.25,0l0,-6.25l2.5,0l0,6.25l-2.5,0zm-3.75,-1.25l1.25,0l0,-1.25l-1.25,0l0,1.25zm19.85,-1.25l1.25,0l0,1.25l-1.25,0l0,1.25l-2.5,0l0,-6.25l2.5,0l0,3.75zm6.25,-3.75l0,6.25l-2.5,0l0,-3.75l-1.25,0l0,-1.25l1.25,0l0,-1.25l2.5,0zm-5,2.5l1.25,0l0,1.25l-1.25,0l0,-1.25zm14.925,-2.5l0,6.25l-2.5,0l0,-5l-2.5,0l0,3.75l-1.25,0l0,1.25l-2.5,0l0,-2.5l1.25,0l0,-1.25l1.25,0l0,-2.5l6.25,0zm3.675,3.75l1.25,0l0,1.25l-1.25,0l0,1.25l-2.5,0l0,-6.25l2.5,0l0,3.75zm6.25,-3.75l0,6.25l-2.5,0l0,-3.75l-1.25,0l0,-1.25l1.25,0l0,-1.25l2.5,0zm-5,2.5l1.25,0l0,1.25l-1.25,0l0,-1.25zm-330.025,29.75l0,-1.25l-1.25,0l0,-3.75l1.25,0l0,-1.25l6.25,0l0,1.25l1.25,0l0,1.25l-2.5,0l0,-1.25l-3.75,0l0,3.75l3.75,0l0,-1.25l2.5,0l0,1.25l-1.25,0l0,1.25l-6.25,0zm9.925,0l0,-1.25l-1.25,0l0,-3.75l1.25,0l0,-1.25l6.25,0l0,1.25l1.25,0l0,2.5l-6.25,0l0,1.25l5,0l0,1.25l-6.25,0zm1.25,-3.75l3.75,0l0,-1.25l-3.75,0l0,1.25zm16.175,-1.25l0,3.75l-1.25,0l0,1.25l-5,0l0,1.25l-2.5,0l0,-7.5l2.5,0l0,1.25l1.25,0l0,1.25l-1.25,0l0,2.5l3.75,0l0,-3.75l-2.5,0l0,-1.25l3.75,0l0,1.25l1.25,0zm4.925,5l0,-5l-2.5,0l0,-1.25l7.5,0l0,1.25l-2.5,0l0,5l-2.5,0zm8.675,-2.5l1.25,0l0,1.25l-1.25,0l0,1.25l-2.5,0l0,-6.25l2.5,0l0,3.75zm6.25,-3.75l0,6.25l-2.5,0l0,-3.75l-1.25,0l0,-1.25l1.25,0l0,-1.25l2.5,0zm-5,2.5l1.25,0l0,1.25l-1.25,0l0,-1.25zm9.925,5l0,-1.25l-2.5,0l0,-1.25l-1.25,0l0,-3.75l1.25,0l0,-1.25l2.5,0l0,-1.25l1.25,0l0,1.25l2.5,0l0,1.25l1.25,0l0,3.75l-1.25,0l0,1.25l-2.5,0l0,1.25l-1.25,0zm-1.25,-2.5l1.25,0l0,-3.75l-1.25,0l0,3.75zm2.5,0l1.25,0l0,-3.75l-1.25,0l0,3.75zm7.425,-1.25l1.25,0l0,1.25l-1.25,0l0,1.25l-2.5,0l0,-6.25l2.5,0l0,3.75zm6.25,-3.75l0,6.25l-2.5,0l0,-3.75l-1.25,0l0,-1.25l1.25,0l0,-1.25l2.5,0zm-5,2.5l1.25,0l0,1.25l-1.25,0l0,-1.25zm11.175,-1.25l1.25,0l0,1.25l1.25,0l0,1.25l1.25,0l0,2.5l-2.5,0l0,-2.5l-3.75,0l0,2.5l-2.5,0l0,-6.25l2.5,0l0,2.5l2.5,0l0,-1.25zm3.75,-1.25l0,1.25l-2.5,0l0,-1.25l2.5,0zm2.425,6.25l0,-1.25l-1.25,0l0,-1.25l1.25,0l0,-1.25l5,0l0,-1.25l-5,0l0,-1.25l6.25,0l0,1.25l1.25,0l0,5l-7.5,0zm1.25,-1.25l3.75,0l0,-1.25l-3.75,0l0,1.25zm11.175,1.25l0,-5l-2.5,0l0,-1.25l7.5,0l0,1.25l-2.5,0l0,5l-2.5,0zm6.175,0l0,-6.25l2.5,0l0,2.5l2.5,0l0,3.75l-5,0zm6.25,0l0,-6.25l2.5,0l0,6.25l-2.5,0zm-3.75,-1.25l1.25,0l0,-1.25l-1.25,0l0,1.25z" fill="#1F1F1F" id="svg_19"/>
  </g>
  <rect stroke="#000" fill="#fff" stroke-width="0" stroke-opacity="null" fill-opacity="null" x="-1.512484" y="9.31249" width="445.312475" height="155.312487" id="svg_24"/>
 </g>
</svg>