<?xml version="1.0"?>
<svg width="343" height="60" xmlns="http://www.w3.org/2000/svg" xmlns:svg="http://www.w3.org/2000/svg">
 <defs>
  <clipPath id="clip0_334_10689">
   <rect fill="white" height="59.61" id="svg_1" width="343"/>
  </clipPath>
 </defs>
 <g class="layer">
  <title>Layer 1</title>
  <g clip-path="url(#clip0_334_10689)" id="svg_2">
   <path d="m341.83,49.09l-1.17,0l-1.17,0l-1.17,0l0,1.17l0,1.17l0,1.16l0,1.18l1.17,0l1.17,0l1.17,0l1.17,0l0,-1.18l0,-1.16l0,-1.17l0,-1.17l-1.17,0z" fill="#1F1F1F" id="svg_3"/>
   <path d="m335.99,54.94l-1.17,0l-1.17,0l-0.01,0l-0.96,0l-0.2,0l-1.17,0l-0.77,0l-0.4,0l-1.17,0l-0.58,0l-0.58,0l-1.17,0l-0.39,0l-0.79,0l-1.16,0l-0.2,0l-0.97,0l-1.18,0l-2.14,0l-1.36,0l-0.78,0l-0.39,0l-0.42,0l-0.74,0l-0.59,0l-0.58,0l-0.25,0l-0.92,0l-0.39,0l-0.78,0l-0.05,0l-0.25,0l-1.07,0l-0.82,0l-1.32,0l-0.83,0l-1.32,0l-0.82,0l-1.32,0l-0.81,0l-1.33,0l-0.83,0l-1.31,0l-0.83,0l-1.33,0l-0.81,0l-1.33,0l-0.81,0l-1.33,0l-0.82,0l-1.33,0l-0.81,0l-1.33,0l-0.82,0l-1.32,0l-0.83,0l-1.31,0l-0.83,0l-1.32,0l-0.82,0l-1.32,0l-0.81,0l-1.33,0l-0.82,0l-1.33,0l-0.81,0l-1.33,0l-0.82,0l-1.32,0l-0.83,0l-1.33,0l-0.81,0l-1.33,0l-0.81,0l-1.33,0l-0.81,0l-1.33,0l-0.81,0l-1.33,0l-0.83,0l-1.31,0l-0.83,0l-1.31,0l-0.83,0l-1.33,0l-0.81,0l-1.33,0l-0.81,0l-1.33,0l-0.81,0l-1.33,0l-0.83,0l-1.31,0l-0.83,0l-1.31,0l-0.83,0l-1.33,0l-0.81,0l-1.33,0l-0.81,0l-1.34,0l-0.81,0l-1.33,0l-0.81,0l-1.32,0l-0.83,0l-1.31,0l-0.83,0l-1.33,0l-0.81,0l-1.33,0l-0.81,0l-1.33,0l-0.81,0l-1.34,0l-0.81,0l-1.33,0l-0.82,0l-1.32,0l-0.83,0l-1.31,0l-0.83,0l-1.33,0l-0.81,0l-1.33,0l-0.81,0l-1.32,0l-0.82,0l-1.33,0l-0.82,0l-1.32,0l-0.83,0l-1.31,0l-0.83,0l-1.33,0l-0.81,0l-1.33,0l-0.81,0l-1.33,0l-0.81,0l-1.33,0l-0.81,0l-1.33,0l-0.83,0l-1.31,0l-0.83,0l-1.32,0l-0.82,0l-1.33,0l-0.82,0l-1.32,0l-0.82,0l-1.32,0l-0.82,0l-1.32,0l-0.83,0l-1.31,0l-0.83,0l-1.31,0l-0.83,0l-1.33,0l-0.81,0l-1.33,0l-0.82,0l-1.33,0l-0.81,0l-1.33,0l-0.83,0l-1.31,0l-0.83,0l-1.31,0l-0.83,0l-1.32,0l-0.82,0l-1.32,0l-0.82,0l-1.32,0l-0.82,0l-1.33,0l-0.81,0l-1.33,0l-0.83,0l-1.31,0l-0.83,0l-1.33,0l-0.81,0l-1.33,0l-0.81,0l-1.33,0l-0.81,0l-1.33,0l-0.81,0l-1.33,0l-0.83,0l-1.32,0l-0.82,0l-1.32,0l-0.82,0l-1.33,0l-0.81,0l-1.33,0l-0.81,0l-1.33,0l-0.81,0l-1.33,0l-0.83,0l-1.31,0l-0.83,0l-1.32,0l-0.82,0l-1.33,0l-0.82,0l-1.33,0l-0.81,0l-1.33,0l-0.81,0l-1.33,0l-0.81,0l-1.33,0l-0.83,0l-1.3,0l-0.84,0l-1.32,0l-0.81,0l-1.33,0l-0.82,0l-1.33,0l-0.81,0l-1.33,0l-0.81,0l-1.33,0l-0.83,0l-1.31,0l-0.83,0l-1.31,0l-0.83,0l-1.33,0l-0.81,0l-1.33,0l-0.81,0l-1.33,0l-0.81,0l-1.33,0l-0.82,0l-1.32,0l-0.83,0l-1.31,0l-0.83,0l-1.33,0l-0.81,0l-1.33,0l-0.81,0l-1.33,0l-0.81,0l-1.33,0l-0.81,0l-1.33,0l-0.83,0l-1.32,0l-0.82,0l-1.33,0l-0.82,0l-1.33,0l-0.81,0l-1.32,0l-0.82,0l-1.32,0l-0.82,0l-1.32,0l-0.83,0l-1.31,0l-0.83,0l-1.32,0l-0.82,0l-1.33,0l-0.82,0l-1.33,0l-0.81,0l-1.33,0l-0.81,0l-1.33,0l-0.81,0l-1.33,0l-0.83,0l-1.31,0l-0.83,0l-1.32,0l-0.82,0l-1.32,0l-0.82,0l-1.33,0l-0.82,0l-1.32,0l-0.81,0l-1.08,0l-0.25,0l-0.05,0l-0.78,0l-0.39,0l-0.92,0l-0.25,0l-0.58,0l-0.59,0l-0.74,0l-0.42,0l-0.39,0l-0.78,0l-1.36,0l-2.14,0l-1.18,0l-0.97,0l-0.2,0l-1.16,0l-0.79,0l-0.39,0l-1.17,0l-0.58,0l-0.58,0l-1.17,0l-0.4,0l-0.77,0l-1.17,0l-0.2,0l-0.96,0l-0.01,0l-1.17,0l-1.17,0l-1.16,0l-1.17,0l0,1.16l0,1.17l0,1.17l0,1.17l1.17,0l1.16,0l1.17,0l1.17,0l0.01,0l0.96,0l0.2,0l1.17,0l0.77,0l0.4,0l1.17,0l0.58,0l0.58,0l1.17,0l0.39,0l0.79,0l1.16,0l0.2,0l0.97,0l1.17,0l0.01,0l1.16,0l0.98,0l0.18,0l1.18,0l0.78,0l0.39,0l0.42,0l0.74,0l0.59,0l0.58,0l0.25,0l0.92,0l0.39,0l0.78,0l0.05,0l0.25,0l1.08,0l0.81,0l1.32,0l0.82,0l1.33,0l0.82,0l1.32,0l0.82,0l1.32,0l0.83,0l1.31,0l0.83,0l1.33,0l0.81,0l1.33,0l0.81,0l1.33,0l0.81,0l1.33,0l0.82,0l1.33,0l0.82,0l1.32,0l0.83,0l1.31,0l0.83,0l1.32,0l0.82,0l1.32,0l0.82,0l1.32,0l0.81,0l1.33,0l0.82,0l1.33,0l0.82,0l1.32,0l0.83,0l1.33,0l0.81,0l1.33,0l0.81,0l1.33,0l0.81,0l1.33,0l0.81,0l1.33,0l0.83,0l1.31,0l0.83,0l1.32,0l0.82,0l1.33,0l0.81,0l1.33,0l0.81,0l1.33,0l0.81,0l1.33,0l0.83,0l1.31,0l0.83,0l1.31,0l0.83,0l1.33,0l0.81,0l1.33,0l0.81,0l1.33,0l0.82,0l1.33,0l0.81,0l1.32,0l0.84,0l1.3,0l0.83,0l1.33,0l0.81,0l1.33,0l0.81,0l1.33,0l0.81,0l1.33,0l0.82,0l1.33,0l0.82,0l1.32,0l0.83,0l1.31,0l0.83,0l1.33,0l0.81,0l1.33,0l0.81,0l1.33,0l0.81,0l1.33,0l0.82,0l1.32,0l0.82,0l1.32,0l0.83,0l1.33,0l0.81,0l1.33,0l0.81,0l1.33,0l0.81,0l1.33,0l0.81,0l1.33,0l0.83,0l1.31,0l0.83,0l1.33,0l0.81,0l1.33,0l0.82,0l1.32,0l0.82,0l1.32,0l0.82,0l1.32,0l0.83,0l1.31,0l0.83,0l1.31,0l0.83,0l1.33,0l0.81,0l1.33,0l0.82,0l1.33,0l0.81,0l1.33,0l0.83,0l1.31,0l0.83,0l1.31,0l0.83,0l1.32,0l0.82,0l1.32,0l0.82,0l1.32,0l0.82,0l1.33,0l0.82,0l1.32,0l0.83,0l1.31,0l0.83,0l1.33,0l0.81,0l1.33,0l0.81,0l1.33,0l0.81,0l1.33,0l0.81,0l1.33,0l0.83,0l1.31,0l0.83,0l1.32,0l0.82,0l1.33,0l0.82,0l1.32,0l0.81,0l1.33,0l0.81,0l1.33,0l0.83,0l1.31,0l0.83,0l1.32,0l0.82,0l1.33,0l0.81,0l1.34,0l0.81,0l1.33,0l0.81,0l1.33,0l0.81,0l1.33,0l0.83,0l1.31,0l0.83,0l1.32,0l0.81,0l1.33,0l0.81,0l1.34,0l0.81,0l1.33,0l0.81,0l1.33,0l0.83,0l1.31,0l0.83,0l1.31,0l0.83,0l1.33,0l0.81,0l1.33,0l0.81,0l1.33,0l0.81,0l1.33,0l0.83,0l1.31,0l0.83,0l1.31,0l0.83,0l1.33,0l0.81,0l1.33,0l0.81,0l1.33,0l0.81,0l1.33,0l0.81,0l1.33,0l0.83,0l1.32,0l0.82,0l1.33,0l0.81,0l1.33,0l0.82,0l1.33,0l0.81,0l1.32,0l0.82,0l1.32,0l0.83,0l1.31,0l0.83,0l1.32,0l0.82,0l1.33,0l0.81,0l1.33,0l0.82,0l1.33,0l0.81,0l1.33,0l0.81,0l1.33,0l0.83,0l1.31,0l0.83,0l1.33,0l0.81,0l1.32,0l0.82,0l1.32,0l0.83,0l1.32,0l0.82,0l1.07,0l0.25,0l0.05,0l0.78,0l0.39,0l0.92,0l0.25,0l0.58,0l0.59,0l0.74,0l0.42,0l0.39,0l0.78,0l1.18,0l0.18,0l0.98,0l1.16,0l0.01,0l1.17,0l0.97,0l0.2,0l1.16,0l0.79,0l0.39,0l1.17,0l0.58,0l0.58,0l1.17,0l0.4,0l0.77,0l1.17,0l0.2,0l0.96,0l0.01,0l1.17,0l1.17,0l1.16,0l1.17,0l0,-1.17l0,-1.17l0,-1.17l0,-1.16l-1.17,0l-1.16,0z" fill="#1F1F1F" id="svg_4"/>
   <path d="m4.68,52.59l0,-1.16l0,-1.17l0,-1.17l-1.17,0l-1.17,0l-1.17,0l-1.17,0l0,1.17l0,1.17l0,1.16l0,1.18l1.17,0l1.17,0l1.17,0l1.17,0l0,-1.18z" fill="#1F1F1F" id="svg_5"/>
   <path d="m341.83,5.85l-1.17,0l-1.17,0l-1.17,0l0,-1.17l0,-1.17l0,-1.17l0,-1.16l0,-1.18l-1.17,0l-1.16,0l-1.17,0l-1.17,0l-0.01,0l-0.96,0l-0.2,0l-1.17,0l-0.77,0l-0.4,0l-1.17,0l-0.58,0l-0.58,0l-1.17,0l-0.39,0l-0.79,0l-1.16,0l-0.2,0l-0.97,0l-1.17,0l-0.01,0l-1.16,0l-0.98,0l-0.18,0l-1.18,0l-0.78,0l-0.39,0l-0.42,0l-0.74,0l-0.59,0l-0.58,0l-0.25,0l-0.92,0l-0.39,0l-0.78,0l-0.05,0l-0.25,0l-1.07,0l-0.82,0l-1.32,0l-0.82,0l-1.33,0l-0.82,0l-1.32,0l-0.81,0l-1.33,0l-0.83,0l-1.31,0l-0.83,0l-1.33,0l-0.81,0l-1.33,0l-0.81,0l-1.33,0l-0.82,0l-1.33,0l-0.81,0l-1.33,0l-0.82,0l-1.32,0l-0.83,0l-1.31,0l-0.83,0l-1.32,0l-0.82,0l-1.32,0l-0.81,0l-1.33,0l-0.82,0l-1.33,0l-0.81,0l-1.33,0l-0.82,0l-1.32,0l-0.83,0l-1.33,0l-0.81,0l-1.33,0l-0.81,0l-1.33,0l-0.81,0l-1.33,0l-0.81,0l-1.33,0l-0.83,0l-1.31,0l-0.83,0l-1.31,0l-0.83,0l-1.33,0l-0.81,0l-1.33,0l-0.81,0l-1.33,0l-0.81,0l-1.33,0l-0.83,0l-1.31,0l-0.83,0l-1.31,0l-0.83,0l-1.33,0l-0.81,0l-1.33,0l-0.81,0l-1.34,0l-0.81,0l-1.33,0l-0.81,0l-1.32,0l-0.83,0l-1.31,0l-0.83,0l-1.33,0l-0.81,0l-1.33,0l-0.81,0l-1.33,0l-0.81,0l-1.34,0l-0.81,0l-1.33,0l-0.82,0l-1.32,0l-0.83,0l-1.31,0l-0.83,0l-1.33,0l-0.81,0l-1.33,0l-0.81,0l-1.32,0l-0.82,0l-1.33,0l-0.82,0l-1.32,0l-0.82,0l-1.32,0l-0.83,0l-1.33,0l-0.81,0l-1.33,0l-0.81,0l-1.33,0l-0.81,0l-1.33,0l-0.81,0l-1.33,0l-0.83,0l-1.31,0l-0.83,0l-1.32,0l-0.82,0l-1.33,0l-0.82,0l-1.32,0l-0.82,0l-1.32,0l-0.82,0l-1.32,0l-0.83,0l-1.31,0l-0.83,0l-1.31,0l-0.83,0l-1.33,0l-0.81,0l-1.33,0l-0.82,0l-1.33,0l-0.81,0l-1.33,0l-0.83,0l-1.31,0l-0.83,0l-1.31,0l-0.83,0l-1.32,0l-0.82,0l-1.32,0l-0.82,0l-1.32,0l-0.82,0l-1.33,0l-0.81,0l-1.33,0l-0.83,0l-1.31,0l-0.83,0l-1.33,0l-0.81,0l-1.33,0l-0.81,0l-1.33,0l-0.81,0l-1.33,0l-0.81,0l-1.33,0l-0.83,0l-1.32,0l-0.82,0l-1.32,0l-0.82,0l-1.33,0l-0.81,0l-1.33,0l-0.81,0l-1.33,0l-0.81,0l-1.33,0l-0.83,0l-1.31,0l-0.83,0l-1.32,0l-0.82,0l-1.33,0l-0.82,0l-1.33,0l-0.81,0l-1.33,0l-0.81,0l-1.33,0l-0.81,0l-1.33,0l-0.83,0l-1.3,0l-0.84,0l-1.32,0l-0.81,0l-1.33,0l-0.82,0l-1.33,0l-0.81,0l-1.33,0l-0.81,0l-1.33,0l-0.83,0l-1.31,0l-0.83,0l-1.31,0l-0.83,0l-1.33,0l-0.81,0l-1.33,0l-0.81,0l-1.33,0l-0.81,0l-1.33,0l-0.82,0l-1.32,0l-0.83,0l-1.31,0l-0.83,0l-1.33,0l-0.81,0l-1.33,0l-0.81,0l-1.33,0l-0.81,0l-1.33,0l-0.81,0l-1.33,0l-0.83,0l-1.32,0l-0.82,0l-1.33,0l-0.82,0l-1.33,0l-0.81,0l-1.32,0l-0.82,0l-1.32,0l-0.82,0l-1.32,0l-0.83,0l-1.31,0l-0.83,0l-1.32,0l-0.82,0l-1.33,0l-0.82,0l-1.33,0l-0.81,0l-1.33,0l-0.81,0l-1.33,0l-0.81,0l-1.33,0l-0.83,0l-1.31,0l-0.83,0l-1.32,0l-0.82,0l-1.32,0l-0.82,0l-1.33,0l-0.82,0l-1.32,0l-0.81,0l-1.08,0l-0.25,0l-0.05,0l-0.78,0l-0.39,0l-0.92,0l-0.25,0l-0.58,0l-0.59,0l-0.74,0l-0.42,0l-0.39,0l-0.78,0l-1.18,0l-0.18,0l-0.98,0l-1.16,0l-0.01,0l-1.17,0l-0.97,0l-0.2,0l-1.16,0l-0.79,0l-0.39,0l-1.17,0l-0.58,0l-0.58,0l-1.17,0l-0.4,0l-0.77,0l-1.17,0l-0.2,0l-0.96,0l-0.01,0l-1.17,0l-1.17,0l-1.16,0l-1.17,0l0,1.18l0,1.16l0,1.17l0,1.17l0,1.17l-1.17,0l-1.17,0l-1.17,0l-1.17,0l0,1.16l0,1.17l0,1.18l0,1.16l0,0.47l0,0.7l0,1.17l0,1.17l0,1.16l0,1.18l0,1.17l0,1.16l0,1.17l0,1.17l0,1.17l0,1.17l0,1.17l0,1.17l0,1.16l0,1.17l0,1.17l0,1.17l0,1.17l0,1.17l0,1.17l0,1.16l0,1.17l0,1.17l0,1.18l0,1.16l0,1.17l0,1.17l0,0.08l0,1.09l0,1.16l0,1.18l0,1.17l0,1.16l0,1.17l1.17,0l1.17,0l1.17,0l1.17,0l0,1.17l0,1.17l0,1.16l0,1.18l0,1.17l1.17,0l1.16,0l1.17,0l1.17,0l0.01,0l0.96,0l0.2,0l1.17,0l0.77,0l0.4,0l1.17,0l0.58,0l0.58,0l1.17,0l0.39,0l0.79,0l1.16,0l0.2,0l0.97,0l1.18,0l2.14,0l1.36,0l0.78,0l0.39,0l0.42,0l0.74,0l0.59,0l0.58,0l0.25,0l0.92,0l0.39,0l0.78,0l0.05,0l0.25,0l1.08,0l0.81,0l1.32,0l0.82,0l1.33,0l0.82,0l1.32,0l0.82,0l1.32,0l0.83,0l1.31,0l0.83,0l1.33,0l0.81,0l1.33,0l0.81,0l1.33,0l0.81,0l1.33,0l0.82,0l1.33,0l0.82,0l1.32,0l0.83,0l1.31,0l0.83,0l1.32,0l0.82,0l1.32,0l0.82,0l1.32,0l0.81,0l1.33,0l0.82,0l1.33,0l0.82,0l1.32,0l0.83,0l1.33,0l0.81,0l1.33,0l0.81,0l1.33,0l0.81,0l1.33,0l0.81,0l1.33,0l0.83,0l1.31,0l0.83,0l1.32,0l0.82,0l1.33,0l0.81,0l1.33,0l0.81,0l1.33,0l0.81,0l1.33,0l0.83,0l1.31,0l0.83,0l1.31,0l0.83,0l1.33,0l0.81,0l1.33,0l0.81,0l1.33,0l0.82,0l1.33,0l0.81,0l1.32,0l0.84,0l1.3,0l0.83,0l1.33,0l0.81,0l1.33,0l0.81,0l1.33,0l0.81,0l1.33,0l0.82,0l1.33,0l0.82,0l1.32,0l0.83,0l1.31,0l0.83,0l1.33,0l0.81,0l1.33,0l0.81,0l1.33,0l0.81,0l1.33,0l0.82,0l1.32,0l0.82,0l1.32,0l0.83,0l1.33,0l0.81,0l1.33,0l0.81,0l1.33,0l0.81,0l1.33,0l0.81,0l1.33,0l0.83,0l1.31,0l0.83,0l1.33,0l0.81,0l1.33,0l0.82,0l1.32,0l0.82,0l1.32,0l0.82,0l1.32,0l0.83,0l1.31,0l0.83,0l1.31,0l0.83,0l1.33,0l0.81,0l1.33,0l0.82,0l1.33,0l0.81,0l1.33,0l0.83,0l1.31,0l0.83,0l1.31,0l0.83,0l1.32,0l0.82,0l1.32,0l0.82,0l1.32,0l0.82,0l1.33,0l0.82,0l1.32,0l0.83,0l1.31,0l0.83,0l1.33,0l0.81,0l1.33,0l0.81,0l1.33,0l0.81,0l1.33,0l0.81,0l1.33,0l0.83,0l1.32,0l0.82,0l1.32,0l0.82,0l1.33,0l0.82,0l1.32,0l0.81,0l1.33,0l0.81,0l1.33,0l0.83,0l1.31,0l0.83,0l1.32,0l0.82,0l1.33,0l0.81,0l1.34,0l0.81,0l1.33,0l0.81,0l1.33,0l0.81,0l1.33,0l0.83,0l1.31,0l0.83,0l1.32,0l0.81,0l1.33,0l0.81,0l1.34,0l0.81,0l1.33,0l0.81,0l1.33,0l0.83,0l1.31,0l0.83,0l1.31,0l0.83,0l1.33,0l0.81,0l1.33,0l0.81,0l1.33,0l0.81,0l1.33,0l0.83,0l1.31,0l0.83,0l1.31,0l0.83,0l1.33,0l0.81,0l1.33,0l0.81,0l1.33,0l0.81,0l1.33,0l0.81,0l1.33,0l0.83,0l1.32,0l0.82,0l1.33,0l0.81,0l1.33,0l0.82,0l1.33,0l0.81,0l1.32,0l0.82,0l1.32,0l0.83,0l1.31,0l0.83,0l1.32,0l0.82,0l1.33,0l0.81,0l1.33,0l0.82,0l1.33,0l0.81,0l1.33,0l0.81,0l1.33,0l0.83,0l1.31,0l0.83,0l1.33,0l0.81,0l1.32,0l0.82,0l1.33,0l0.82,0l1.32,0l0.82,0l1.07,0l0.25,0l0.05,0l0.78,0l0.39,0l0.92,0l0.25,0l0.58,0l0.59,0l0.74,0l0.42,0l0.39,0l0.78,0l1.36,0l2.14,0l1.18,0l0.97,0l0.2,0l1.16,0l0.79,0l0.39,0l1.17,0l0.58,0l0.58,0l1.17,0l0.4,0l0.77,0l1.17,0l0.2,0l0.96,0l0.01,0l1.17,0l1.17,0l1.16,0l1.17,0l0,-1.17l0,-1.18l0,-1.16l0,-1.17l0,-1.17l1.17,0l1.17,0l1.17,0l1.17,0l0,-1.17l0,-1.16l0,-1.17l0,-1.18l0,-1.16l0,-1.09l0,-0.08l0,-1.17l0,-1.17l0,-1.16l0,-1.18l0,-1.17l0,-1.17l0,-1.16l0,-1.17l0,-1.17l0,-1.17l0,-1.17l0,-1.17l0,-1.17l0,-1.16l0,-1.17l0,-1.17l0,-1.17l0,-1.17l0,-1.17l0,-1.17l0,-1.16l0,-1.17l0,-1.18l0,-1.16l0,-1.17l0,-1.17l0,-0.7l0,-0.47l0,-1.16l0,-1.18l0,-1.17l0,-1.16l-1.17,0z" fill="white" id="svg_6"/>
   <path d="m84.78,37.63l0,-2.38l7.12,0l0,-2.37l2.38,0l0,-2.38l-9.5,0l0,-2.37l-2.38,0l0,-4.75l2.38,0l0,-2.38l11.87,0l0,2.38l2.38,0l0,9.5l-2.38,0l0,2.37l-2.37,0l0,2.38l-9.5,0zm2.37,-9.5l7.13,0l0,-4.75l-7.13,0l0,4.75zm19.8,9.5l0,-7.13l2.38,0l0,-2.37l2.37,0l0,-2.38l2.38,0l0,-2.37l-7.13,0l0,2.37l-4.75,0l0,-4.75l16.63,0l0,4.75l-2.38,0l0,2.38l-2.37,0l0,2.37l-2.38,0l0,7.13l-4.75,0zm19.8,0l0,-7.13l2.38,0l0,-2.37l2.37,0l0,-2.38l2.38,0l0,-2.37l-7.13,0l0,2.37l-4.75,0l0,-4.75l16.63,0l0,4.75l-2.38,0l0,2.38l-2.37,0l0,2.37l-2.38,0l0,7.13l-4.75,0zm37.22,0l0,-2.38l7.13,0l0,-2.37l2.37,0l0,-2.38l-9.5,0l0,-2.37l-2.37,0l0,-4.75l2.37,0l0,-2.38l11.88,0l0,2.38l2.37,0l0,9.5l-2.37,0l0,2.37l-2.38,0l0,2.38l-9.5,0zm2.38,-9.5l7.12,0l0,-4.75l-7.12,0l0,4.75zm17.43,9.5l0,-2.38l7.12,0l0,-2.37l2.38,0l0,-2.38l-9.5,0l0,-2.37l-2.38,0l0,-4.75l2.38,0l0,-2.38l11.87,0l0,2.38l2.38,0l0,9.5l-2.38,0l0,2.37l-2.37,0l0,2.38l-9.5,0zm2.37,-9.5l7.13,0l0,-4.75l-7.13,0l0,4.75zm17.42,9.5l0,-2.38l7.13,0l0,-2.37l2.37,0l0,-2.38l-9.5,0l0,-2.37l-2.37,0l0,-4.75l2.37,0l0,-2.38l11.88,0l0,2.38l2.37,0l0,9.5l-2.37,0l0,2.37l-2.38,0l0,2.38l-9.5,0zm2.38,-9.5l7.12,0l0,-4.75l-7.12,0l0,4.75zm37.23,9.5l0,-2.38l7.12,0l0,-2.37l2.38,0l0,-2.38l-9.5,0l0,-2.37l-2.38,0l0,-4.75l2.38,0l0,-2.38l11.87,0l0,2.38l2.38,0l0,9.5l-2.38,0l0,2.37l-2.37,0l0,2.38l-9.5,0zm2.37,-9.5l7.13,0l0,-4.75l-7.13,0l0,4.75zm17.43,9.5l0,-2.38l7.12,0l0,-2.37l2.38,0l0,-2.38l-9.5,0l0,-2.37l-2.38,0l0,-4.75l2.38,0l0,-2.38l11.87,0l0,2.38l2.38,0l0,9.5l-2.38,0l0,2.37l-2.37,0l0,2.38l-9.5,0zm2.37,-9.5l7.13,0l0,-4.75l-7.13,0l0,4.75zm17.42,9.5l0,-2.38l7.13,0l0,-2.37l2.37,0l0,-2.38l-9.5,0l0,-2.37l-2.37,0l0,-4.75l2.37,0l0,-2.38l11.88,0l0,2.38l2.37,0l0,9.5l-2.37,0l0,2.37l-2.38,0l0,2.38l-9.5,0zm2.38,-9.5l7.12,0l0,-4.75l-7.12,0l0,4.75zm17.42,9.5l0,-2.38l7.13,0l0,-2.37l2.37,0l0,-2.38l-9.5,0l0,-2.37l-2.37,0l0,-4.75l2.37,0l0,-2.38l11.88,0l0,2.38l2.37,0l0,9.5l-2.37,0l0,2.37l-2.38,0l0,2.38l-9.5,0zm2.38,-9.5l7.12,0l0,-4.75l-7.12,0l0,4.75z" fill="white" id="svg_8"/>
  </g>
 </g>
</svg>